STARTFONT 2.1
FONT -Bolkhov-VGA-Medium-R-Normal--16-160-75-75-C-80-iso10646-1
SIZE 16 75 75
FONTBOUNDINGBOX 8 16 0 -4
STARTPROPERTIES 24
FOUNDRY "Bolkhov"
FAMILY_NAME "VGA"
WEIGHT_NAME "Medium"
SLANT "R"
SETWIDTH_NAME "Normal"
ADD_STYLE_NAME ""
PIXEL_SIZE 16
POINT_SIZE 160
RESOLUTION_X 75
RESOLUTION_Y 75
SPACING "C"
AVERAGE_WIDTH 80
CHARSET_REGISTRY "iso10646"
CHARSET_ENCODING "1"
CAP_HEIGHT 10
X_HEIGHT 7
FONT_ASCENT 12
FONT_DESCENT 4
FACE_NAME "VGA Unicode"
COPYRIGHT "Copyright (c) 2000 Dmitry Bolkhovityanov, bolkhov@inp.nsk.su"
HOMEPAGE "http://www.inp.nsk.su/~bolkhov/files/fonts/univga/"
NOTICE "VGA is a trademark of IBM Corporation."
DEFAULT_CHAR 0
_XMBDFED_INFO "Edited with xmbdfed 4.4."
ENDPROPERTIES
CHARS 2899
STARTCHAR char0
ENCODING 0
SWIDTH 480 0
DWIDTH 8 0
BBX 8 16 0 -4
BITMAP
00
00
DA
02
80
82
02
80
82
02
80
B6
00
00
00
00
ENDCHAR
STARTCHAR space
ENCODING 32
SWIDTH 480 0
DWIDTH 8 0
BBX 8 16 0 -4
BITMAP
00
00
00
00
00
00
00
00
00
00
00
00
00
00
00
00
ENDCHAR
STARTCHAR exclam
ENCODING 33
SWIDTH 480 0
DWIDTH 8 0
BBX 8 16 0 -4
BITMAP
00
00
18
3C
3C
3C
18
18
18
00
18
18
00
00
00
00
ENDCHAR
STARTCHAR quotedbl
ENCODING 34
SWIDTH 480 0
DWIDTH 8 0
BBX 8 16 0 -4
BITMAP
00
66
66
66
24
00
00
00
00
00
00
00
00
00
00
00
ENDCHAR
STARTCHAR numbersign
ENCODING 35
SWIDTH 480 0
DWIDTH 8 0
BBX 8 16 0 -4
BITMAP
00
00
00
6C
6C
FE
6C
6C
6C
FE
6C
6C
00
00
00
00
ENDCHAR
STARTCHAR dollar
ENCODING 36
SWIDTH 480 0
DWIDTH 8 0
BBX 8 16 0 -4
BITMAP
18
18
7C
C6
C2
C0
7C
06
06
86
C6
7C
18
18
00
00
ENDCHAR
STARTCHAR percent
ENCODING 37
SWIDTH 480 0
DWIDTH 8 0
BBX 8 16 0 -4
BITMAP
00
00
00
00
C2
C6
0C
18
30
60
C6
86
00
00
00
00
ENDCHAR
STARTCHAR ampersand
ENCODING 38
SWIDTH 480 0
DWIDTH 8 0
BBX 8 16 0 -4
BITMAP
00
00
38
6C
6C
38
76
DC
CC
CC
CC
76
00
00
00
00
ENDCHAR
STARTCHAR quotesingle
ENCODING 39
SWIDTH 480 0
DWIDTH 8 0
BBX 8 16 0 -4
BITMAP
00
30
30
30
20
00
00
00
00
00
00
00
00
00
00
00
ENDCHAR
STARTCHAR parenleft
ENCODING 40
SWIDTH 480 0
DWIDTH 8 0
BBX 8 16 0 -4
BITMAP
00
00
0C
18
30
30
30
30
30
30
18
0C
00
00
00
00
ENDCHAR
STARTCHAR parenright
ENCODING 41
SWIDTH 480 0
DWIDTH 8 0
BBX 8 16 0 -4
BITMAP
00
00
30
18
0C
0C
0C
0C
0C
0C
18
30
00
00
00
00
ENDCHAR
STARTCHAR asterisk
ENCODING 42
SWIDTH 480 0
DWIDTH 8 0
BBX 8 16 0 -4
BITMAP
00
00
00
00
00
66
3C
FF
3C
66
00
00
00
00
00
00
ENDCHAR
STARTCHAR plus
ENCODING 43
SWIDTH 480 0
DWIDTH 8 0
BBX 8 16 0 -4
BITMAP
00
00
00
00
00
18
18
7E
18
18
00
00
00
00
00
00
ENDCHAR
STARTCHAR comma
ENCODING 44
SWIDTH 480 0
DWIDTH 8 0
BBX 8 16 0 -4
BITMAP
00
00
00
00
00
00
00
00
00
18
18
18
30
00
00
00
ENDCHAR
STARTCHAR hyphen
ENCODING 45
SWIDTH 480 0
DWIDTH 8 0
BBX 8 16 0 -4
BITMAP
00
00
00
00
00
00
00
FE
00
00
00
00
00
00
00
00
ENDCHAR
STARTCHAR period
ENCODING 46
SWIDTH 480 0
DWIDTH 8 0
BBX 8 16 0 -4
BITMAP
00
00
00
00
00
00
00
00
00
00
18
18
00
00
00
00
ENDCHAR
STARTCHAR slash
ENCODING 47
SWIDTH 480 0
DWIDTH 8 0
BBX 8 16 0 -4
BITMAP
00
00
00
00
02
06
0C
18
30
60
C0
80
00
00
00
00
ENDCHAR
STARTCHAR zero
ENCODING 48
SWIDTH 480 0
DWIDTH 8 0
BBX 8 16 0 -4
BITMAP
00
00
38
6C
C6
C6
D6
D6
C6
C6
6C
38
00
00
00
00
ENDCHAR
STARTCHAR one
ENCODING 49
SWIDTH 480 0
DWIDTH 8 0
BBX 8 16 0 -4
BITMAP
00
00
18
38
78
18
18
18
18
18
18
7E
00
00
00
00
ENDCHAR
STARTCHAR two
ENCODING 50
SWIDTH 480 0
DWIDTH 8 0
BBX 8 16 0 -4
BITMAP
00
00
7C
C6
06
0C
18
30
60
C0
C6
FE
00
00
00
00
ENDCHAR
STARTCHAR three
ENCODING 51
SWIDTH 480 0
DWIDTH 8 0
BBX 8 16 0 -4
BITMAP
00
00
7C
C6
06
06
3C
06
06
06
C6
7C
00
00
00
00
ENDCHAR
STARTCHAR four
ENCODING 52
SWIDTH 480 0
DWIDTH 8 0
BBX 8 16 0 -4
BITMAP
00
00
0C
1C
3C
6C
CC
FE
0C
0C
0C
1E
00
00
00
00
ENDCHAR
STARTCHAR five
ENCODING 53
SWIDTH 480 0
DWIDTH 8 0
BBX 8 16 0 -4
BITMAP
00
00
FE
C0
C0
C0
FC
06
06
06
C6
7C
00
00
00
00
ENDCHAR
STARTCHAR six
ENCODING 54
SWIDTH 480 0
DWIDTH 8 0
BBX 8 16 0 -4
BITMAP
00
00
38
60
C0
C0
FC
C6
C6
C6
C6
7C
00
00
00
00
ENDCHAR
STARTCHAR seven
ENCODING 55
SWIDTH 480 0
DWIDTH 8 0
BBX 8 16 0 -4
BITMAP
00
00
FE
C6
06
06
0C
18
30
30
30
30
00
00
00
00
ENDCHAR
STARTCHAR eight
ENCODING 56
SWIDTH 480 0
DWIDTH 8 0
BBX 8 16 0 -4
BITMAP
00
00
7C
C6
C6
C6
7C
C6
C6
C6
C6
7C
00
00
00
00
ENDCHAR
STARTCHAR nine
ENCODING 57
SWIDTH 480 0
DWIDTH 8 0
BBX 8 16 0 -4
BITMAP
00
00
7C
C6
C6
C6
7E
06
06
06
0C
78
00
00
00
00
ENDCHAR
STARTCHAR colon
ENCODING 58
SWIDTH 480 0
DWIDTH 8 0
BBX 8 16 0 -4
BITMAP
00
00
00
00
18
18
00
00
00
18
18
00
00
00
00
00
ENDCHAR
STARTCHAR semicolon
ENCODING 59
SWIDTH 480 0
DWIDTH 8 0
BBX 8 16 0 -4
BITMAP
00
00
00
00
18
18
00
00
00
18
18
30
00
00
00
00
ENDCHAR
STARTCHAR less
ENCODING 60
SWIDTH 480 0
DWIDTH 8 0
BBX 8 16 0 -4
BITMAP
00
00
00
06
0C
18
30
60
30
18
0C
06
00
00
00
00
ENDCHAR
STARTCHAR equal
ENCODING 61
SWIDTH 480 0
DWIDTH 8 0
BBX 8 16 0 -4
BITMAP
00
00
00
00
00
7E
00
00
7E
00
00
00
00
00
00
00
ENDCHAR
STARTCHAR greater
ENCODING 62
SWIDTH 480 0
DWIDTH 8 0
BBX 8 16 0 -4
BITMAP
00
00
00
60
30
18
0C
06
0C
18
30
60
00
00
00
00
ENDCHAR
STARTCHAR question
ENCODING 63
SWIDTH 480 0
DWIDTH 8 0
BBX 8 16 0 -4
BITMAP
00
00
7C
C6
C6
0C
18
18
18
00
18
18
00
00
00
00
ENDCHAR
STARTCHAR at
ENCODING 64
SWIDTH 480 0
DWIDTH 8 0
BBX 8 16 0 -4
BITMAP
00
00
00
7C
C6
C6
DE
DE
DE
DC
C0
7C
00
00
00
00
ENDCHAR
STARTCHAR A
ENCODING 65
SWIDTH 480 0
DWIDTH 8 0
BBX 8 16 0 -4
BITMAP
00
00
10
38
6C
C6
C6
FE
C6
C6
C6
C6
00
00
00
00
ENDCHAR
STARTCHAR B
ENCODING 66
SWIDTH 480 0
DWIDTH 8 0
BBX 8 16 0 -4
BITMAP
00
00
FC
66
66
66
7C
66
66
66
66
FC
00
00
00
00
ENDCHAR
STARTCHAR C
ENCODING 67
SWIDTH 480 0
DWIDTH 8 0
BBX 8 16 0 -4
BITMAP
00
00
3C
66
C2
C0
C0
C0
C0
C2
66
3C
00
00
00
00
ENDCHAR
STARTCHAR D
ENCODING 68
SWIDTH 480 0
DWIDTH 8 0
BBX 8 16 0 -4
BITMAP
00
00
F8
6C
66
66
66
66
66
66
6C
F8
00
00
00
00
ENDCHAR
STARTCHAR E
ENCODING 69
SWIDTH 480 0
DWIDTH 8 0
BBX 8 16 0 -4
BITMAP
00
00
FE
66
62
68
78
68
60
62
66
FE
00
00
00
00
ENDCHAR
STARTCHAR F
ENCODING 70
SWIDTH 480 0
DWIDTH 8 0
BBX 8 16 0 -4
BITMAP
00
00
FE
66
62
68
78
68
60
60
60
F0
00
00
00
00
ENDCHAR
STARTCHAR G
ENCODING 71
SWIDTH 480 0
DWIDTH 8 0
BBX 8 16 0 -4
BITMAP
00
00
3C
66
C2
C0
C0
DE
C6
C6
66
3A
00
00
00
00
ENDCHAR
STARTCHAR H
ENCODING 72
SWIDTH 480 0
DWIDTH 8 0
BBX 8 16 0 -4
BITMAP
00
00
C6
C6
C6
C6
FE
C6
C6
C6
C6
C6
00
00
00
00
ENDCHAR
STARTCHAR I
ENCODING 73
SWIDTH 480 0
DWIDTH 8 0
BBX 8 16 0 -4
BITMAP
00
00
3C
18
18
18
18
18
18
18
18
3C
00
00
00
00
ENDCHAR
STARTCHAR J
ENCODING 74
SWIDTH 480 0
DWIDTH 8 0
BBX 8 16 0 -4
BITMAP
00
00
1E
0C
0C
0C
0C
0C
CC
CC
CC
78
00
00
00
00
ENDCHAR
STARTCHAR K
ENCODING 75
SWIDTH 480 0
DWIDTH 8 0
BBX 8 16 0 -4
BITMAP
00
00
E6
66
66
6C
78
78
6C
66
66
E6
00
00
00
00
ENDCHAR
STARTCHAR L
ENCODING 76
SWIDTH 480 0
DWIDTH 8 0
BBX 8 16 0 -4
BITMAP
00
00
F0
60
60
60
60
60
60
62
66
FE
00
00
00
00
ENDCHAR
STARTCHAR M
ENCODING 77
SWIDTH 480 0
DWIDTH 8 0
BBX 8 16 0 -4
BITMAP
00
00
C6
EE
FE
FE
D6
C6
C6
C6
C6
C6
00
00
00
00
ENDCHAR
STARTCHAR N
ENCODING 78
SWIDTH 480 0
DWIDTH 8 0
BBX 8 16 0 -4
BITMAP
00
00
C6
E6
F6
FE
DE
CE
C6
C6
C6
C6
00
00
00
00
ENDCHAR
STARTCHAR O
ENCODING 79
SWIDTH 480 0
DWIDTH 8 0
BBX 8 16 0 -4
BITMAP
00
00
7C
C6
C6
C6
C6
C6
C6
C6
C6
7C
00
00
00
00
ENDCHAR
STARTCHAR P
ENCODING 80
SWIDTH 480 0
DWIDTH 8 0
BBX 8 16 0 -4
BITMAP
00
00
FC
66
66
66
7C
60
60
60
60
F0
00
00
00
00
ENDCHAR
STARTCHAR Q
ENCODING 81
SWIDTH 480 0
DWIDTH 8 0
BBX 8 16 0 -4
BITMAP
00
00
7C
C6
C6
C6
C6
C6
C6
D6
DE
7C
0C
0E
00
00
ENDCHAR
STARTCHAR R
ENCODING 82
SWIDTH 480 0
DWIDTH 8 0
BBX 8 16 0 -4
BITMAP
00
00
FC
66
66
66
7C
6C
66
66
66
E6
00
00
00
00
ENDCHAR
STARTCHAR S
ENCODING 83
SWIDTH 480 0
DWIDTH 8 0
BBX 8 16 0 -4
BITMAP
00
00
7C
C6
C6
60
38
0C
06
C6
C6
7C
00
00
00
00
ENDCHAR
STARTCHAR T
ENCODING 84
SWIDTH 480 0
DWIDTH 8 0
BBX 8 16 0 -4
BITMAP
00
00
7E
7E
5A
18
18
18
18
18
18
3C
00
00
00
00
ENDCHAR
STARTCHAR U
ENCODING 85
SWIDTH 480 0
DWIDTH 8 0
BBX 8 16 0 -4
BITMAP
00
00
C6
C6
C6
C6
C6
C6
C6
C6
C6
7C
00
00
00
00
ENDCHAR
STARTCHAR V
ENCODING 86
SWIDTH 480 0
DWIDTH 8 0
BBX 8 16 0 -4
BITMAP
00
00
C6
C6
C6
C6
C6
C6
C6
6C
38
10
00
00
00
00
ENDCHAR
STARTCHAR W
ENCODING 87
SWIDTH 480 0
DWIDTH 8 0
BBX 8 16 0 -4
BITMAP
00
00
C6
C6
C6
C6
D6
D6
D6
FE
EE
6C
00
00
00
00
ENDCHAR
STARTCHAR X
ENCODING 88
SWIDTH 480 0
DWIDTH 8 0
BBX 8 16 0 -4
BITMAP
00
00
C6
C6
6C
7C
38
38
7C
6C
C6
C6
00
00
00
00
ENDCHAR
STARTCHAR Y
ENCODING 89
SWIDTH 480 0
DWIDTH 8 0
BBX 8 16 0 -4
BITMAP
00
00
66
66
66
66
3C
18
18
18
18
3C
00
00
00
00
ENDCHAR
STARTCHAR Z
ENCODING 90
SWIDTH 480 0
DWIDTH 8 0
BBX 8 16 0 -4
BITMAP
00
00
FE
C6
86
0C
18
30
60
C2
C6
FE
00
00
00
00
ENDCHAR
STARTCHAR bracketleft
ENCODING 91
SWIDTH 480 0
DWIDTH 8 0
BBX 8 16 0 -4
BITMAP
00
00
3C
30
30
30
30
30
30
30
30
3C
00
00
00
00
ENDCHAR
STARTCHAR backslash
ENCODING 92
SWIDTH 480 0
DWIDTH 8 0
BBX 8 16 0 -4
BITMAP
00
00
00
80
C0
E0
70
38
1C
0E
06
02
00
00
00
00
ENDCHAR
STARTCHAR bracketright
ENCODING 93
SWIDTH 480 0
DWIDTH 8 0
BBX 8 16 0 -4
BITMAP
00
00
3C
0C
0C
0C
0C
0C
0C
0C
0C
3C
00
00
00
00
ENDCHAR
STARTCHAR asciicircum
ENCODING 94
SWIDTH 480 0
DWIDTH 8 0
BBX 8 16 0 -4
BITMAP
10
38
6C
C6
00
00
00
00
00
00
00
00
00
00
00
00
ENDCHAR
STARTCHAR underscore
ENCODING 95
SWIDTH 480 0
DWIDTH 8 0
BBX 8 16 0 -4
BITMAP
00
00
00
00
00
00
00
00
00
00
00
00
00
FF
00
00
ENDCHAR
STARTCHAR grave
ENCODING 96
SWIDTH 480 0
DWIDTH 8 0
BBX 8 16 0 -4
BITMAP
30
30
18
00
00
00
00
00
00
00
00
00
00
00
00
00
ENDCHAR
STARTCHAR a
ENCODING 97
SWIDTH 480 0
DWIDTH 8 0
BBX 8 16 0 -4
BITMAP
00
00
00
00
00
78
0C
7C
CC
CC
CC
76
00
00
00
00
ENDCHAR
STARTCHAR b
ENCODING 98
SWIDTH 480 0
DWIDTH 8 0
BBX 8 16 0 -4
BITMAP
00
00
E0
60
60
78
6C
66
66
66
66
7C
00
00
00
00
ENDCHAR
STARTCHAR c
ENCODING 99
SWIDTH 480 0
DWIDTH 8 0
BBX 8 16 0 -4
BITMAP
00
00
00
00
00
7C
C6
C0
C0
C0
C6
7C
00
00
00
00
ENDCHAR
STARTCHAR d
ENCODING 100
SWIDTH 480 0
DWIDTH 8 0
BBX 8 16 0 -4
BITMAP
00
00
1C
0C
0C
3C
6C
CC
CC
CC
CC
76
00
00
00
00
ENDCHAR
STARTCHAR e
ENCODING 101
SWIDTH 480 0
DWIDTH 8 0
BBX 8 16 0 -4
BITMAP
00
00
00
00
00
7C
C6
FE
C0
C0
C6
7C
00
00
00
00
ENDCHAR
STARTCHAR f
ENCODING 102
SWIDTH 480 0
DWIDTH 8 0
BBX 8 16 0 -4
BITMAP
00
00
38
6C
64
60
F0
60
60
60
60
F0
00
00
00
00
ENDCHAR
STARTCHAR g
ENCODING 103
SWIDTH 480 0
DWIDTH 8 0
BBX 8 16 0 -4
BITMAP
00
00
00
00
00
76
CC
CC
CC
CC
CC
7C
0C
CC
78
00
ENDCHAR
STARTCHAR h
ENCODING 104
SWIDTH 480 0
DWIDTH 8 0
BBX 8 16 0 -4
BITMAP
00
00
E0
60
60
6C
76
66
66
66
66
E6
00
00
00
00
ENDCHAR
STARTCHAR i
ENCODING 105
SWIDTH 480 0
DWIDTH 8 0
BBX 8 16 0 -4
BITMAP
00
00
18
18
00
38
18
18
18
18
18
3C
00
00
00
00
ENDCHAR
STARTCHAR j
ENCODING 106
SWIDTH 480 0
DWIDTH 8 0
BBX 8 16 0 -4
BITMAP
00
00
06
06
00
0E
06
06
06
06
06
06
66
66
3C
00
ENDCHAR
STARTCHAR k
ENCODING 107
SWIDTH 480 0
DWIDTH 8 0
BBX 8 16 0 -4
BITMAP
00
00
E0
60
60
66
6C
78
78
6C
66
E6
00
00
00
00
ENDCHAR
STARTCHAR l
ENCODING 108
SWIDTH 480 0
DWIDTH 8 0
BBX 8 16 0 -4
BITMAP
00
00
38
18
18
18
18
18
18
18
18
3C
00
00
00
00
ENDCHAR
STARTCHAR m
ENCODING 109
SWIDTH 480 0
DWIDTH 8 0
BBX 8 16 0 -4
BITMAP
00
00
00
00
00
EC
FE
D6
D6
D6
D6
C6
00
00
00
00
ENDCHAR
STARTCHAR n
ENCODING 110
SWIDTH 480 0
DWIDTH 8 0
BBX 8 16 0 -4
BITMAP
00
00
00
00
00
DC
66
66
66
66
66
66
00
00
00
00
ENDCHAR
STARTCHAR o
ENCODING 111
SWIDTH 480 0
DWIDTH 8 0
BBX 8 16 0 -4
BITMAP
00
00
00
00
00
7C
C6
C6
C6
C6
C6
7C
00
00
00
00
ENDCHAR
STARTCHAR p
ENCODING 112
SWIDTH 480 0
DWIDTH 8 0
BBX 8 16 0 -4
BITMAP
00
00
00
00
00
DC
66
66
66
66
66
7C
60
60
F0
00
ENDCHAR
STARTCHAR q
ENCODING 113
SWIDTH 480 0
DWIDTH 8 0
BBX 8 16 0 -4
BITMAP
00
00
00
00
00
76
CC
CC
CC
CC
CC
7C
0C
0C
1E
00
ENDCHAR
STARTCHAR r
ENCODING 114
SWIDTH 480 0
DWIDTH 8 0
BBX 8 16 0 -4
BITMAP
00
00
00
00
00
DC
76
66
60
60
60
F0
00
00
00
00
ENDCHAR
STARTCHAR s
ENCODING 115
SWIDTH 480 0
DWIDTH 8 0
BBX 8 16 0 -4
BITMAP
00
00
00
00
00
7C
C6
60
38
0C
C6
7C
00
00
00
00
ENDCHAR
STARTCHAR t
ENCODING 116
SWIDTH 480 0
DWIDTH 8 0
BBX 8 16 0 -4
BITMAP
00
00
10
30
30
FC
30
30
30
30
36
1C
00
00
00
00
ENDCHAR
STARTCHAR u
ENCODING 117
SWIDTH 480 0
DWIDTH 8 0
BBX 8 16 0 -4
BITMAP
00
00
00
00
00
CC
CC
CC
CC
CC
CC
76
00
00
00
00
ENDCHAR
STARTCHAR v
ENCODING 118
SWIDTH 480 0
DWIDTH 8 0
BBX 8 16 0 -4
BITMAP
00
00
00
00
00
66
66
66
66
66
3C
18
00
00
00
00
ENDCHAR
STARTCHAR w
ENCODING 119
SWIDTH 480 0
DWIDTH 8 0
BBX 8 16 0 -4
BITMAP
00
00
00
00
00
C6
C6
D6
D6
D6
FE
6C
00
00
00
00
ENDCHAR
STARTCHAR x
ENCODING 120
SWIDTH 480 0
DWIDTH 8 0
BBX 8 16 0 -4
BITMAP
00
00
00
00
00
C6
6C
38
38
38
6C
C6
00
00
00
00
ENDCHAR
STARTCHAR y
ENCODING 121
SWIDTH 480 0
DWIDTH 8 0
BBX 8 16 0 -4
BITMAP
00
00
00
00
00
C6
C6
C6
C6
C6
C6
7E
06
0C
F8
00
ENDCHAR
STARTCHAR z
ENCODING 122
SWIDTH 480 0
DWIDTH 8 0
BBX 8 16 0 -4
BITMAP
00
00
00
00
00
FE
CC
18
30
60
C6
FE
00
00
00
00
ENDCHAR
STARTCHAR braceleft
ENCODING 123
SWIDTH 480 0
DWIDTH 8 0
BBX 8 16 0 -4
BITMAP
00
00
0E
18
18
18
70
18
18
18
18
0E
00
00
00
00
ENDCHAR
STARTCHAR bar
ENCODING 124
SWIDTH 480 0
DWIDTH 8 0
BBX 8 16 0 -4
BITMAP
00
00
18
18
18
18
00
18
18
18
18
18
00
00
00
00
ENDCHAR
STARTCHAR braceright
ENCODING 125
SWIDTH 480 0
DWIDTH 8 0
BBX 8 16 0 -4
BITMAP
00
00
70
18
18
18
0E
18
18
18
18
70
00
00
00
00
ENDCHAR
STARTCHAR asciitilde
ENCODING 126
SWIDTH 480 0
DWIDTH 8 0
BBX 8 16 0 -4
BITMAP
00
00
76
DC
00
00
00
00
00
00
00
00
00
00
00
00
ENDCHAR
STARTCHAR char127
ENCODING 127
SWIDTH 480 0
DWIDTH 8 0
BBX 8 16 0 -4
BITMAP
00
00
00
00
10
38
6C
C6
C6
C6
FE
00
00
00
00
00
ENDCHAR
STARTCHAR space
ENCODING 160
SWIDTH 480 0
DWIDTH 8 0
BBX 8 16 0 -4
BITMAP
00
00
00
00
00
00
00
00
00
00
00
00
00
00
00
00
ENDCHAR
STARTCHAR exclamdown
ENCODING 161
SWIDTH 480 0
DWIDTH 8 0
BBX 8 16 0 -4
BITMAP
00
00
18
18
00
18
18
18
3C
3C
3C
18
00
00
00
00
ENDCHAR
STARTCHAR cent
ENCODING 162
SWIDTH 480 0
DWIDTH 8 0
BBX 8 16 0 -4
BITMAP
00
18
18
3C
66
60
60
60
66
3C
18
18
00
00
00
00
ENDCHAR
STARTCHAR sterling
ENCODING 163
SWIDTH 480 0
DWIDTH 8 0
BBX 8 16 0 -4
BITMAP
00
38
6C
64
60
F0
60
60
60
60
E6
FC
00
00
00
00
ENDCHAR
STARTCHAR currency
ENCODING 164
SWIDTH 480 0
DWIDTH 8 0
BBX 8 16 0 -4
BITMAP
00
00
00
00
66
3C
66
66
66
3C
66
00
00
00
00
00
ENDCHAR
STARTCHAR yen
ENCODING 165
SWIDTH 480 0
DWIDTH 8 0
BBX 8 16 0 -4
BITMAP
00
00
66
66
3C
18
7E
18
7E
18
18
18
00
00
00
00
ENDCHAR
STARTCHAR brokenbar
ENCODING 166
SWIDTH 480 0
DWIDTH 8 0
BBX 8 16 0 -4
BITMAP
00
00
18
18
18
18
00
18
18
18
18
18
00
00
00
00
ENDCHAR
STARTCHAR section
ENCODING 167
SWIDTH 480 0
DWIDTH 8 0
BBX 8 16 0 -4
BITMAP
00
7C
C6
60
38
6C
C6
C6
6C
38
0C
C6
7C
00
00
00
ENDCHAR
STARTCHAR dieresis
ENCODING 168
SWIDTH 480 0
DWIDTH 8 0
BBX 8 16 0 -4
BITMAP
00
00
6C
6C
00
00
00
00
00
00
00
00
00
00
00
00
ENDCHAR
STARTCHAR copyright
ENCODING 169
SWIDTH 480 0
DWIDTH 8 0
BBX 8 16 0 -4
BITMAP
00
00
3C
42
99
A5
A1
A1
A5
99
42
3C
00
00
00
00
ENDCHAR
STARTCHAR ordfeminine
ENCODING 170
SWIDTH 480 0
DWIDTH 8 0
BBX 8 16 0 -4
BITMAP
00
3C
6C
6C
3E
00
7E
00
00
00
00
00
00
00
00
00
ENDCHAR
STARTCHAR guillemotleft
ENCODING 171
SWIDTH 480 0
DWIDTH 8 0
BBX 8 16 0 -4
BITMAP
00
00
00
00
00
36
6C
D8
6C
36
00
00
00
00
00
00
ENDCHAR
STARTCHAR logicalnot
ENCODING 172
SWIDTH 480 0
DWIDTH 8 0
BBX 8 16 0 -4
BITMAP
00
00
00
00
00
00
FE
06
06
06
06
00
00
00
00
00
ENDCHAR
STARTCHAR hyphen
ENCODING 173
SWIDTH 480 0
DWIDTH 8 0
BBX 8 16 0 -4
BITMAP
00
00
00
00
00
00
00
3C
00
00
00
00
00
00
00
00
ENDCHAR
STARTCHAR registered
ENCODING 174
SWIDTH 480 0
DWIDTH 8 0
BBX 8 16 0 -4
BITMAP
00
00
38
44
BA
B2
AA
44
38
00
00
00
00
00
00
00
ENDCHAR
STARTCHAR macron
ENCODING 175
SWIDTH 480 0
DWIDTH 8 0
BBX 8 16 0 -4
BITMAP
00
00
00
7C
00
00
00
00
00
00
00
00
00
00
00
00
ENDCHAR
STARTCHAR degree
ENCODING 176
SWIDTH 480 0
DWIDTH 8 0
BBX 8 16 0 -4
BITMAP
00
38
6C
6C
38
00
00
00
00
00
00
00
00
00
00
00
ENDCHAR
STARTCHAR plusminus
ENCODING 177
SWIDTH 480 0
DWIDTH 8 0
BBX 8 16 0 -4
BITMAP
00
00
00
00
18
18
7E
18
18
00
7E
00
00
00
00
00
ENDCHAR
STARTCHAR twosuperior
ENCODING 178
SWIDTH 480 0
DWIDTH 8 0
BBX 8 16 0 -4
BITMAP
00
70
D8
30
60
C8
F8
00
00
00
00
00
00
00
00
00
ENDCHAR
STARTCHAR threesuperior
ENCODING 179
SWIDTH 480 0
DWIDTH 8 0
BBX 8 16 0 -4
BITMAP
00
70
D8
30
18
D8
70
00
00
00
00
00
00
00
00
00
ENDCHAR
STARTCHAR acute
ENCODING 180
SWIDTH 480 0
DWIDTH 8 0
BBX 8 16 0 -4
BITMAP
00
00
0C
18
00
00
00
00
00
00
00
00
00
00
00
00
ENDCHAR
STARTCHAR mu
ENCODING 181
SWIDTH 480 0
DWIDTH 8 0
BBX 8 16 0 -4
BITMAP
00
00
00
00
00
CC
CC
CC
CC
CC
CC
F6
C0
C0
C0
00
ENDCHAR
STARTCHAR paragraph
ENCODING 182
SWIDTH 480 0
DWIDTH 8 0
BBX 8 16 0 -4
BITMAP
00
00
7F
DB
DB
DB
7B
1B
1B
1B
1B
1B
00
00
00
00
ENDCHAR
STARTCHAR periodcentered
ENCODING 183
SWIDTH 480 0
DWIDTH 8 0
BBX 8 16 0 -4
BITMAP
00
00
00
00
00
00
00
00
18
00
00
00
00
00
00
00
ENDCHAR
STARTCHAR cedilla
ENCODING 184
SWIDTH 480 0
DWIDTH 8 0
BBX 8 16 0 -4
BITMAP
00
00
00
00
00
00
00
00
00
00
00
00
18
0C
38
00
ENDCHAR
STARTCHAR onesuperior
ENCODING 185
SWIDTH 480 0
DWIDTH 8 0
BBX 8 16 0 -4
BITMAP
00
30
70
30
30
30
78
00
00
00
00
00
00
00
00
00
ENDCHAR
STARTCHAR ordmasculine
ENCODING 186
SWIDTH 480 0
DWIDTH 8 0
BBX 8 16 0 -4
BITMAP
00
38
6C
6C
38
00
7C
00
00
00
00
00
00
00
00
00
ENDCHAR
STARTCHAR guillemotright
ENCODING 187
SWIDTH 480 0
DWIDTH 8 0
BBX 8 16 0 -4
BITMAP
00
00
00
00
00
D8
6C
36
6C
D8
00
00
00
00
00
00
ENDCHAR
STARTCHAR onequarter
ENCODING 188
SWIDTH 480 0
DWIDTH 8 0
BBX 8 16 0 -4
BITMAP
00
C0
C0
C2
C6
CC
18
30
66
CE
9E
3E
06
06
00
00
ENDCHAR
STARTCHAR onehalf
ENCODING 189
SWIDTH 480 0
DWIDTH 8 0
BBX 8 16 0 -4
BITMAP
00
C0
C0
C2
C6
CC
18
30
60
DC
86
0C
18
3E
00
00
ENDCHAR
STARTCHAR threequarters
ENCODING 190
SWIDTH 480 0
DWIDTH 8 0
BBX 8 16 0 -4
BITMAP
00
E0
30
62
36
EC
18
30
66
CE
9E
3E
06
06
00
00
ENDCHAR
STARTCHAR questiondown
ENCODING 191
SWIDTH 480 0
DWIDTH 8 0
BBX 8 16 0 -4
BITMAP
00
00
30
30
00
30
30
60
C0
C6
C6
7C
00
00
00
00
ENDCHAR
STARTCHAR Agrave
ENCODING 192
SWIDTH 480 0
DWIDTH 8 0
BBX 8 16 0 -4
BITMAP
60
30
00
10
38
6C
C6
C6
FE
C6
C6
C6
00
00
00
00
ENDCHAR
STARTCHAR Aacute
ENCODING 193
SWIDTH 480 0
DWIDTH 8 0
BBX 8 16 0 -4
BITMAP
0C
18
00
10
38
6C
C6
C6
FE
C6
C6
C6
00
00
00
00
ENDCHAR
STARTCHAR Acircumflex
ENCODING 194
SWIDTH 480 0
DWIDTH 8 0
BBX 8 16 0 -4
BITMAP
10
38
6C
10
38
6C
C6
C6
FE
C6
C6
C6
00
00
00
00
ENDCHAR
STARTCHAR Atilde
ENCODING 195
SWIDTH 480 0
DWIDTH 8 0
BBX 8 16 0 -4
BITMAP
76
DC
00
10
38
6C
C6
C6
FE
C6
C6
C6
00
00
00
00
ENDCHAR
STARTCHAR Adieresis
ENCODING 196
SWIDTH 480 0
DWIDTH 8 0
BBX 8 16 0 -4
BITMAP
6C
6C
00
10
38
6C
C6
C6
FE
C6
C6
C6
00
00
00
00
ENDCHAR
STARTCHAR Aring
ENCODING 197
SWIDTH 480 0
DWIDTH 8 0
BBX 8 16 0 -4
BITMAP
38
6C
38
10
38
6C
C6
C6
FE
C6
C6
C6
00
00
00
00
ENDCHAR
STARTCHAR AE
ENCODING 198
SWIDTH 480 0
DWIDTH 8 0
BBX 8 16 0 -4
BITMAP
00
00
3E
6C
CC
CC
FE
CC
CC
CC
CC
CE
00
00
00
00
ENDCHAR
STARTCHAR Ccedilla
ENCODING 199
SWIDTH 480 0
DWIDTH 8 0
BBX 8 16 0 -4
BITMAP
00
00
3C
66
C2
C0
C0
C0
C0
C2
66
3C
18
0C
38
00
ENDCHAR
STARTCHAR Egrave
ENCODING 200
SWIDTH 480 0
DWIDTH 8 0
BBX 8 16 0 -4
BITMAP
30
18
00
FE
66
62
68
78
68
62
66
FE
00
00
00
00
ENDCHAR
STARTCHAR Eacute
ENCODING 201
SWIDTH 480 0
DWIDTH 8 0
BBX 8 16 0 -4
BITMAP
0C
18
00
FE
66
62
68
78
68
62
66
FE
00
00
00
00
ENDCHAR
STARTCHAR Ecircumflex
ENCODING 202
SWIDTH 480 0
DWIDTH 8 0
BBX 8 16 0 -4
BITMAP
10
38
44
FE
66
62
68
78
68
62
66
FE
00
00
00
00
ENDCHAR
STARTCHAR Edieresis
ENCODING 203
SWIDTH 480 0
DWIDTH 8 0
BBX 8 16 0 -4
BITMAP
6C
6C
00
FE
66
62
68
78
68
62
66
FE
00
00
00
00
ENDCHAR
STARTCHAR Igrave
ENCODING 204
SWIDTH 480 0
DWIDTH 8 0
BBX 8 16 0 -4
BITMAP
30
18
00
3C
18
18
18
18
18
18
18
3C
00
00
00
00
ENDCHAR
STARTCHAR Iacute
ENCODING 205
SWIDTH 480 0
DWIDTH 8 0
BBX 8 16 0 -4
BITMAP
0C
18
00
3C
18
18
18
18
18
18
18
3C
00
00
00
00
ENDCHAR
STARTCHAR Icircumflex
ENCODING 206
SWIDTH 480 0
DWIDTH 8 0
BBX 8 16 0 -4
BITMAP
18
3C
42
3C
18
18
18
18
18
18
18
3C
00
00
00
00
ENDCHAR
STARTCHAR Idieresis
ENCODING 207
SWIDTH 480 0
DWIDTH 8 0
BBX 8 16 0 -4
BITMAP
66
66
00
3C
18
18
18
18
18
18
18
3C
00
00
00
00
ENDCHAR
STARTCHAR Eth
ENCODING 208
SWIDTH 480 0
DWIDTH 8 0
BBX 8 16 0 -4
BITMAP
00
00
F8
6C
66
66
F6
66
66
66
6C
F8
00
00
00
00
ENDCHAR
STARTCHAR Ntilde
ENCODING 209
SWIDTH 480 0
DWIDTH 8 0
BBX 8 16 0 -4
BITMAP
76
DC
00
C6
E6
F6
FE
DE
CE
C6
C6
C6
00
00
00
00
ENDCHAR
STARTCHAR Ograve
ENCODING 210
SWIDTH 480 0
DWIDTH 8 0
BBX 8 16 0 -4
BITMAP
60
30
00
7C
C6
C6
C6
C6
C6
C6
C6
7C
00
00
00
00
ENDCHAR
STARTCHAR Oacute
ENCODING 211
SWIDTH 480 0
DWIDTH 8 0
BBX 8 16 0 -4
BITMAP
0C
18
00
7C
C6
C6
C6
C6
C6
C6
C6
7C
00
00
00
00
ENDCHAR
STARTCHAR Ocircumflex
ENCODING 212
SWIDTH 480 0
DWIDTH 8 0
BBX 8 16 0 -4
BITMAP
10
38
44
7C
C6
C6
C6
C6
C6
C6
C6
7C
00
00
00
00
ENDCHAR
STARTCHAR Otilde
ENCODING 213
SWIDTH 480 0
DWIDTH 8 0
BBX 8 16 0 -4
BITMAP
76
DC
00
7C
C6
C6
C6
C6
C6
C6
C6
7C
00
00
00
00
ENDCHAR
STARTCHAR Odieresis
ENCODING 214
SWIDTH 480 0
DWIDTH 8 0
BBX 8 16 0 -4
BITMAP
6C
6C
00
7C
C6
C6
C6
C6
C6
C6
C6
7C
00
00
00
00
ENDCHAR
STARTCHAR multiply
ENCODING 215
SWIDTH 480 0
DWIDTH 8 0
BBX 8 16 0 -4
BITMAP
00
00
00
00
00
66
3C
18
3C
66
00
00
00
00
00
00
ENDCHAR
STARTCHAR Oslash
ENCODING 216
SWIDTH 480 0
DWIDTH 8 0
BBX 8 16 0 -4
BITMAP
00
00
7A
C4
CE
CE
D6
D6
E6
E6
46
BC
00
00
00
00
ENDCHAR
STARTCHAR Ugrave
ENCODING 217
SWIDTH 480 0
DWIDTH 8 0
BBX 8 16 0 -4
BITMAP
60
30
00
C6
C6
C6
C6
C6
C6
C6
C6
7C
00
00
00
00
ENDCHAR
STARTCHAR Uacute
ENCODING 218
SWIDTH 480 0
DWIDTH 8 0
BBX 8 16 0 -4
BITMAP
0C
18
00
C6
C6
C6
C6
C6
C6
C6
C6
7C
00
00
00
00
ENDCHAR
STARTCHAR Ucircumflex
ENCODING 219
SWIDTH 480 0
DWIDTH 8 0
BBX 8 16 0 -4
BITMAP
10
38
44
C6
C6
C6
C6
C6
C6
C6
C6
7C
00
00
00
00
ENDCHAR
STARTCHAR Udieresis
ENCODING 220
SWIDTH 480 0
DWIDTH 8 0
BBX 8 16 0 -4
BITMAP
6C
6C
00
C6
C6
C6
C6
C6
C6
C6
C6
7C
00
00
00
00
ENDCHAR
STARTCHAR Yacute
ENCODING 221
SWIDTH 480 0
DWIDTH 8 0
BBX 8 16 0 -4
BITMAP
0C
18
00
66
66
66
3C
18
18
18
18
3C
00
00
00
00
ENDCHAR
STARTCHAR Thorn
ENCODING 222
SWIDTH 480 0
DWIDTH 8 0
BBX 8 16 0 -4
BITMAP
00
00
F0
60
7C
66
66
66
66
7C
60
F0
00
00
00
00
ENDCHAR
STARTCHAR germandbls
ENCODING 223
SWIDTH 480 0
DWIDTH 8 0
BBX 8 16 0 -4
BITMAP
00
00
3C
66
66
66
6C
66
66
66
66
EC
00
00
00
00
ENDCHAR
STARTCHAR agrave
ENCODING 224
SWIDTH 480 0
DWIDTH 8 0
BBX 8 16 0 -4
BITMAP
00
00
60
30
00
78
0C
7C
CC
CC
CC
76
00
00
00
00
ENDCHAR
STARTCHAR aacute
ENCODING 225
SWIDTH 480 0
DWIDTH 8 0
BBX 8 16 0 -4
BITMAP
00
00
18
30
00
78
0C
7C
CC
CC
CC
76
00
00
00
00
ENDCHAR
STARTCHAR acircumflex
ENCODING 226
SWIDTH 480 0
DWIDTH 8 0
BBX 8 16 0 -4
BITMAP
00
10
38
6C
00
78
0C
7C
CC
CC
CC
76
00
00
00
00
ENDCHAR
STARTCHAR atilde
ENCODING 227
SWIDTH 480 0
DWIDTH 8 0
BBX 8 16 0 -4
BITMAP
00
00
76
DC
00
78
0C
7C
CC
CC
CC
76
00
00
00
00
ENDCHAR
STARTCHAR adieresis
ENCODING 228
SWIDTH 480 0
DWIDTH 8 0
BBX 8 16 0 -4
BITMAP
00
00
6C
6C
00
78
0C
7C
CC
CC
CC
76
00
00
00
00
ENDCHAR
STARTCHAR aring
ENCODING 229
SWIDTH 480 0
DWIDTH 8 0
BBX 8 16 0 -4
BITMAP
00
38
6C
38
00
78
0C
7C
CC
CC
CC
76
00
00
00
00
ENDCHAR
STARTCHAR ae
ENCODING 230
SWIDTH 480 0
DWIDTH 8 0
BBX 8 16 0 -4
BITMAP
00
00
00
00
00
CC
76
36
7E
D8
D8
6E
00
00
00
00
ENDCHAR
STARTCHAR ccedilla
ENCODING 231
SWIDTH 480 0
DWIDTH 8 0
BBX 8 16 0 -4
BITMAP
00
00
00
00
00
7C
C6
C0
C0
C0
C6
7C
18
0C
38
00
ENDCHAR
STARTCHAR egrave
ENCODING 232
SWIDTH 480 0
DWIDTH 8 0
BBX 8 16 0 -4
BITMAP
00
00
60
30
00
7C
C6
FE
C0
C0
C6
7C
00
00
00
00
ENDCHAR
STARTCHAR eacute
ENCODING 233
SWIDTH 480 0
DWIDTH 8 0
BBX 8 16 0 -4
BITMAP
00
00
0C
18
00
7C
C6
FE
C0
C0
C6
7C
00
00
00
00
ENDCHAR
STARTCHAR ecircumflex
ENCODING 234
SWIDTH 480 0
DWIDTH 8 0
BBX 8 16 0 -4
BITMAP
00
10
38
6C
00
7C
C6
FE
C0
C0
C6
7C
00
00
00
00
ENDCHAR
STARTCHAR edieresis
ENCODING 235
SWIDTH 480 0
DWIDTH 8 0
BBX 8 16 0 -4
BITMAP
00
00
6C
6C
00
7C
C6
FE
C0
C0
C6
7C
00
00
00
00
ENDCHAR
STARTCHAR igrave
ENCODING 236
SWIDTH 480 0
DWIDTH 8 0
BBX 8 16 0 -4
BITMAP
00
00
30
18
00
38
18
18
18
18
18
3C
00
00
00
00
ENDCHAR
STARTCHAR iacute
ENCODING 237
SWIDTH 480 0
DWIDTH 8 0
BBX 8 16 0 -4
BITMAP
00
00
0C
18
00
38
18
18
18
18
18
3C
00
00
00
00
ENDCHAR
STARTCHAR icircumflex
ENCODING 238
SWIDTH 480 0
DWIDTH 8 0
BBX 8 16 0 -4
BITMAP
00
10
38
6C
00
38
18
18
18
18
18
3C
00
00
00
00
ENDCHAR
STARTCHAR idieresis
ENCODING 239
SWIDTH 480 0
DWIDTH 8 0
BBX 8 16 0 -4
BITMAP
00
00
66
66
00
38
18
18
18
18
18
3C
00
00
00
00
ENDCHAR
STARTCHAR eth
ENCODING 240
SWIDTH 480 0
DWIDTH 8 0
BBX 8 16 0 -4
BITMAP
00
00
76
1C
3C
06
7E
C6
C6
C6
C6
7C
00
00
00
00
ENDCHAR
STARTCHAR ntilde
ENCODING 241
SWIDTH 480 0
DWIDTH 8 0
BBX 8 16 0 -4
BITMAP
00
00
76
DC
00
DC
66
66
66
66
66
66
00
00
00
00
ENDCHAR
STARTCHAR ograve
ENCODING 242
SWIDTH 480 0
DWIDTH 8 0
BBX 8 16 0 -4
BITMAP
00
00
60
30
00
7C
C6
C6
C6
C6
C6
7C
00
00
00
00
ENDCHAR
STARTCHAR oacute
ENCODING 243
SWIDTH 480 0
DWIDTH 8 0
BBX 8 16 0 -4
BITMAP
00
00
0C
18
00
7C
C6
C6
C6
C6
C6
7C
00
00
00
00
ENDCHAR
STARTCHAR ocircumflex
ENCODING 244
SWIDTH 480 0
DWIDTH 8 0
BBX 8 16 0 -4
BITMAP
00
10
38
6C
00
7C
C6
C6
C6
C6
C6
7C
00
00
00
00
ENDCHAR
STARTCHAR otilde
ENCODING 245
SWIDTH 480 0
DWIDTH 8 0
BBX 8 16 0 -4
BITMAP
00
00
76
DC
00
7C
C6
C6
C6
C6
C6
7C
00
00
00
00
ENDCHAR
STARTCHAR odieresis
ENCODING 246
SWIDTH 480 0
DWIDTH 8 0
BBX 8 16 0 -4
BITMAP
00
00
6C
6C
00
7C
C6
C6
C6
C6
C6
7C
00
00
00
00
ENDCHAR
STARTCHAR divide
ENCODING 247
SWIDTH 480 0
DWIDTH 8 0
BBX 8 16 0 -4
BITMAP
00
00
00
00
18
18
00
7E
00
18
18
00
00
00
00
00
ENDCHAR
STARTCHAR oslash
ENCODING 248
SWIDTH 480 0
DWIDTH 8 0
BBX 8 16 0 -4
BITMAP
00
00
00
00
00
7A
C4
CE
D6
E6
46
BC
00
00
00
00
ENDCHAR
STARTCHAR ugrave
ENCODING 249
SWIDTH 480 0
DWIDTH 8 0
BBX 8 16 0 -4
BITMAP
00
00
60
30
00
CC
CC
CC
CC
CC
CC
76
00
00
00
00
ENDCHAR
STARTCHAR uacute
ENCODING 250
SWIDTH 480 0
DWIDTH 8 0
BBX 8 16 0 -4
BITMAP
00
00
18
30
00
CC
CC
CC
CC
CC
CC
76
00
00
00
00
ENDCHAR
STARTCHAR ucircumflex
ENCODING 251
SWIDTH 480 0
DWIDTH 8 0
BBX 8 16 0 -4
BITMAP
00
10
38
6C
00
CC
CC
CC
CC
CC
CC
76
00
00
00
00
ENDCHAR
STARTCHAR udieresis
ENCODING 252
SWIDTH 480 0
DWIDTH 8 0
BBX 8 16 0 -4
BITMAP
00
00
CC
CC
00
CC
CC
CC
CC
CC
CC
76
00
00
00
00
ENDCHAR
STARTCHAR yacute
ENCODING 253
SWIDTH 480 0
DWIDTH 8 0
BBX 8 16 0 -4
BITMAP
00
00
0C
18
00
C6
C6
C6
C6
C6
C6
7E
06
0C
F8
00
ENDCHAR
STARTCHAR thorn
ENCODING 254
SWIDTH 480 0
DWIDTH 8 0
BBX 8 16 0 -4
BITMAP
00
00
E0
60
60
7C
66
66
66
66
66
7C
60
60
F0
00
ENDCHAR
STARTCHAR ydieresis
ENCODING 255
SWIDTH 480 0
DWIDTH 8 0
BBX 8 16 0 -4
BITMAP
00
00
6C
6C
00
C6
C6
C6
C6
C6
C6
7E
06
0C
F8
00
ENDCHAR
STARTCHAR Amacron
ENCODING 256
SWIDTH 480 0
DWIDTH 8 0
BBX 8 16 0 -4
BITMAP
00
7C
00
10
38
6C
C6
C6
FE
C6
C6
C6
00
00
00
00
ENDCHAR
STARTCHAR amacron
ENCODING 257
SWIDTH 480 0
DWIDTH 8 0
BBX 8 16 0 -4
BITMAP
00
00
00
7C
00
78
0C
7C
CC
CC
CC
76
00
00
00
00
ENDCHAR
STARTCHAR Abreve
ENCODING 258
SWIDTH 480 0
DWIDTH 8 0
BBX 8 16 0 -4
BITMAP
6C
38
00
10
38
6C
C6
C6
FE
C6
C6
C6
00
00
00
00
ENDCHAR
STARTCHAR abreve
ENCODING 259
SWIDTH 480 0
DWIDTH 8 0
BBX 8 16 0 -4
BITMAP
00
00
6C
38
00
78
0C
7C
CC
CC
CC
76
00
00
00
00
ENDCHAR
STARTCHAR Aogonek
ENCODING 260
SWIDTH 480 0
DWIDTH 8 0
BBX 8 16 0 -4
BITMAP
00
00
10
38
6C
C6
C6
FE
C6
C6
C6
C6
0C
18
0E
00
ENDCHAR
STARTCHAR aogonek
ENCODING 261
SWIDTH 480 0
DWIDTH 8 0
BBX 8 16 0 -4
BITMAP
00
00
00
00
00
78
0C
7C
CC
CC
CC
76
0C
18
0E
00
ENDCHAR
STARTCHAR Cacute
ENCODING 262
SWIDTH 480 0
DWIDTH 8 0
BBX 8 16 0 -4
BITMAP
0C
18
00
3C
66
C2
C0
C0
C0
C2
66
3C
00
00
00
00
ENDCHAR
STARTCHAR cacute
ENCODING 263
SWIDTH 480 0
DWIDTH 8 0
BBX 8 16 0 -4
BITMAP
00
00
0C
18
00
7C
C6
C0
C0
C0
C6
7C
00
00
00
00
ENDCHAR
STARTCHAR Ccircumflex
ENCODING 264
SWIDTH 480 0
DWIDTH 8 0
BBX 8 16 0 -4
BITMAP
10
38
44
3C
66
C2
C0
C0
C0
C2
66
3C
00
00
00
00
ENDCHAR
STARTCHAR ccircumflex
ENCODING 265
SWIDTH 480 0
DWIDTH 8 0
BBX 8 16 0 -4
BITMAP
00
10
38
6C
00
7C
C6
C0
C0
C0
C6
7C
00
00
00
00
ENDCHAR
STARTCHAR Cdotaccent
ENCODING 266
SWIDTH 480 0
DWIDTH 8 0
BBX 8 16 0 -4
BITMAP
18
18
00
3C
66
C2
C0
C0
C0
C2
66
3C
00
00
00
00
ENDCHAR
STARTCHAR cdotaccent
ENCODING 267
SWIDTH 480 0
DWIDTH 8 0
BBX 8 16 0 -4
BITMAP
00
00
30
30
00
7C
C6
C0
C0
C0
C6
7C
00
00
00
00
ENDCHAR
STARTCHAR Ccaron
ENCODING 268
SWIDTH 480 0
DWIDTH 8 0
BBX 8 16 0 -4
BITMAP
6C
38
10
3C
66
C2
C0
C0
C0
C2
66
3C
00
00
00
00
ENDCHAR
STARTCHAR ccaron
ENCODING 269
SWIDTH 480 0
DWIDTH 8 0
BBX 8 16 0 -4
BITMAP
00
6C
38
10
00
7C
C6
C0
C0
C0
C6
7C
00
00
00
00
ENDCHAR
STARTCHAR Dcaron
ENCODING 270
SWIDTH 480 0
DWIDTH 8 0
BBX 8 16 0 -4
BITMAP
6C
38
10
F8
6C
66
66
66
66
66
6C
F8
00
00
00
00
ENDCHAR
STARTCHAR dcaron
ENCODING 271
SWIDTH 480 0
DWIDTH 8 0
BBX 8 16 0 -4
BITMAP
6C
38
10
0C
0C
3C
6C
CC
CC
CC
CC
76
00
00
00
00
ENDCHAR
STARTCHAR Dcroat
ENCODING 272
SWIDTH 480 0
DWIDTH 8 0
BBX 8 16 0 -4
BITMAP
00
00
F8
6C
66
66
F6
66
66
66
6C
F8
00
00
00
00
ENDCHAR
STARTCHAR dcroat
ENCODING 273
SWIDTH 480 0
DWIDTH 8 0
BBX 8 16 0 -4
BITMAP
00
00
0C
3E
0C
3C
6C
CC
CC
CC
CC
76
00
00
00
00
ENDCHAR
STARTCHAR Emacron
ENCODING 274
SWIDTH 480 0
DWIDTH 8 0
BBX 8 16 0 -4
BITMAP
00
7C
00
FE
66
62
68
78
68
62
66
FE
00
00
00
00
ENDCHAR
STARTCHAR emacron
ENCODING 275
SWIDTH 480 0
DWIDTH 8 0
BBX 8 16 0 -4
BITMAP
00
00
00
7C
00
7C
C6
FE
C0
C0
C6
7C
00
00
00
00
ENDCHAR
STARTCHAR Ebreve
ENCODING 276
SWIDTH 480 0
DWIDTH 8 0
BBX 8 16 0 -4
BITMAP
6C
38
00
FE
66
62
68
78
68
62
66
FE
00
00
00
00
ENDCHAR
STARTCHAR ebreve
ENCODING 277
SWIDTH 480 0
DWIDTH 8 0
BBX 8 16 0 -4
BITMAP
00
00
6C
38
00
7C
C6
FE
C0
C0
C6
7C
00
00
00
00
ENDCHAR
STARTCHAR Edotaccent
ENCODING 278
SWIDTH 480 0
DWIDTH 8 0
BBX 8 16 0 -4
BITMAP
18
18
00
FE
66
62
68
78
68
62
66
FE
00
00
00
00
ENDCHAR
STARTCHAR edotaccent
ENCODING 279
SWIDTH 480 0
DWIDTH 8 0
BBX 8 16 0 -4
BITMAP
00
00
30
30
00
7C
C6
FE
C0
C0
C6
7C
00
00
00
00
ENDCHAR
STARTCHAR Eogonek
ENCODING 280
SWIDTH 480 0
DWIDTH 8 0
BBX 8 16 0 -4
BITMAP
00
00
00
FE
66
62
68
78
68
62
66
FE
18
30
1C
00
ENDCHAR
STARTCHAR eogonek
ENCODING 281
SWIDTH 480 0
DWIDTH 8 0
BBX 8 16 0 -4
BITMAP
00
00
00
00
00
7C
C6
FE
C0
C0
C6
7C
30
60
38
00
ENDCHAR
STARTCHAR Ecaron
ENCODING 282
SWIDTH 480 0
DWIDTH 8 0
BBX 8 16 0 -4
BITMAP
6C
38
10
FE
66
62
68
78
68
62
66
FE
00
00
00
00
ENDCHAR
STARTCHAR ecaron
ENCODING 283
SWIDTH 480 0
DWIDTH 8 0
BBX 8 16 0 -4
BITMAP
00
6C
38
10
00
7C
C6
FE
C0
C0
C6
7C
00
00
00
00
ENDCHAR
STARTCHAR Gcircumflex
ENCODING 284
SWIDTH 480 0
DWIDTH 8 0
BBX 8 16 0 -4
BITMAP
10
38
44
3C
66
C2
C0
DE
C6
C6
66
3A
00
00
00
00
ENDCHAR
STARTCHAR gcircumflex
ENCODING 285
SWIDTH 480 0
DWIDTH 8 0
BBX 8 16 0 -4
BITMAP
00
10
38
6C
00
76
CC
CC
CC
CC
CC
7C
0C
CC
78
00
ENDCHAR
STARTCHAR Gbreve
ENCODING 286
SWIDTH 480 0
DWIDTH 8 0
BBX 8 16 0 -4
BITMAP
6C
38
00
3C
66
C2
C0
DE
C6
C6
66
3A
00
00
00
00
ENDCHAR
STARTCHAR gbreve
ENCODING 287
SWIDTH 480 0
DWIDTH 8 0
BBX 8 16 0 -4
BITMAP
00
00
6C
38
00
76
CC
CC
CC
CC
CC
7C
0C
CC
78
00
ENDCHAR
STARTCHAR Gdotaccent
ENCODING 288
SWIDTH 480 0
DWIDTH 8 0
BBX 8 16 0 -4
BITMAP
18
18
00
3C
66
C2
C0
DE
C6
C6
66
3A
00
00
00
00
ENDCHAR
STARTCHAR gdotaccent
ENCODING 289
SWIDTH 480 0
DWIDTH 8 0
BBX 8 16 0 -4
BITMAP
00
00
30
30
00
76
CC
CC
CC
CC
CC
7C
0C
CC
78
00
ENDCHAR
STARTCHAR Gcommaaccent
ENCODING 290
SWIDTH 480 0
DWIDTH 8 0
BBX 8 16 0 -4
BITMAP
00
00
3C
66
C2
C0
C0
DE
C6
C6
66
3A
00
18
18
30
ENDCHAR
STARTCHAR gcommaaccent
ENCODING 291
SWIDTH 480 0
DWIDTH 8 0
BBX 8 16 0 -4
BITMAP
00
18
30
30
00
76
CC
CC
CC
CC
CC
7C
0C
CC
78
00
ENDCHAR
STARTCHAR Hcircumflex
ENCODING 292
SWIDTH 480 0
DWIDTH 8 0
BBX 8 16 0 -4
BITMAP
10
38
00
C6
C6
C6
C6
FE
C6
C6
C6
C6
00
00
00
00
ENDCHAR
STARTCHAR hcircumflex
ENCODING 293
SWIDTH 480 0
DWIDTH 8 0
BBX 8 16 0 -4
BITMAP
10
38
44
E0
60
6C
76
66
66
66
66
E6
00
00
00
00
ENDCHAR
STARTCHAR Hbar
ENCODING 294
SWIDTH 480 0
DWIDTH 8 0
BBX 8 16 0 -4
BITMAP
00
00
66
FF
66
66
7E
66
66
66
66
66
00
00
00
00
ENDCHAR
STARTCHAR hbar
ENCODING 295
SWIDTH 480 0
DWIDTH 8 0
BBX 8 16 0 -4
BITMAP
00
00
60
F8
60
6C
76
66
66
66
66
E6
00
00
00
00
ENDCHAR
STARTCHAR Itilde
ENCODING 296
SWIDTH 480 0
DWIDTH 8 0
BBX 8 16 0 -4
BITMAP
76
DC
00
3C
18
18
18
18
18
18
18
3C
00
00
00
00
ENDCHAR
STARTCHAR itilde
ENCODING 297
SWIDTH 480 0
DWIDTH 8 0
BBX 8 16 0 -4
BITMAP
00
00
76
DC
00
38
18
18
18
18
18
3C
00
00
00
00
ENDCHAR
STARTCHAR Imacron
ENCODING 298
SWIDTH 480 0
DWIDTH 8 0
BBX 8 16 0 -4
BITMAP
00
7E
00
3C
18
18
18
18
18
18
18
3C
00
00
00
00
ENDCHAR
STARTCHAR imacron
ENCODING 299
SWIDTH 480 0
DWIDTH 8 0
BBX 8 16 0 -4
BITMAP
00
00
00
7E
00
38
18
18
18
18
18
3C
00
00
00
00
ENDCHAR
STARTCHAR Ibreve
ENCODING 300
SWIDTH 480 0
DWIDTH 8 0
BBX 8 16 0 -4
BITMAP
66
3C
00
3C
18
18
18
18
18
18
18
3C
00
00
00
00
ENDCHAR
STARTCHAR ibreve
ENCODING 301
SWIDTH 480 0
DWIDTH 8 0
BBX 8 16 0 -4
BITMAP
00
00
66
3C
00
38
18
18
18
18
18
3C
00
00
00
00
ENDCHAR
STARTCHAR Iogonek
ENCODING 302
SWIDTH 480 0
DWIDTH 8 0
BBX 8 16 0 -4
BITMAP
00
00
00
3C
18
18
18
18
18
18
18
3C
18
30
1C
00
ENDCHAR
STARTCHAR iogonek
ENCODING 303
SWIDTH 480 0
DWIDTH 8 0
BBX 8 16 0 -4
BITMAP
00
00
18
18
00
38
18
18
18
18
18
3C
18
30
1C
00
ENDCHAR
STARTCHAR Idotaccent
ENCODING 304
SWIDTH 480 0
DWIDTH 8 0
BBX 8 16 0 -4
BITMAP
18
18
00
3C
18
18
18
18
18
18
18
3C
00
00
00
00
ENDCHAR
STARTCHAR dotlessi
ENCODING 305
SWIDTH 480 0
DWIDTH 8 0
BBX 8 16 0 -4
BITMAP
00
00
00
00
00
38
18
18
18
18
18
3C
00
00
00
00
ENDCHAR
STARTCHAR IJ
ENCODING 306
SWIDTH 480 0
DWIDTH 8 0
BBX 8 16 0 -4
BITMAP
00
00
F7
63
63
63
63
63
63
7B
7B
EE
00
00
00
00
ENDCHAR
STARTCHAR ij
ENCODING 307
SWIDTH 480 0
DWIDTH 8 0
BBX 8 16 0 -4
BITMAP
00
00
66
66
00
EE
66
66
66
66
66
F6
06
66
3C
00
ENDCHAR
STARTCHAR Jcircumflex
ENCODING 308
SWIDTH 480 0
DWIDTH 8 0
BBX 8 16 0 -4
BITMAP
08
1C
22
1E
0C
0C
0C
0C
CC
CC
CC
78
00
00
00
00
ENDCHAR
STARTCHAR jcircumflex
ENCODING 309
SWIDTH 480 0
DWIDTH 8 0
BBX 8 16 0 -4
BITMAP
00
04
0E
1B
00
0E
06
06
06
06
06
06
66
66
3C
00
ENDCHAR
STARTCHAR Kcommaaccent
ENCODING 310
SWIDTH 480 0
DWIDTH 8 0
BBX 8 16 0 -4
BITMAP
00
00
E6
66
66
6C
78
78
6C
66
66
E6
00
18
18
30
ENDCHAR
STARTCHAR kcommaaccent
ENCODING 311
SWIDTH 480 0
DWIDTH 8 0
BBX 8 16 0 -4
BITMAP
00
00
E0
60
60
66
6C
78
78
6C
66
E6
00
18
18
30
ENDCHAR
STARTCHAR kgreenlandic
ENCODING 312
SWIDTH 480 0
DWIDTH 8 0
BBX 8 16 0 -4
BITMAP
00
00
00
00
00
E6
6C
78
78
6C
66
E6
00
00
00
00
ENDCHAR
STARTCHAR Lacute
ENCODING 313
SWIDTH 480 0
DWIDTH 8 0
BBX 8 16 0 -4
BITMAP
18
30
00
F0
60
60
60
60
60
62
66
FE
00
00
00
00
ENDCHAR
STARTCHAR lacute
ENCODING 314
SWIDTH 480 0
DWIDTH 8 0
BBX 8 16 0 -4
BITMAP
0C
18
00
38
18
18
18
18
18
18
18
3C
00
00
00
00
ENDCHAR
STARTCHAR Lcommaaccent
ENCODING 315
SWIDTH 480 0
DWIDTH 8 0
BBX 8 16 0 -4
BITMAP
00
00
F0
60
60
60
60
60
60
62
66
FE
00
18
18
30
ENDCHAR
STARTCHAR lcommaaccent
ENCODING 316
SWIDTH 480 0
DWIDTH 8 0
BBX 8 16 0 -4
BITMAP
00
00
38
18
18
18
18
18
18
18
18
3C
00
18
18
30
ENDCHAR
STARTCHAR Lcaron
ENCODING 317
SWIDTH 480 0
DWIDTH 8 0
BBX 8 16 0 -4
BITMAP
6C
38
10
F0
60
60
60
60
60
62
66
FE
00
00
00
00
ENDCHAR
STARTCHAR lcaron
ENCODING 318
SWIDTH 480 0
DWIDTH 8 0
BBX 8 16 0 -4
BITMAP
6C
38
10
38
18
18
18
18
18
18
18
3C
00
00
00
00
ENDCHAR
STARTCHAR Ldot
ENCODING 319
SWIDTH 480 0
DWIDTH 8 0
BBX 8 16 0 -4
BITMAP
00
00
F0
60
60
60
66
66
60
62
66
FE
00
00
00
00
ENDCHAR
STARTCHAR ldot
ENCODING 320
SWIDTH 480 0
DWIDTH 8 0
BBX 8 16 0 -4
BITMAP
00
00
70
30
30
30
36
36
30
30
30
78
00
00
00
00
ENDCHAR
STARTCHAR Lslash
ENCODING 321
SWIDTH 480 0
DWIDTH 8 0
BBX 8 16 0 -4
BITMAP
00
00
F0
60
60
60
78
E0
60
62
66
FE
00
00
00
00
ENDCHAR
STARTCHAR lslash
ENCODING 322
SWIDTH 480 0
DWIDTH 8 0
BBX 8 16 0 -4
BITMAP
00
00
38
18
18
18
1E
78
18
18
18
3C
00
00
00
00
ENDCHAR
STARTCHAR Nacute
ENCODING 323
SWIDTH 480 0
DWIDTH 8 0
BBX 8 16 0 -4
BITMAP
0C
18
00
C6
E6
F6
FE
DE
CE
C6
C6
C6
00
00
00
00
ENDCHAR
STARTCHAR nacute
ENCODING 324
SWIDTH 480 0
DWIDTH 8 0
BBX 8 16 0 -4
BITMAP
00
00
0C
18
00
DC
66
66
66
66
66
66
00
00
00
00
ENDCHAR
STARTCHAR Ncommaaccent
ENCODING 325
SWIDTH 480 0
DWIDTH 8 0
BBX 8 16 0 -4
BITMAP
00
00
C6
E6
F6
FE
DE
CE
C6
C6
C6
C6
00
18
18
30
ENDCHAR
STARTCHAR ncommaaccent
ENCODING 326
SWIDTH 480 0
DWIDTH 8 0
BBX 8 16 0 -4
BITMAP
00
00
00
00
00
DC
66
66
66
66
66
66
00
18
18
30
ENDCHAR
STARTCHAR Ncaron
ENCODING 327
SWIDTH 480 0
DWIDTH 8 0
BBX 8 16 0 -4
BITMAP
6C
38
10
C6
E6
F6
FE
DE
CE
C6
C6
C6
00
00
00
00
ENDCHAR
STARTCHAR ncaron
ENCODING 328
SWIDTH 480 0
DWIDTH 8 0
BBX 8 16 0 -4
BITMAP
00
6C
38
10
00
DC
66
66
66
66
66
66
00
00
00
00
ENDCHAR
STARTCHAR napostrophe
ENCODING 329
SWIDTH 480 0
DWIDTH 8 0
BBX 8 16 0 -4
BITMAP
00
60
60
C0
00
DC
66
66
66
66
66
66
00
00
00
00
ENDCHAR
STARTCHAR Eng
ENCODING 330
SWIDTH 480 0
DWIDTH 8 0
BBX 8 16 0 -4
BITMAP
00
00
C6
E6
F6
FE
DE
CE
C6
C6
C6
C6
06
06
1C
00
ENDCHAR
STARTCHAR eng
ENCODING 331
SWIDTH 480 0
DWIDTH 8 0
BBX 8 16 0 -4
BITMAP
00
00
00
00
00
DC
66
66
66
66
66
66
06
06
1C
00
ENDCHAR
STARTCHAR Omacron
ENCODING 332
SWIDTH 480 0
DWIDTH 8 0
BBX 8 16 0 -4
BITMAP
00
7C
00
7C
C6
C6
C6
C6
C6
C6
C6
7C
00
00
00
00
ENDCHAR
STARTCHAR omacron
ENCODING 333
SWIDTH 480 0
DWIDTH 8 0
BBX 8 16 0 -4
BITMAP
00
00
00
7C
00
7C
C6
C6
C6
C6
C6
7C
00
00
00
00
ENDCHAR
STARTCHAR Obreve
ENCODING 334
SWIDTH 480 0
DWIDTH 8 0
BBX 8 16 0 -4
BITMAP
6C
38
00
7C
C6
C6
C6
C6
C6
C6
C6
7C
00
00
00
00
ENDCHAR
STARTCHAR obreve
ENCODING 335
SWIDTH 480 0
DWIDTH 8 0
BBX 8 16 0 -4
BITMAP
00
00
6C
38
00
7C
C6
C6
C6
C6
C6
7C
00
00
00
00
ENDCHAR
STARTCHAR Ohungarumlaut
ENCODING 336
SWIDTH 480 0
DWIDTH 8 0
BBX 8 16 0 -4
BITMAP
66
CC
00
7C
C6
C6
C6
C6
C6
C6
C6
7C
00
00
00
00
ENDCHAR
STARTCHAR ohungarumlaut
ENCODING 337
SWIDTH 480 0
DWIDTH 8 0
BBX 8 16 0 -4
BITMAP
00
00
66
CC
00
7C
C6
C6
C6
C6
C6
7C
00
00
00
00
ENDCHAR
STARTCHAR OE
ENCODING 338
SWIDTH 480 0
DWIDTH 8 0
BBX 8 16 0 -4
BITMAP
00
00
6E
D8
D8
D8
DE
D8
D8
D8
D8
6E
00
00
00
00
ENDCHAR
STARTCHAR oe
ENCODING 339
SWIDTH 480 0
DWIDTH 8 0
BBX 8 16 0 -4
BITMAP
00
00
00
00
00
6C
D6
D6
DE
D8
D8
6E
00
00
00
00
ENDCHAR
STARTCHAR Racute
ENCODING 340
SWIDTH 480 0
DWIDTH 8 0
BBX 8 16 0 -4
BITMAP
0C
18
00
FC
66
66
66
7C
6C
66
66
E6
00
00
00
00
ENDCHAR
STARTCHAR racute
ENCODING 341
SWIDTH 480 0
DWIDTH 8 0
BBX 8 16 0 -4
BITMAP
00
00
0C
18
00
DC
76
66
60
60
60
F0
00
00
00
00
ENDCHAR
STARTCHAR Rcommaaccent
ENCODING 342
SWIDTH 480 0
DWIDTH 8 0
BBX 8 16 0 -4
BITMAP
00
00
FC
66
66
66
7C
6C
66
66
66
E6
00
18
18
30
ENDCHAR
STARTCHAR rcommaaccent
ENCODING 343
SWIDTH 480 0
DWIDTH 8 0
BBX 8 16 0 -4
BITMAP
00
00
00
00
00
DC
76
66
60
60
60
F0
00
18
18
30
ENDCHAR
STARTCHAR Rcaron
ENCODING 344
SWIDTH 480 0
DWIDTH 8 0
BBX 8 16 0 -4
BITMAP
6C
38
10
FC
66
66
66
7C
6C
66
66
E6
00
00
00
00
ENDCHAR
STARTCHAR rcaron
ENCODING 345
SWIDTH 480 0
DWIDTH 8 0
BBX 8 16 0 -4
BITMAP
00
6C
38
10
00
DC
76
66
60
60
60
F0
00
00
00
00
ENDCHAR
STARTCHAR Sacute
ENCODING 346
SWIDTH 480 0
DWIDTH 8 0
BBX 8 16 0 -4
BITMAP
0C
18
00
7C
C6
C6
60
38
0C
C6
C6
7C
00
00
00
00
ENDCHAR
STARTCHAR sacute
ENCODING 347
SWIDTH 480 0
DWIDTH 8 0
BBX 8 16 0 -4
BITMAP
00
00
0C
18
00
7C
C6
60
38
0C
C6
7C
00
00
00
00
ENDCHAR
STARTCHAR Scircumflex
ENCODING 348
SWIDTH 480 0
DWIDTH 8 0
BBX 8 16 0 -4
BITMAP
10
38
44
7C
C6
C6
60
38
0C
C6
C6
7C
00
00
00
00
ENDCHAR
STARTCHAR scircumflex
ENCODING 349
SWIDTH 480 0
DWIDTH 8 0
BBX 8 16 0 -4
BITMAP
00
10
38
6C
00
7C
C6
60
38
0C
C6
7C
00
00
00
00
ENDCHAR
STARTCHAR Scedilla
ENCODING 350
SWIDTH 480 0
DWIDTH 8 0
BBX 8 16 0 -4
BITMAP
00
00
00
7C
C6
C6
60
38
0C
C6
C6
7C
18
0C
38
00
ENDCHAR
STARTCHAR scedilla
ENCODING 351
SWIDTH 480 0
DWIDTH 8 0
BBX 8 16 0 -4
BITMAP
00
00
00
00
00
7C
C6
60
38
0C
C6
7C
18
0C
38
00
ENDCHAR
STARTCHAR Scaron
ENCODING 352
SWIDTH 480 0
DWIDTH 8 0
BBX 8 16 0 -4
BITMAP
6C
38
10
7C
C6
C6
60
38
0C
C6
C6
7C
00
00
00
00
ENDCHAR
STARTCHAR scaron
ENCODING 353
SWIDTH 480 0
DWIDTH 8 0
BBX 8 16 0 -4
BITMAP
00
6C
38
10
00
7C
C6
60
38
0C
C6
7C
00
00
00
00
ENDCHAR
STARTCHAR Tcommaaccent
ENCODING 354
SWIDTH 480 0
DWIDTH 8 0
BBX 8 16 0 -4
BITMAP
00
00
7E
7E
5A
18
18
18
18
18
18
3C
18
0C
38
00
ENDCHAR
STARTCHAR tcommaaccent
ENCODING 355
SWIDTH 480 0
DWIDTH 8 0
BBX 8 16 0 -4
BITMAP
00
00
10
30
30
FC
30
30
30
30
36
1C
18
0C
38
00
ENDCHAR
STARTCHAR Tcaron
ENCODING 356
SWIDTH 480 0
DWIDTH 8 0
BBX 8 16 0 -4
BITMAP
6C
38
10
7E
7E
5A
18
18
18
18
18
3C
00
00
00
00
ENDCHAR
STARTCHAR tcaron
ENCODING 357
SWIDTH 480 0
DWIDTH 8 0
BBX 8 16 0 -4
BITMAP
6C
38
10
10
30
FC
30
30
30
30
36
1C
00
00
00
00
ENDCHAR
STARTCHAR Tbar
ENCODING 358
SWIDTH 480 0
DWIDTH 8 0
BBX 8 16 0 -4
BITMAP
00
00
7E
7E
5A
18
18
3C
18
18
18
3C
00
00
00
00
ENDCHAR
STARTCHAR tbar
ENCODING 359
SWIDTH 480 0
DWIDTH 8 0
BBX 8 16 0 -4
BITMAP
00
00
10
30
30
FC
30
FC
30
30
36
1C
00
00
00
00
ENDCHAR
STARTCHAR Utilde
ENCODING 360
SWIDTH 480 0
DWIDTH 8 0
BBX 8 16 0 -4
BITMAP
76
DC
00
C6
C6
C6
C6
C6
C6
C6
C6
7C
00
00
00
00
ENDCHAR
STARTCHAR utilde
ENCODING 361
SWIDTH 480 0
DWIDTH 8 0
BBX 8 16 0 -4
BITMAP
00
00
76
DC
00
CC
CC
CC
CC
CC
CC
76
00
00
00
00
ENDCHAR
STARTCHAR Umacron
ENCODING 362
SWIDTH 480 0
DWIDTH 8 0
BBX 8 16 0 -4
BITMAP
00
7C
00
C6
C6
C6
C6
C6
C6
C6
C6
7C
00
00
00
00
ENDCHAR
STARTCHAR umacron
ENCODING 363
SWIDTH 480 0
DWIDTH 8 0
BBX 8 16 0 -4
BITMAP
00
00
00
78
00
CC
CC
CC
CC
CC
CC
76
00
00
00
00
ENDCHAR
STARTCHAR Ubreve
ENCODING 364
SWIDTH 480 0
DWIDTH 8 0
BBX 8 16 0 -4
BITMAP
6C
38
00
C6
C6
C6
C6
C6
C6
C6
C6
7C
00
00
00
00
ENDCHAR
STARTCHAR ubreve
ENCODING 365
SWIDTH 480 0
DWIDTH 8 0
BBX 8 16 0 -4
BITMAP
00
00
CC
78
00
CC
CC
CC
CC
CC
CC
76
00
00
00
00
ENDCHAR
STARTCHAR Uring
ENCODING 366
SWIDTH 480 0
DWIDTH 8 0
BBX 8 16 0 -4
BITMAP
38
6C
38
C6
C6
C6
C6
C6
C6
C6
C6
7C
00
00
00
00
ENDCHAR
STARTCHAR uring
ENCODING 367
SWIDTH 480 0
DWIDTH 8 0
BBX 8 16 0 -4
BITMAP
00
38
6C
38
00
CC
CC
CC
CC
CC
CC
76
00
00
00
00
ENDCHAR
STARTCHAR Uhungarumlaut
ENCODING 368
SWIDTH 480 0
DWIDTH 8 0
BBX 8 16 0 -4
BITMAP
66
CC
00
C6
C6
C6
C6
C6
C6
C6
C6
7C
00
00
00
00
ENDCHAR
STARTCHAR uhungarumlaut
ENCODING 369
SWIDTH 480 0
DWIDTH 8 0
BBX 8 16 0 -4
BITMAP
00
00
66
CC
00
CC
CC
CC
CC
CC
CC
76
00
00
00
00
ENDCHAR
STARTCHAR Uogonek
ENCODING 370
SWIDTH 480 0
DWIDTH 8 0
BBX 8 16 0 -4
BITMAP
00
00
00
C6
C6
C6
C6
C6
C6
C6
C6
7C
30
60
38
00
ENDCHAR
STARTCHAR uogonek
ENCODING 371
SWIDTH 480 0
DWIDTH 8 0
BBX 8 16 0 -4
BITMAP
00
00
00
00
00
CC
CC
CC
CC
CC
CC
76
30
60
38
00
ENDCHAR
STARTCHAR Wcircumflex
ENCODING 372
SWIDTH 480 0
DWIDTH 8 0
BBX 8 16 0 -4
BITMAP
10
38
44
C6
C6
C6
D6
D6
D6
FE
EE
6C
00
00
00
00
ENDCHAR
STARTCHAR wcircumflex
ENCODING 373
SWIDTH 480 0
DWIDTH 8 0
BBX 8 16 0 -4
BITMAP
00
10
38
6C
00
C6
C6
D6
D6
D6
FE
6C
00
00
00
00
ENDCHAR
STARTCHAR Ycircumflex
ENCODING 374
SWIDTH 480 0
DWIDTH 8 0
BBX 8 16 0 -4
BITMAP
10
38
44
66
66
66
3C
18
18
18
18
3C
00
00
00
00
ENDCHAR
STARTCHAR ycircumflex
ENCODING 375
SWIDTH 480 0
DWIDTH 8 0
BBX 8 16 0 -4
BITMAP
00
10
38
6C
00
C6
C6
C6
C6
C6
C6
7E
06
0C
F8
00
ENDCHAR
STARTCHAR Ydieresis
ENCODING 376
SWIDTH 480 0
DWIDTH 8 0
BBX 8 16 0 -4
BITMAP
66
66
00
66
66
66
3C
18
18
18
18
3C
00
00
00
00
ENDCHAR
STARTCHAR Zacute
ENCODING 377
SWIDTH 480 0
DWIDTH 8 0
BBX 8 16 0 -4
BITMAP
0C
18
00
FE
C6
8C
18
30
60
C2
C6
FE
00
00
00
00
ENDCHAR
STARTCHAR zacute
ENCODING 378
SWIDTH 480 0
DWIDTH 8 0
BBX 8 16 0 -4
BITMAP
00
00
0C
18
00
FE
CC
18
30
60
C6
FE
00
00
00
00
ENDCHAR
STARTCHAR Zdotaccent
ENCODING 379
SWIDTH 480 0
DWIDTH 8 0
BBX 8 16 0 -4
BITMAP
18
18
00
FE
C6
8C
18
30
60
C2
C6
FE
00
00
00
00
ENDCHAR
STARTCHAR zdotaccent
ENCODING 380
SWIDTH 480 0
DWIDTH 8 0
BBX 8 16 0 -4
BITMAP
00
00
18
18
00
FE
CC
18
30
60
C6
FE
00
00
00
00
ENDCHAR
STARTCHAR Zcaron
ENCODING 381
SWIDTH 480 0
DWIDTH 8 0
BBX 8 16 0 -4
BITMAP
6C
38
10
FE
C6
8C
18
30
60
C2
C6
FE
00
00
00
00
ENDCHAR
STARTCHAR zcaron
ENCODING 382
SWIDTH 480 0
DWIDTH 8 0
BBX 8 16 0 -4
BITMAP
00
6C
38
10
00
FE
CC
18
30
60
C6
FE
00
00
00
00
ENDCHAR
STARTCHAR longs
ENCODING 383
SWIDTH 480 0
DWIDTH 8 0
BBX 8 16 0 -4
BITMAP
00
00
38
6C
64
60
60
60
60
60
60
F0
00
00
00
00
ENDCHAR
STARTCHAR uni0180
ENCODING 384
SWIDTH 480 0
DWIDTH 8 0
BBX 8 16 0 -4
BITMAP
00
00
60
F8
60
78
6C
66
66
66
66
7C
00
00
00
00
ENDCHAR
STARTCHAR uni0181
ENCODING 385
SWIDTH 480 0
DWIDTH 8 0
BBX 8 16 0 -4
BITMAP
00
00
7E
B3
B3
33
3E
33
33
33
33
7E
00
00
00
00
ENDCHAR
STARTCHAR uni0182
ENCODING 386
SWIDTH 480 0
DWIDTH 8 0
BBX 8 16 0 -4
BITMAP
00
00
FC
64
60
60
7C
66
66
66
66
FC
00
00
00
00
ENDCHAR
STARTCHAR uni0183
ENCODING 387
SWIDTH 480 0
DWIDTH 8 0
BBX 8 16 0 -4
BITMAP
00
00
7E
62
60
78
6C
66
66
66
66
7C
00
00
00
00
ENDCHAR
STARTCHAR uni0184
ENCODING 388
SWIDTH 480 0
DWIDTH 8 0
BBX 8 16 0 -4
BITMAP
00
00
7C
E6
E6
66
7C
66
66
66
66
FC
00
00
00
00
ENDCHAR
STARTCHAR uni0185
ENCODING 389
SWIDTH 480 0
DWIDTH 8 0
BBX 8 16 0 -4
BITMAP
00
00
60
E0
E0
78
6C
66
66
66
66
7C
00
00
00
00
ENDCHAR
STARTCHAR uni0186
ENCODING 390
SWIDTH 480 0
DWIDTH 8 0
BBX 8 16 0 -4
BITMAP
00
00
78
CC
86
06
06
06
06
86
CC
78
00
00
00
00
ENDCHAR
STARTCHAR uni0187
ENCODING 391
SWIDTH 480 0
DWIDTH 8 0
BBX 8 16 0 -4
BITMAP
00
03
3E
66
C2
C0
C0
C0
C0
C2
66
3C
00
00
00
00
ENDCHAR
STARTCHAR uni0188
ENCODING 392
SWIDTH 480 0
DWIDTH 8 0
BBX 8 16 0 -4
BITMAP
00
00
00
00
03
7E
C6
C0
C0
C0
C6
7C
00
00
00
00
ENDCHAR
STARTCHAR uni0189
ENCODING 393
SWIDTH 480 0
DWIDTH 8 0
BBX 8 16 0 -4
BITMAP
00
00
F8
6C
66
66
F6
66
66
66
6C
F8
00
00
00
00
ENDCHAR
STARTCHAR uni018A
ENCODING 394
SWIDTH 480 0
DWIDTH 8 0
BBX 8 16 0 -4
BITMAP
00
00
7C
B6
B3
33
33
33
33
33
36
7C
00
00
00
00
ENDCHAR
STARTCHAR uni018B
ENCODING 395
SWIDTH 480 0
DWIDTH 8 0
BBX 8 16 0 -4
BITMAP
00
00
7E
4C
0C
0C
7C
CC
CC
CC
CC
7E
00
00
00
00
ENDCHAR
STARTCHAR uni018C
ENCODING 396
SWIDTH 480 0
DWIDTH 8 0
BBX 8 16 0 -4
BITMAP
00
00
7C
4C
0C
3C
6C
CC
CC
CC
CC
76
00
00
00
00
ENDCHAR
STARTCHAR uni018D
ENCODING 397
SWIDTH 480 0
DWIDTH 8 0
BBX 8 16 0 -4
BITMAP
00
00
00
00
00
7C
C6
C6
C6
C6
7C
30
18
CC
78
00
ENDCHAR
STARTCHAR uni018E
ENCODING 398
SWIDTH 480 0
DWIDTH 8 0
BBX 8 16 0 -4
BITMAP
00
00
FE
CC
8C
2C
3C
2C
0C
8C
CC
FE
00
00
00
00
ENDCHAR
STARTCHAR uni018F
ENCODING 399
SWIDTH 480 0
DWIDTH 8 0
BBX 8 16 0 -4
BITMAP
00
00
7C
C6
06
06
06
FE
C6
C6
C6
7C
00
00
00
00
ENDCHAR
STARTCHAR uni0190
ENCODING 400
SWIDTH 480 0
DWIDTH 8 0
BBX 8 16 0 -4
BITMAP
00
00
7C
C6
C2
C0
78
C0
C0
C2
C6
7C
00
00
00
00
ENDCHAR
STARTCHAR uni0191
ENCODING 401
SWIDTH 480 0
DWIDTH 8 0
BBX 8 16 0 -4
BITMAP
00
00
FE
66
62
68
78
68
60
60
60
60
60
60
C0
00
ENDCHAR
STARTCHAR florin
ENCODING 402
SWIDTH 480 0
DWIDTH 8 0
BBX 8 16 0 -4
BITMAP
00
00
1C
36
32
30
78
30
30
30
30
30
30
30
E0
00
ENDCHAR
STARTCHAR uni0193
ENCODING 403
SWIDTH 480 0
DWIDTH 8 0
BBX 8 16 0 -4
BITMAP
00
03
3E
66
C2
C0
C0
DE
C6
C6
66
3A
00
00
00
00
ENDCHAR
STARTCHAR uni0194
ENCODING 404
SWIDTH 480 0
DWIDTH 8 0
BBX 8 16 0 -4
BITMAP
00
00
C6
C6
C6
6C
6C
6C
38
38
10
38
6C
38
00
00
ENDCHAR
STARTCHAR uni0195
ENCODING 405
SWIDTH 480 0
DWIDTH 8 0
BBX 8 16 0 -4
BITMAP
00
00
C0
C0
C0
F3
DB
DB
DB
DB
DB
CE
00
00
00
00
ENDCHAR
STARTCHAR uni0196
ENCODING 406
SWIDTH 480 0
DWIDTH 8 0
BBX 8 16 0 -4
BITMAP
00
00
70
30
30
30
30
30
30
30
36
1C
00
00
00
00
ENDCHAR
STARTCHAR uni0197
ENCODING 407
SWIDTH 480 0
DWIDTH 8 0
BBX 8 16 0 -4
BITMAP
00
00
3C
18
18
18
3C
18
18
18
18
3C
00
00
00
00
ENDCHAR
STARTCHAR uni0198
ENCODING 408
SWIDTH 480 0
DWIDTH 8 0
BBX 8 16 0 -4
BITMAP
00
00
E6
6D
6C
78
70
78
6C
66
66
E6
00
00
00
00
ENDCHAR
STARTCHAR uni0199
ENCODING 409
SWIDTH 480 0
DWIDTH 8 0
BBX 8 16 0 -4
BITMAP
00
00
38
6C
60
66
6C
78
78
6C
66
E6
00
00
00
00
ENDCHAR
STARTCHAR uni019A
ENCODING 410
SWIDTH 480 0
DWIDTH 8 0
BBX 8 16 0 -4
BITMAP
00
00
38
18
18
18
3C
18
18
18
18
3C
00
00
00
00
ENDCHAR
STARTCHAR uni019B
ENCODING 411
SWIDTH 480 0
DWIDTH 8 0
BBX 8 16 0 -4
BITMAP
00
00
C8
38
70
D0
38
38
6C
64
C6
C2
00
00
00
00
ENDCHAR
STARTCHAR uni019C
ENCODING 412
SWIDTH 480 0
DWIDTH 8 0
BBX 8 16 0 -4
BITMAP
00
00
D6
D6
D6
D6
D6
D6
D6
D6
FE
EC
00
00
00
00
ENDCHAR
STARTCHAR uni019D
ENCODING 413
SWIDTH 480 0
DWIDTH 8 0
BBX 8 16 0 -4
BITMAP
00
00
66
66
76
7E
7E
6E
66
66
66
66
60
60
C0
00
ENDCHAR
STARTCHAR uni019E
ENCODING 414
SWIDTH 480 0
DWIDTH 8 0
BBX 8 16 0 -4
BITMAP
00
00
00
00
00
DC
66
66
66
66
66
66
06
06
06
00
ENDCHAR
STARTCHAR uni019F
ENCODING 415
SWIDTH 480 0
DWIDTH 8 0
BBX 8 16 0 -4
BITMAP
00
00
7C
C6
C6
C6
FE
C6
C6
C6
C6
7C
00
00
00
00
ENDCHAR
STARTCHAR Ohorn
ENCODING 416
SWIDTH 480 0
DWIDTH 8 0
BBX 8 16 0 -4
BITMAP
03
03
7A
CC
CC
CC
CC
CC
CC
CC
CC
78
00
00
00
00
ENDCHAR
STARTCHAR ohorn
ENCODING 417
SWIDTH 480 0
DWIDTH 8 0
BBX 8 16 0 -4
BITMAP
00
00
03
03
06
78
CC
CC
CC
CC
CC
78
00
00
00
00
ENDCHAR
STARTCHAR uni01A2
ENCODING 418
SWIDTH 480 0
DWIDTH 8 0
BBX 8 16 0 -4
BITMAP
00
00
73
DF
DB
DB
DB
DB
DB
DB
DB
73
03
03
03
00
ENDCHAR
STARTCHAR uni01A3
ENCODING 419
SWIDTH 480 0
DWIDTH 8 0
BBX 8 16 0 -4
BITMAP
00
00
00
00
00
73
DF
DB
DB
DB
DB
73
03
03
03
00
ENDCHAR
STARTCHAR uni01A4
ENCODING 420
SWIDTH 480 0
DWIDTH 8 0
BBX 8 16 0 -4
BITMAP
00
00
7E
B3
B3
33
3E
30
30
30
30
78
00
00
00
00
ENDCHAR
STARTCHAR uni01A5
ENCODING 421
SWIDTH 480 0
DWIDTH 8 0
BBX 8 16 0 -4
BITMAP
00
00
38
6C
60
7C
66
66
66
66
66
7C
60
60
F0
00
ENDCHAR
STARTCHAR uni01A6
ENCODING 422
SWIDTH 480 0
DWIDTH 8 0
BBX 8 16 0 -4
BITMAP
00
00
F0
60
7C
66
66
7C
78
6C
6C
E6
06
00
00
00
ENDCHAR
STARTCHAR uni01A7
ENCODING 423
SWIDTH 480 0
DWIDTH 8 0
BBX 8 16 0 -4
BITMAP
00
00
7C
C6
C6
0C
38
60
C0
C6
C6
7C
00
00
00
00
ENDCHAR
STARTCHAR uni01A8
ENCODING 424
SWIDTH 480 0
DWIDTH 8 0
BBX 8 16 0 -4
BITMAP
00
00
00
00
00
7C
C6
0C
38
60
C6
7C
00
00
00
00
ENDCHAR
STARTCHAR uni01A9
ENCODING 425
SWIDTH 480 0
DWIDTH 8 0
BBX 8 16 0 -4
BITMAP
00
00
FE
C6
62
30
18
18
30
62
C6
FE
00
00
00
00
ENDCHAR
STARTCHAR uni01AA
ENCODING 426
SWIDTH 480 0
DWIDTH 8 0
BBX 8 16 0 -4
BITMAP
00
00
70
D8
78
18
18
18
18
18
18
18
18
1B
0E
00
ENDCHAR
STARTCHAR uni01AB
ENCODING 427
SWIDTH 480 0
DWIDTH 8 0
BBX 8 16 0 -4
BITMAP
00
00
10
30
30
FC
30
30
30
30
36
1C
0C
6C
38
00
ENDCHAR
STARTCHAR uni01AC
ENCODING 428
SWIDTH 480 0
DWIDTH 8 0
BBX 8 16 0 -4
BITMAP
00
00
7E
FE
9A
58
18
18
18
18
18
3C
00
00
00
00
ENDCHAR
STARTCHAR uni01AD
ENCODING 429
SWIDTH 480 0
DWIDTH 8 0
BBX 8 16 0 -4
BITMAP
00
00
1C
36
30
FC
30
30
30
30
36
1C
00
00
00
00
ENDCHAR
STARTCHAR uni01AE
ENCODING 430
SWIDTH 480 0
DWIDTH 8 0
BBX 8 16 0 -4
BITMAP
00
00
7E
7E
5A
18
18
18
18
18
18
18
18
18
0E
00
ENDCHAR
STARTCHAR Uhorn
ENCODING 431
SWIDTH 480 0
DWIDTH 8 0
BBX 8 16 0 -4
BITMAP
03
03
CE
CC
CC
CC
CC
CC
CC
CC
CC
78
00
00
00
00
ENDCHAR
STARTCHAR uhorn
ENCODING 432
SWIDTH 480 0
DWIDTH 8 0
BBX 8 16 0 -4
BITMAP
00
00
03
03
06
CC
CC
CC
CC
CC
CC
76
00
00
00
00
ENDCHAR
STARTCHAR uni01B1
ENCODING 433
SWIDTH 480 0
DWIDTH 8 0
BBX 8 16 0 -4
BITMAP
00
00
EE
6C
6C
6C
C6
C6
C6
C6
C6
7C
00
00
00
00
ENDCHAR
STARTCHAR uni01B2
ENCODING 434
SWIDTH 480 0
DWIDTH 8 0
BBX 8 16 0 -4
BITMAP
00
00
CC
C6
C6
C6
C6
C6
C6
C6
CC
78
00
00
00
00
ENDCHAR
STARTCHAR uni01B3
ENCODING 435
SWIDTH 480 0
DWIDTH 8 0
BBX 8 16 0 -4
BITMAP
00
00
63
B3
B3
33
1E
0C
0C
0C
0C
1E
00
00
00
00
ENDCHAR
STARTCHAR uni01B4
ENCODING 436
SWIDTH 480 0
DWIDTH 8 0
BBX 8 16 0 -4
BITMAP
00
00
00
06
0D
CC
CC
CC
CC
CC
CC
7C
0C
18
F0
00
ENDCHAR
STARTCHAR uni01B5
ENCODING 437
SWIDTH 480 0
DWIDTH 8 0
BBX 8 16 0 -4
BITMAP
00
00
FE
C6
86
0C
7E
30
60
C2
C6
FE
00
00
00
00
ENDCHAR
STARTCHAR uni01B6
ENCODING 438
SWIDTH 480 0
DWIDTH 8 0
BBX 8 16 0 -4
BITMAP
00
00
00
00
00
FE
CC
18
FC
60
C6
FE
00
00
00
00
ENDCHAR
STARTCHAR uni01B7
ENCODING 439
SWIDTH 480 0
DWIDTH 8 0
BBX 8 16 0 -4
BITMAP
00
00
FE
06
0C
18
30
7C
06
06
06
06
C6
7C
00
00
ENDCHAR
STARTCHAR uni01B8
ENCODING 440
SWIDTH 480 0
DWIDTH 8 0
BBX 8 16 0 -4
BITMAP
00
00
FE
C0
60
30
18
7C
C0
C0
C0
C0
C6
7C
00
00
ENDCHAR
STARTCHAR uni01B9
ENCODING 441
SWIDTH 480 0
DWIDTH 8 0
BBX 8 16 0 -4
BITMAP
00
00
00
00
00
FE
C0
60
30
78
C0
C0
C0
C6
7C
00
ENDCHAR
STARTCHAR uni01BA
ENCODING 442
SWIDTH 480 0
DWIDTH 8 0
BBX 8 16 0 -4
BITMAP
00
00
00
00
00
FE
06
0C
18
3C
06
7C
C0
C6
7C
00
ENDCHAR
STARTCHAR uni01BB
ENCODING 443
SWIDTH 480 0
DWIDTH 8 0
BBX 8 16 0 -4
BITMAP
00
00
7C
C6
06
0C
7E
30
60
C0
C6
FE
00
00
00
00
ENDCHAR
STARTCHAR uni01BC
ENCODING 444
SWIDTH 480 0
DWIDTH 8 0
BBX 8 16 0 -4
BITMAP
00
00
FE
60
60
78
0C
06
06
06
66
3C
00
00
00
00
ENDCHAR
STARTCHAR uni01BD
ENCODING 445
SWIDTH 480 0
DWIDTH 8 0
BBX 8 16 0 -4
BITMAP
00
00
00
00
00
FE
60
78
0C
06
66
3C
00
00
00
00
ENDCHAR
STARTCHAR uni01BE
ENCODING 446
SWIDTH 480 0
DWIDTH 8 0
BBX 8 16 0 -4
BITMAP
00
00
10
30
30
FC
30
30
18
4C
6C
38
00
00
00
00
ENDCHAR
STARTCHAR uni01BF
ENCODING 447
SWIDTH 480 0
DWIDTH 8 0
BBX 8 16 0 -4
BITMAP
00
00
00
00
00
DC
66
66
66
6C
78
70
60
60
F0
00
ENDCHAR
STARTCHAR uni01C0
ENCODING 448
SWIDTH 480 0
DWIDTH 8 0
BBX 8 16 0 -4
BITMAP
00
00
18
18
18
18
18
18
18
18
18
18
00
00
00
00
ENDCHAR
STARTCHAR uni01C1
ENCODING 449
SWIDTH 480 0
DWIDTH 8 0
BBX 8 16 0 -4
BITMAP
00
00
6C
6C
6C
6C
6C
6C
6C
6C
6C
6C
00
00
00
00
ENDCHAR
STARTCHAR uni01C2
ENCODING 450
SWIDTH 480 0
DWIDTH 8 0
BBX 8 16 0 -4
BITMAP
00
00
18
18
18
7E
18
7E
18
18
18
18
00
00
00
00
ENDCHAR
STARTCHAR uni01C3
ENCODING 451
SWIDTH 480 0
DWIDTH 8 0
BBX 8 16 0 -4
BITMAP
00
00
18
3C
3C
3C
18
18
18
00
18
18
00
00
00
00
ENDCHAR
STARTCHAR uni01C4
ENCODING 452
SWIDTH 480 0
DWIDTH 8 0
BBX 8 16 0 -4
BITMAP
1B
0E
04
F7
D9
D9
DA
DA
DA
DC
DC
F7
00
00
00
00
ENDCHAR
STARTCHAR uni01C5
ENCODING 453
SWIDTH 480 0
DWIDTH 8 0
BBX 8 16 0 -4
BITMAP
00
00
F5
DA
D8
DF
D9
DA
DA
DA
DC
F7
00
00
00
00
ENDCHAR
STARTCHAR uni01C6
ENCODING 454
SWIDTH 480 0
DWIDTH 8 0
BBX 8 16 0 -4
BITMAP
00
00
3D
1A
18
7F
D9
DA
DA
DA
DC
6F
00
00
00
00
ENDCHAR
STARTCHAR uni01C7
ENCODING 455
SWIDTH 480 0
DWIDTH 8 0
BBX 8 16 0 -4
BITMAP
00
00
C7
C3
C3
C3
C3
C3
C3
C3
CB
F6
00
00
00
00
ENDCHAR
STARTCHAR uni01C8
ENCODING 456
SWIDTH 480 0
DWIDTH 8 0
BBX 8 16 0 -4
BITMAP
00
00
F3
63
60
67
63
63
63
67
6F
FF
03
1B
0E
00
ENDCHAR
STARTCHAR uni01C9
ENCODING 457
SWIDTH 480 0
DWIDTH 8 0
BBX 8 16 0 -4
BITMAP
00
00
E3
63
60
67
63
63
63
63
63
F3
03
33
1E
00
ENDCHAR
STARTCHAR uni01CA
ENCODING 458
SWIDTH 480 0
DWIDTH 8 0
BBX 8 16 0 -4
BITMAP
00
00
DB
DB
FB
FB
FB
DB
DB
DB
DB
DE
00
00
00
00
ENDCHAR
STARTCHAR uni01CB
ENCODING 459
SWIDTH 480 0
DWIDTH 8 0
BBX 8 16 0 -4
BITMAP
00
00
DB
DB
F8
FF
FB
FB
DB
DB
DB
DB
03
33
1E
00
ENDCHAR
STARTCHAR uni01CC
ENCODING 460
SWIDTH 480 0
DWIDTH 8 0
BBX 8 16 0 -4
BITMAP
00
00
03
03
00
B7
DB
DB
DB
DB
DB
DB
03
33
1E
00
ENDCHAR
STARTCHAR uni01CD
ENCODING 461
SWIDTH 480 0
DWIDTH 8 0
BBX 8 16 0 -4
BITMAP
6C
38
10
10
38
6C
C6
C6
FE
C6
C6
C6
00
00
00
00
ENDCHAR
STARTCHAR uni01CE
ENCODING 462
SWIDTH 480 0
DWIDTH 8 0
BBX 8 16 0 -4
BITMAP
00
6C
38
10
00
78
0C
7C
CC
CC
CC
76
00
00
00
00
ENDCHAR
STARTCHAR uni01CF
ENCODING 463
SWIDTH 480 0
DWIDTH 8 0
BBX 8 16 0 -4
BITMAP
6C
38
10
3C
18
18
18
18
18
18
18
3C
00
00
00
00
ENDCHAR
STARTCHAR uni01D0
ENCODING 464
SWIDTH 480 0
DWIDTH 8 0
BBX 8 16 0 -4
BITMAP
00
6C
38
10
00
38
18
18
18
18
18
3C
00
00
00
00
ENDCHAR
STARTCHAR uni01D1
ENCODING 465
SWIDTH 480 0
DWIDTH 8 0
BBX 8 16 0 -4
BITMAP
6C
38
10
7C
C6
C6
C6
C6
C6
C6
C6
7C
00
00
00
00
ENDCHAR
STARTCHAR uni01D2
ENCODING 466
SWIDTH 480 0
DWIDTH 8 0
BBX 8 16 0 -4
BITMAP
00
6C
38
10
00
7C
C6
C6
C6
C6
C6
7C
00
00
00
00
ENDCHAR
STARTCHAR uni01D3
ENCODING 467
SWIDTH 480 0
DWIDTH 8 0
BBX 8 16 0 -4
BITMAP
6C
38
10
C6
C6
C6
C6
C6
C6
C6
C6
7C
00
00
00
00
ENDCHAR
STARTCHAR uni01D4
ENCODING 468
SWIDTH 480 0
DWIDTH 8 0
BBX 8 16 0 -4
BITMAP
00
6C
38
10
00
CC
CC
CC
CC
CC
CC
76
00
00
00
00
ENDCHAR
STARTCHAR uni01D5
ENCODING 469
SWIDTH 480 0
DWIDTH 8 0
BBX 8 16 0 -4
BITMAP
7C
00
6C
00
C6
C6
C6
C6
C6
C6
C6
7C
00
00
00
00
ENDCHAR
STARTCHAR uni01D6
ENCODING 470
SWIDTH 480 0
DWIDTH 8 0
BBX 8 16 0 -4
BITMAP
00
78
00
CC
00
CC
CC
CC
CC
CC
CC
76
00
00
00
00
ENDCHAR
STARTCHAR uni01D7
ENCODING 471
SWIDTH 480 0
DWIDTH 8 0
BBX 8 16 0 -4
BITMAP
08
10
6C
00
C6
C6
C6
C6
C6
C6
C6
7C
00
00
00
00
ENDCHAR
STARTCHAR uni01D8
ENCODING 472
SWIDTH 480 0
DWIDTH 8 0
BBX 8 16 0 -4
BITMAP
18
30
00
CC
00
CC
CC
CC
CC
CC
CC
76
00
00
00
00
ENDCHAR
STARTCHAR uni01D9
ENCODING 473
SWIDTH 480 0
DWIDTH 8 0
BBX 8 16 0 -4
BITMAP
28
10
6C
00
C6
C6
C6
C6
C6
C6
C6
7C
00
00
00
00
ENDCHAR
STARTCHAR uni01DA
ENCODING 474
SWIDTH 480 0
DWIDTH 8 0
BBX 8 16 0 -4
BITMAP
78
30
00
CC
00
CC
CC
CC
CC
CC
CC
76
00
00
00
00
ENDCHAR
STARTCHAR uni01DB
ENCODING 475
SWIDTH 480 0
DWIDTH 8 0
BBX 8 16 0 -4
BITMAP
20
10
6C
00
C6
C6
C6
C6
C6
C6
C6
7C
00
00
00
00
ENDCHAR
STARTCHAR uni01DC
ENCODING 476
SWIDTH 480 0
DWIDTH 8 0
BBX 8 16 0 -4
BITMAP
60
30
00
CC
00
CC
CC
CC
CC
CC
CC
76
00
00
00
00
ENDCHAR
STARTCHAR uni01DD
ENCODING 477
SWIDTH 480 0
DWIDTH 8 0
BBX 8 16 0 -4
BITMAP
00
00
00
00
00
7C
C6
06
06
FE
C6
7C
00
00
00
00
ENDCHAR
STARTCHAR uni01DE
ENCODING 478
SWIDTH 480 0
DWIDTH 8 0
BBX 8 16 0 -4
BITMAP
7C
00
6C
10
38
6C
C6
C6
FE
C6
C6
C6
00
00
00
00
ENDCHAR
STARTCHAR uni01DF
ENCODING 479
SWIDTH 480 0
DWIDTH 8 0
BBX 8 16 0 -4
BITMAP
00
7C
00
6C
00
78
0C
7C
CC
CC
CC
76
00
00
00
00
ENDCHAR
STARTCHAR uni01E0
ENCODING 480
SWIDTH 480 0
DWIDTH 8 0
BBX 8 16 0 -4
BITMAP
7C
30
30
10
38
6C
C6
C6
FE
C6
C6
C6
00
00
00
00
ENDCHAR
STARTCHAR uni01E1
ENCODING 481
SWIDTH 480 0
DWIDTH 8 0
BBX 8 16 0 -4
BITMAP
00
7C
00
30
00
78
0C
7C
CC
CC
CC
76
00
00
00
00
ENDCHAR
STARTCHAR uni01E2
ENCODING 482
SWIDTH 480 0
DWIDTH 8 0
BBX 8 16 0 -4
BITMAP
00
7C
00
3E
6C
CC
CC
FE
CC
CC
CC
CE
00
00
00
00
ENDCHAR
STARTCHAR uni01E3
ENCODING 483
SWIDTH 480 0
DWIDTH 8 0
BBX 8 16 0 -4
BITMAP
00
00
00
7C
00
CC
76
36
7E
D8
D8
6E
00
00
00
00
ENDCHAR
STARTCHAR uni01E4
ENCODING 484
SWIDTH 480 0
DWIDTH 8 0
BBX 8 16 0 -4
BITMAP
00
00
3C
66
C2
C0
C0
DE
C6
DF
66
3A
00
00
00
00
ENDCHAR
STARTCHAR uni01E5
ENCODING 485
SWIDTH 480 0
DWIDTH 8 0
BBX 8 16 0 -4
BITMAP
00
00
00
00
00
76
CC
CC
CC
CC
7C
0C
3E
CC
78
00
ENDCHAR
STARTCHAR Gcaron
ENCODING 486
SWIDTH 480 0
DWIDTH 8 0
BBX 8 16 0 -4
BITMAP
6C
38
10
3C
66
C2
C0
DE
C6
C6
66
3A
00
00
00
00
ENDCHAR
STARTCHAR gcaron
ENCODING 487
SWIDTH 480 0
DWIDTH 8 0
BBX 8 16 0 -4
BITMAP
00
6C
38
10
00
76
CC
CC
CC
CC
CC
7C
0C
CC
78
00
ENDCHAR
STARTCHAR uni01E8
ENCODING 488
SWIDTH 480 0
DWIDTH 8 0
BBX 8 16 0 -4
BITMAP
6C
38
10
E6
66
66
6C
78
6C
66
66
E6
00
00
00
00
ENDCHAR
STARTCHAR uni01E9
ENCODING 489
SWIDTH 480 0
DWIDTH 8 0
BBX 8 16 0 -4
BITMAP
6C
38
10
E0
60
66
6C
78
78
6C
66
E6
00
00
00
00
ENDCHAR
STARTCHAR uni01EA
ENCODING 490
SWIDTH 480 0
DWIDTH 8 0
BBX 8 16 0 -4
BITMAP
00
00
7C
C6
C6
C6
C6
C6
C6
C6
C6
7C
30
60
38
00
ENDCHAR
STARTCHAR uni01EB
ENCODING 491
SWIDTH 480 0
DWIDTH 8 0
BBX 8 16 0 -4
BITMAP
00
00
00
00
00
7C
C6
C6
C6
C6
C6
7C
30
60
38
00
ENDCHAR
STARTCHAR uni01EC
ENCODING 492
SWIDTH 480 0
DWIDTH 8 0
BBX 8 16 0 -4
BITMAP
00
7C
00
7C
C6
C6
C6
C6
C6
C6
C6
7C
30
60
38
00
ENDCHAR
STARTCHAR uni01ED
ENCODING 493
SWIDTH 480 0
DWIDTH 8 0
BBX 8 16 0 -4
BITMAP
00
00
00
7C
00
7C
C6
C6
C6
C6
C6
7C
30
60
38
00
ENDCHAR
STARTCHAR uni01EE
ENCODING 494
SWIDTH 480 0
DWIDTH 8 0
BBX 8 16 0 -4
BITMAP
6C
38
10
FE
0C
18
30
7C
06
06
06
06
C6
7C
00
00
ENDCHAR
STARTCHAR uni01EF
ENCODING 495
SWIDTH 480 0
DWIDTH 8 0
BBX 8 16 0 -4
BITMAP
00
6C
38
10
00
FE
06
0C
18
3C
06
06
06
C6
7C
00
ENDCHAR
STARTCHAR uni01F0
ENCODING 496
SWIDTH 480 0
DWIDTH 8 0
BBX 8 16 0 -4
BITMAP
00
1B
0E
04
00
0E
06
06
06
06
06
06
66
66
3C
00
ENDCHAR
STARTCHAR uni01F1
ENCODING 497
SWIDTH 480 0
DWIDTH 8 0
BBX 8 16 0 -4
BITMAP
00
00
F7
D9
D9
DA
DA
DA
DA
DC
DC
F7
00
00
00
00
ENDCHAR
STARTCHAR uni01F2
ENCODING 498
SWIDTH 480 0
DWIDTH 8 0
BBX 8 16 0 -4
BITMAP
00
00
F0
D8
D8
DF
D9
DA
DA
DA
DC
F7
00
00
00
00
ENDCHAR
STARTCHAR uni01F3
ENCODING 499
SWIDTH 480 0
DWIDTH 8 0
BBX 8 16 0 -4
BITMAP
00
00
38
18
18
7F
D9
DA
DA
DA
DC
6F
00
00
00
00
ENDCHAR
STARTCHAR uni01F4
ENCODING 500
SWIDTH 480 0
DWIDTH 8 0
BBX 8 16 0 -4
BITMAP
0C
18
00
3C
66
C2
C0
DE
C6
C6
66
3A
00
00
00
00
ENDCHAR
STARTCHAR uni01F5
ENCODING 501
SWIDTH 480 0
DWIDTH 8 0
BBX 8 16 0 -4
BITMAP
00
00
18
30
00
76
CC
CC
CC
CC
CC
7C
0C
CC
78
00
ENDCHAR
STARTCHAR uni01F6
ENCODING 502
SWIDTH 480 0
DWIDTH 8 0
BBX 8 16 0 -4
BITMAP
00
00
D8
D8
D8
DB
FB
DB
DB
DB
DB
CE
00
00
00
00
ENDCHAR
STARTCHAR uni01F7
ENCODING 503
SWIDTH 480 0
DWIDTH 8 0
BBX 8 16 0 -4
BITMAP
00
00
FC
66
66
66
66
6C
78
70
60
60
60
60
E0
00
ENDCHAR
STARTCHAR uni01F8
ENCODING 504
SWIDTH 480 0
DWIDTH 8 0
BBX 8 16 0 -4
BITMAP
60
30
00
C6
E6
F6
FE
DE
CE
C6
C6
C6
00
00
00
00
ENDCHAR
STARTCHAR uni01F9
ENCODING 505
SWIDTH 480 0
DWIDTH 8 0
BBX 8 16 0 -4
BITMAP
00
00
30
18
00
DC
66
66
66
66
66
66
00
00
00
00
ENDCHAR
STARTCHAR Aringacute
ENCODING 506
SWIDTH 480 0
DWIDTH 8 0
BBX 8 16 0 -4
BITMAP
0C
18
38
6C
38
38
6C
C6
C6
FE
C6
C6
00
00
00
00
ENDCHAR
STARTCHAR aringacute
ENCODING 507
SWIDTH 480 0
DWIDTH 8 0
BBX 8 16 0 -4
BITMAP
0C
18
38
6C
38
78
0C
7C
CC
CC
CC
76
00
00
00
00
ENDCHAR
STARTCHAR AEacute
ENCODING 508
SWIDTH 480 0
DWIDTH 8 0
BBX 8 16 0 -4
BITMAP
0C
18
00
3E
6C
CC
CC
FE
CC
CC
CC
CE
00
00
00
00
ENDCHAR
STARTCHAR aeacute
ENCODING 509
SWIDTH 480 0
DWIDTH 8 0
BBX 8 16 0 -4
BITMAP
00
00
0C
18
00
CC
76
36
7E
D8
D8
6E
00
00
00
00
ENDCHAR
STARTCHAR Oslashacute
ENCODING 510
SWIDTH 480 0
DWIDTH 8 0
BBX 8 16 0 -4
BITMAP
0C
18
00
7A
C4
CE
CE
D6
E6
E6
46
BC
00
00
00
00
ENDCHAR
STARTCHAR oslashacute
ENCODING 511
SWIDTH 480 0
DWIDTH 8 0
BBX 8 16 0 -4
BITMAP
00
00
0C
18
00
7A
C4
CE
D6
E6
46
BC
00
00
00
00
ENDCHAR
STARTCHAR uni0200
ENCODING 512
SWIDTH 480 0
DWIDTH 8 0
BBX 8 16 0 -4
BITMAP
CC
66
00
10
38
6C
C6
C6
FE
C6
C6
C6
00
00
00
00
ENDCHAR
STARTCHAR uni0201
ENCODING 513
SWIDTH 480 0
DWIDTH 8 0
BBX 8 16 0 -4
BITMAP
00
00
CC
66
00
78
0C
7C
CC
CC
CC
76
00
00
00
00
ENDCHAR
STARTCHAR uni0202
ENCODING 514
SWIDTH 480 0
DWIDTH 8 0
BBX 8 16 0 -4
BITMAP
38
6C
00
10
38
6C
C6
C6
FE
C6
C6
C6
00
00
00
00
ENDCHAR
STARTCHAR uni0203
ENCODING 515
SWIDTH 480 0
DWIDTH 8 0
BBX 8 16 0 -4
BITMAP
00
00
38
6C
00
78
0C
7C
CC
CC
CC
76
00
00
00
00
ENDCHAR
STARTCHAR uni0204
ENCODING 516
SWIDTH 480 0
DWIDTH 8 0
BBX 8 16 0 -4
BITMAP
CC
66
00
FE
66
62
68
78
68
62
66
FE
00
00
00
00
ENDCHAR
STARTCHAR uni0205
ENCODING 517
SWIDTH 480 0
DWIDTH 8 0
BBX 8 16 0 -4
BITMAP
00
00
CC
66
00
7C
C6
FE
C0
C0
C6
7C
00
00
00
00
ENDCHAR
STARTCHAR uni0206
ENCODING 518
SWIDTH 480 0
DWIDTH 8 0
BBX 8 16 0 -4
BITMAP
38
6C
00
FE
66
62
68
78
68
62
66
FE
00
00
00
00
ENDCHAR
STARTCHAR uni0207
ENCODING 519
SWIDTH 480 0
DWIDTH 8 0
BBX 8 16 0 -4
BITMAP
00
00
38
6C
00
7C
C6
FE
C0
C0
C6
7C
00
00
00
00
ENDCHAR
STARTCHAR uni0208
ENCODING 520
SWIDTH 480 0
DWIDTH 8 0
BBX 8 16 0 -4
BITMAP
CC
66
00
3C
18
18
18
18
18
18
18
3C
00
00
00
00
ENDCHAR
STARTCHAR uni0209
ENCODING 521
SWIDTH 480 0
DWIDTH 8 0
BBX 8 16 0 -4
BITMAP
00
00
CC
66
00
38
18
18
18
18
18
3C
00
00
00
00
ENDCHAR
STARTCHAR uni020A
ENCODING 522
SWIDTH 480 0
DWIDTH 8 0
BBX 8 16 0 -4
BITMAP
3C
66
00
3C
18
18
18
18
18
18
18
3C
00
00
00
00
ENDCHAR
STARTCHAR uni020B
ENCODING 523
SWIDTH 480 0
DWIDTH 8 0
BBX 8 16 0 -4
BITMAP
00
00
3C
66
00
38
18
18
18
18
18
3C
00
00
00
00
ENDCHAR
STARTCHAR uni020C
ENCODING 524
SWIDTH 480 0
DWIDTH 8 0
BBX 8 16 0 -4
BITMAP
CC
66
00
7C
C6
C6
C6
C6
C6
C6
C6
7C
00
00
00
00
ENDCHAR
STARTCHAR uni020D
ENCODING 525
SWIDTH 480 0
DWIDTH 8 0
BBX 8 16 0 -4
BITMAP
00
00
CC
66
00
7C
C6
C6
C6
C6
C6
7C
00
00
00
00
ENDCHAR
STARTCHAR uni020E
ENCODING 526
SWIDTH 480 0
DWIDTH 8 0
BBX 8 16 0 -4
BITMAP
38
6C
00
7C
C6
C6
C6
C6
C6
C6
C6
7C
00
00
00
00
ENDCHAR
STARTCHAR uni020F
ENCODING 527
SWIDTH 480 0
DWIDTH 8 0
BBX 8 16 0 -4
BITMAP
00
00
38
6C
00
7C
C6
C6
C6
C6
C6
7C
00
00
00
00
ENDCHAR
STARTCHAR uni0210
ENCODING 528
SWIDTH 480 0
DWIDTH 8 0
BBX 8 16 0 -4
BITMAP
CC
66
00
FC
66
66
66
7C
6C
66
66
E6
00
00
00
00
ENDCHAR
STARTCHAR uni0211
ENCODING 529
SWIDTH 480 0
DWIDTH 8 0
BBX 8 16 0 -4
BITMAP
00
00
CC
66
00
DC
76
66
60
60
60
F0
00
00
00
00
ENDCHAR
STARTCHAR uni0212
ENCODING 530
SWIDTH 480 0
DWIDTH 8 0
BBX 8 16 0 -4
BITMAP
38
6C
00
FC
66
66
66
7C
6C
66
66
E6
00
00
00
00
ENDCHAR
STARTCHAR uni0213
ENCODING 531
SWIDTH 480 0
DWIDTH 8 0
BBX 8 16 0 -4
BITMAP
00
00
38
6C
00
DC
76
66
60
60
60
F0
00
00
00
00
ENDCHAR
STARTCHAR uni0214
ENCODING 532
SWIDTH 480 0
DWIDTH 8 0
BBX 8 16 0 -4
BITMAP
CC
66
00
C6
C6
C6
C6
C6
C6
C6
C6
7C
00
00
00
00
ENDCHAR
STARTCHAR uni0215
ENCODING 533
SWIDTH 480 0
DWIDTH 8 0
BBX 8 16 0 -4
BITMAP
00
00
CC
66
00
CC
CC
CC
CC
CC
CC
76
00
00
00
00
ENDCHAR
STARTCHAR uni0216
ENCODING 534
SWIDTH 480 0
DWIDTH 8 0
BBX 8 16 0 -4
BITMAP
38
6C
00
C6
C6
C6
C6
C6
C6
C6
C6
7C
00
00
00
00
ENDCHAR
STARTCHAR uni0217
ENCODING 535
SWIDTH 480 0
DWIDTH 8 0
BBX 8 16 0 -4
BITMAP
00
00
78
CC
00
CC
CC
CC
CC
CC
CC
76
00
00
00
00
ENDCHAR
STARTCHAR Scommaaccent
ENCODING 536
SWIDTH 480 0
DWIDTH 8 0
BBX 8 16 0 -4
BITMAP
00
00
7C
C6
C6
60
38
0C
06
C6
C6
7C
00
18
18
30
ENDCHAR
STARTCHAR scommaaccent
ENCODING 537
SWIDTH 480 0
DWIDTH 8 0
BBX 8 16 0 -4
BITMAP
00
00
00
00
00
7C
C6
60
38
0C
C6
7C
00
18
18
30
ENDCHAR
STARTCHAR Tcommaaccent
ENCODING 538
SWIDTH 480 0
DWIDTH 8 0
BBX 8 16 0 -4
BITMAP
00
00
7E
7E
5A
18
18
18
18
18
18
3C
00
18
18
30
ENDCHAR
STARTCHAR tcommaaccent
ENCODING 539
SWIDTH 480 0
DWIDTH 8 0
BBX 8 16 0 -4
BITMAP
00
00
10
30
30
FC
30
30
30
30
36
1C
00
18
18
30
ENDCHAR
STARTCHAR uni021C
ENCODING 540
SWIDTH 480 0
DWIDTH 8 0
BBX 8 16 0 -4
BITMAP
00
00
7C
C6
86
06
1C
74
06
06
06
06
1C
F0
00
00
ENDCHAR
STARTCHAR uni021D
ENCODING 541
SWIDTH 480 0
DWIDTH 8 0
BBX 8 16 0 -4
BITMAP
00
00
00
00
00
7C
C6
06
0E
3C
06
06
1C
F0
00
00
ENDCHAR
STARTCHAR uni021E
ENCODING 542
SWIDTH 480 0
DWIDTH 8 0
BBX 8 16 0 -4
BITMAP
6C
38
10
C6
C6
C6
C6
FE
C6
C6
C6
C6
00
00
00
00
ENDCHAR
STARTCHAR uni021F
ENCODING 543
SWIDTH 480 0
DWIDTH 8 0
BBX 8 16 0 -4
BITMAP
6C
38
10
E0
60
6C
76
66
66
66
66
E6
00
00
00
00
ENDCHAR
STARTCHAR uni0222
ENCODING 546
SWIDTH 480 0
DWIDTH 8 0
BBX 8 16 0 -4
BITMAP
00
00
6C
C6
C6
C6
7C
C6
C6
C6
C6
7C
00
00
00
00
ENDCHAR
STARTCHAR uni0223
ENCODING 547
SWIDTH 480 0
DWIDTH 8 0
BBX 8 16 0 -4
BITMAP
00
00
24
66
66
66
3C
66
66
66
66
3C
00
00
00
00
ENDCHAR
STARTCHAR uni0224
ENCODING 548
SWIDTH 480 0
DWIDTH 8 0
BBX 8 16 0 -4
BITMAP
00
00
FE
C6
86
0C
18
30
60
C0
C0
FC
06
0C
00
00
ENDCHAR
STARTCHAR uni0225
ENCODING 549
SWIDTH 480 0
DWIDTH 8 0
BBX 8 16 0 -4
BITMAP
00
00
00
00
00
FE
CC
18
30
60
C0
FC
06
0C
00
00
ENDCHAR
STARTCHAR uni0226
ENCODING 550
SWIDTH 480 0
DWIDTH 8 0
BBX 8 16 0 -4
BITMAP
30
30
00
10
38
6C
C6
C6
FE
C6
C6
C6
00
00
00
00
ENDCHAR
STARTCHAR uni0227
ENCODING 551
SWIDTH 480 0
DWIDTH 8 0
BBX 8 16 0 -4
BITMAP
00
00
30
30
00
78
0C
7C
CC
CC
CC
76
00
00
00
00
ENDCHAR
STARTCHAR uni0228
ENCODING 552
SWIDTH 480 0
DWIDTH 8 0
BBX 8 16 0 -4
BITMAP
00
00
FE
66
62
68
78
68
60
62
66
FE
18
0C
38
00
ENDCHAR
STARTCHAR uni0229
ENCODING 553
SWIDTH 480 0
DWIDTH 8 0
BBX 8 16 0 -4
BITMAP
00
00
00
00
00
7C
C6
FE
C0
C0
C6
7C
18
0C
38
00
ENDCHAR
STARTCHAR uni022A
ENCODING 554
SWIDTH 480 0
DWIDTH 8 0
BBX 8 16 0 -4
BITMAP
7C
00
6C
00
7C
C6
C6
C6
C6
C6
C6
7C
00
00
00
00
ENDCHAR
STARTCHAR uni022B
ENCODING 555
SWIDTH 480 0
DWIDTH 8 0
BBX 8 16 0 -4
BITMAP
00
7C
00
6C
00
7C
C6
C6
C6
C6
C6
7C
00
00
00
00
ENDCHAR
STARTCHAR uni022C
ENCODING 556
SWIDTH 480 0
DWIDTH 8 0
BBX 8 16 0 -4
BITMAP
7C
00
72
9C
7C
C6
C6
C6
C6
C6
C6
7C
00
00
00
00
ENDCHAR
STARTCHAR uni022D
ENCODING 557
SWIDTH 480 0
DWIDTH 8 0
BBX 8 16 0 -4
BITMAP
7C
00
76
DC
00
7C
C6
C6
C6
C6
C6
7C
00
00
00
00
ENDCHAR
STARTCHAR uni022E
ENCODING 558
SWIDTH 480 0
DWIDTH 8 0
BBX 8 16 0 -4
BITMAP
30
30
00
7C
C6
C6
C6
C6
C6
C6
C6
7C
00
00
00
00
ENDCHAR
STARTCHAR uni022F
ENCODING 559
SWIDTH 480 0
DWIDTH 8 0
BBX 8 16 0 -4
BITMAP
00
00
30
30
00
7C
C6
C6
C6
C6
C6
7C
00
00
00
00
ENDCHAR
STARTCHAR uni0230
ENCODING 560
SWIDTH 480 0
DWIDTH 8 0
BBX 8 16 0 -4
BITMAP
7C
00
30
00
7C
C6
C6
C6
C6
C6
C6
7C
00
00
00
00
ENDCHAR
STARTCHAR uni0231
ENCODING 561
SWIDTH 480 0
DWIDTH 8 0
BBX 8 16 0 -4
BITMAP
00
7C
00
30
00
7C
C6
C6
C6
C6
C6
7C
00
00
00
00
ENDCHAR
STARTCHAR uni0232
ENCODING 562
SWIDTH 480 0
DWIDTH 8 0
BBX 8 16 0 -4
BITMAP
00
3C
00
66
66
66
3C
18
18
18
18
3C
00
00
00
00
ENDCHAR
STARTCHAR uni0233
ENCODING 563
SWIDTH 480 0
DWIDTH 8 0
BBX 8 16 0 -4
BITMAP
00
00
00
7C
00
C6
C6
C6
C6
C6
C6
7E
06
0C
F8
00
ENDCHAR
STARTCHAR uni0250
ENCODING 592
SWIDTH 480 0
DWIDTH 8 0
BBX 8 16 0 -4
BITMAP
00
00
00
00
00
DC
66
66
66
7C
60
3C
00
00
00
00
ENDCHAR
STARTCHAR uni0251
ENCODING 593
SWIDTH 480 0
DWIDTH 8 0
BBX 8 16 0 -4
BITMAP
00
00
00
00
00
74
CC
CC
CC
CC
CC
76
00
00
00
00
ENDCHAR
STARTCHAR uni0252
ENCODING 594
SWIDTH 480 0
DWIDTH 8 0
BBX 8 16 0 -4
BITMAP
00
00
00
00
00
DC
66
66
66
66
66
5C
00
00
00
00
ENDCHAR
STARTCHAR uni0253
ENCODING 595
SWIDTH 480 0
DWIDTH 8 0
BBX 8 16 0 -4
BITMAP
00
00
38
6C
60
78
6C
66
66
66
66
7C
00
00
00
00
ENDCHAR
STARTCHAR uni0254
ENCODING 596
SWIDTH 480 0
DWIDTH 8 0
BBX 8 16 0 -4
BITMAP
00
00
00
00
00
7C
C6
06
06
06
C6
7C
00
00
00
00
ENDCHAR
STARTCHAR uni0255
ENCODING 597
SWIDTH 480 0
DWIDTH 8 0
BBX 8 16 0 -4
BITMAP
00
00
00
00
00
7C
C6
C0
C0
DC
E6
7C
80
00
00
00
ENDCHAR
STARTCHAR uni0256
ENCODING 598
SWIDTH 480 0
DWIDTH 8 0
BBX 8 16 0 -4
BITMAP
00
00
1C
0C
0C
3C
6C
CC
CC
CC
CC
7C
0C
0D
06
00
ENDCHAR
STARTCHAR uni0257
ENCODING 599
SWIDTH 480 0
DWIDTH 8 0
BBX 8 16 0 -4
BITMAP
00
00
06
0D
0C
3C
6C
CC
CC
CC
CC
76
00
00
00
00
ENDCHAR
STARTCHAR uni0258
ENCODING 600
SWIDTH 480 0
DWIDTH 8 0
BBX 8 16 0 -4
BITMAP
00
00
00
00
00
7C
C6
FE
06
06
C6
7C
00
00
00
00
ENDCHAR
STARTCHAR uni0259
ENCODING 601
SWIDTH 480 0
DWIDTH 8 0
BBX 8 16 0 -4
BITMAP
00
00
00
00
00
7C
C6
06
06
FE
C6
7C
00
00
00
00
ENDCHAR
STARTCHAR uni025A
ENCODING 602
SWIDTH 480 0
DWIDTH 8 0
BBX 8 16 0 -4
BITMAP
00
00
00
00
00
3B
6C
8E
16
26
6C
38
00
00
00
00
ENDCHAR
STARTCHAR uni025B
ENCODING 603
SWIDTH 480 0
DWIDTH 8 0
BBX 8 16 0 -4
BITMAP
00
00
00
00
00
7C
C6
C0
78
C0
C6
7C
00
00
00
00
ENDCHAR
STARTCHAR uni025C
ENCODING 604
SWIDTH 480 0
DWIDTH 8 0
BBX 8 16 0 -4
BITMAP
00
00
00
00
00
7C
C6
06
3C
06
C6
7C
00
00
00
00
ENDCHAR
STARTCHAR uni025D
ENCODING 605
SWIDTH 480 0
DWIDTH 8 0
BBX 8 16 0 -4
BITMAP
00
00
00
00
00
7A
CD
0D
38
0C
CC
78
00
00
00
00
ENDCHAR
STARTCHAR uni025E
ENCODING 606
SWIDTH 480 0
DWIDTH 8 0
BBX 8 16 0 -4
BITMAP
00
00
00
00
00
7C
C6
C6
DC
C6
C6
7C
00
00
00
00
ENDCHAR
STARTCHAR uni025F
ENCODING 607
SWIDTH 480 0
DWIDTH 8 0
BBX 8 16 0 -4
BITMAP
00
00
00
00
00
0E
06
06
1F
06
06
06
66
66
3C
00
ENDCHAR
STARTCHAR uni0260
ENCODING 608
SWIDTH 480 0
DWIDTH 8 0
BBX 8 16 0 -4
BITMAP
00
00
00
06
0D
7C
CC
CC
CC
CC
CC
7C
0C
CC
78
00
ENDCHAR
STARTCHAR uni0261
ENCODING 609
SWIDTH 480 0
DWIDTH 8 0
BBX 8 16 0 -4
BITMAP
00
00
00
00
00
76
CC
CC
CC
CC
CC
7C
0C
CC
78
00
ENDCHAR
STARTCHAR uni0262
ENCODING 610
SWIDTH 480 0
DWIDTH 8 0
BBX 8 16 0 -4
BITMAP
00
00
00
00
00
7C
C6
C0
CE
C6
C6
7A
00
00
00
00
ENDCHAR
STARTCHAR uni0263
ENCODING 611
SWIDTH 480 0
DWIDTH 8 0
BBX 8 16 0 -4
BITMAP
00
00
00
00
00
C6
46
6C
2C
2C
38
18
18
18
18
00
ENDCHAR
STARTCHAR uni0264
ENCODING 612
SWIDTH 480 0
DWIDTH 8 0
BBX 8 16 0 -4
BITMAP
00
00
00
00
00
C2
64
28
38
38
6C
38
00
00
00
00
ENDCHAR
STARTCHAR uni0265
ENCODING 613
SWIDTH 480 0
DWIDTH 8 0
BBX 8 16 0 -4
BITMAP
00
00
00
00
00
CE
CC
CC
CC
CC
DC
6C
0C
0C
0E
00
ENDCHAR
STARTCHAR uni0266
ENCODING 614
SWIDTH 480 0
DWIDTH 8 0
BBX 8 16 0 -4
BITMAP
00
00
38
6C
60
6C
76
66
66
66
66
E6
00
00
00
00
ENDCHAR
STARTCHAR uni0267
ENCODING 615
SWIDTH 480 0
DWIDTH 8 0
BBX 8 16 0 -4
BITMAP
00
00
38
6C
60
6C
76
66
66
66
66
E6
06
06
1C
00
ENDCHAR
STARTCHAR uni0268
ENCODING 616
SWIDTH 480 0
DWIDTH 8 0
BBX 8 16 0 -4
BITMAP
00
00
18
18
00
38
18
18
3C
18
18
3C
00
00
00
00
ENDCHAR
STARTCHAR uni0269
ENCODING 617
SWIDTH 480 0
DWIDTH 8 0
BBX 8 16 0 -4
BITMAP
00
00
00
00
00
38
18
18
18
18
18
0E
00
00
00
00
ENDCHAR
STARTCHAR uni026A
ENCODING 618
SWIDTH 480 0
DWIDTH 8 0
BBX 8 16 0 -4
BITMAP
00
00
00
00
00
3C
18
18
18
18
18
3C
00
00
00
00
ENDCHAR
STARTCHAR uni026B
ENCODING 619
SWIDTH 480 0
DWIDTH 8 0
BBX 8 16 0 -4
BITMAP
00
00
38
18
18
18
7B
DE
18
18
18
3C
00
00
00
00
ENDCHAR
STARTCHAR uni026C
ENCODING 620
SWIDTH 480 0
DWIDTH 8 0
BBX 8 16 0 -4
BITMAP
00
00
38
18
18
18
78
58
3E
18
18
3C
00
00
00
00
ENDCHAR
STARTCHAR uni026D
ENCODING 621
SWIDTH 480 0
DWIDTH 8 0
BBX 8 16 0 -4
BITMAP
00
00
38
18
18
18
18
18
18
18
18
18
18
1B
0E
00
ENDCHAR
STARTCHAR uni026E
ENCODING 622
SWIDTH 480 0
DWIDTH 8 0
BBX 8 16 0 -4
BITMAP
00
00
E0
60
60
7F
63
66
6C
7E
63
F3
03
33
1E
00
ENDCHAR
STARTCHAR uni026F
ENCODING 623
SWIDTH 480 0
DWIDTH 8 0
BBX 8 16 0 -4
BITMAP
00
00
00
00
00
C6
D6
D6
D6
D6
FE
6E
00
00
00
00
ENDCHAR
STARTCHAR uni0270
ENCODING 624
SWIDTH 480 0
DWIDTH 8 0
BBX 8 16 0 -4
BITMAP
00
00
00
00
00
C6
D6
D6
D6
D6
FE
6E
06
06
06
00
ENDCHAR
STARTCHAR uni0271
ENCODING 625
SWIDTH 480 0
DWIDTH 8 0
BBX 8 16 0 -4
BITMAP
00
00
00
00
00
EC
FE
D6
D6
D6
D6
C6
06
06
1C
00
ENDCHAR
STARTCHAR uni0272
ENCODING 626
SWIDTH 480 0
DWIDTH 8 0
BBX 8 16 0 -4
BITMAP
00
00
00
00
00
DC
66
66
66
66
66
66
60
60
C0
00
ENDCHAR
STARTCHAR uni0273
ENCODING 627
SWIDTH 480 0
DWIDTH 8 0
BBX 8 16 0 -4
BITMAP
00
00
00
00
00
DC
66
66
66
66
66
66
06
06
03
00
ENDCHAR
STARTCHAR uni0274
ENCODING 628
SWIDTH 480 0
DWIDTH 8 0
BBX 8 16 0 -4
BITMAP
00
00
00
00
00
C6
E6
F6
FE
DE
CE
C6
00
00
00
00
ENDCHAR
STARTCHAR uni0275
ENCODING 629
SWIDTH 480 0
DWIDTH 8 0
BBX 8 16 0 -4
BITMAP
00
00
00
00
00
7C
C6
C6
FE
C6
C6
7C
00
00
00
00
ENDCHAR
STARTCHAR uni0276
ENCODING 630
SWIDTH 480 0
DWIDTH 8 0
BBX 8 16 0 -4
BITMAP
00
00
00
00
00
6E
D8
D8
DE
D8
D8
6E
00
00
00
00
ENDCHAR
STARTCHAR uni0277
ENCODING 631
SWIDTH 480 0
DWIDTH 8 0
BBX 8 16 0 -4
BITMAP
00
00
00
00
00
6C
C6
D6
D6
D6
D6
6C
00
00
00
00
ENDCHAR
STARTCHAR uni0278
ENCODING 632
SWIDTH 480 0
DWIDTH 8 0
BBX 8 16 0 -4
BITMAP
00
00
10
10
10
7C
D6
D6
D6
D6
D6
7C
10
10
10
00
ENDCHAR
STARTCHAR uni0279
ENCODING 633
SWIDTH 480 0
DWIDTH 8 0
BBX 8 16 0 -4
BITMAP
00
00
00
00
00
1E
0C
0C
0C
CC
DC
76
00
00
00
00
ENDCHAR
STARTCHAR uni027A
ENCODING 634
SWIDTH 480 0
DWIDTH 8 0
BBX 8 16 0 -4
BITMAP
00
00
1E
0C
0C
0C
0C
0C
0C
CC
DC
76
00
00
00
00
ENDCHAR
STARTCHAR uni027B
ENCODING 635
SWIDTH 480 0
DWIDTH 8 0
BBX 8 16 0 -4
BITMAP
00
00
00
00
00
1E
0C
0C
0C
CC
DC
6C
0C
0D
06
00
ENDCHAR
STARTCHAR uni027C
ENCODING 636
SWIDTH 480 0
DWIDTH 8 0
BBX 8 16 0 -4
BITMAP
00
00
00
00
00
DC
76
66
60
60
60
60
60
60
F0
00
ENDCHAR
STARTCHAR uni027D
ENCODING 637
SWIDTH 480 0
DWIDTH 8 0
BBX 8 16 0 -4
BITMAP
00
00
00
00
00
DC
76
66
60
60
60
60
60
6C
38
00
ENDCHAR
STARTCHAR uni027E
ENCODING 638
SWIDTH 480 0
DWIDTH 8 0
BBX 8 16 0 -4
BITMAP
00
00
00
00
00
3C
66
66
60
60
60
F0
00
00
00
00
ENDCHAR
STARTCHAR uni027F
ENCODING 639
SWIDTH 480 0
DWIDTH 8 0
BBX 8 16 0 -4
BITMAP
00
00
00
00
00
78
CC
CC
0C
0C
0C
1E
00
00
00
00
ENDCHAR
STARTCHAR uni0280
ENCODING 640
SWIDTH 480 0
DWIDTH 8 0
BBX 8 16 0 -4
BITMAP
00
00
00
00
00
FC
66
66
7C
6C
66
E6
00
00
00
00
ENDCHAR
STARTCHAR uni0281
ENCODING 641
SWIDTH 480 0
DWIDTH 8 0
BBX 8 16 0 -4
BITMAP
00
00
00
00
00
E6
66
6C
7C
66
66
FC
00
00
00
00
ENDCHAR
STARTCHAR uni0282
ENCODING 642
SWIDTH 480 0
DWIDTH 8 0
BBX 8 16 0 -4
BITMAP
00
00
00
00
00
7C
C6
60
38
0C
C6
FC
C0
D8
70
00
ENDCHAR
STARTCHAR uni0283
ENCODING 643
SWIDTH 480 0
DWIDTH 8 0
BBX 8 16 0 -4
BITMAP
00
00
0E
1B
19
18
18
18
18
18
18
18
98
D8
70
00
ENDCHAR
STARTCHAR uni0284
ENCODING 644
SWIDTH 480 0
DWIDTH 8 0
BBX 8 16 0 -4
BITMAP
00
00
0E
1B
19
18
18
18
18
18
18
3C
98
D8
70
00
ENDCHAR
STARTCHAR uni0285
ENCODING 645
SWIDTH 480 0
DWIDTH 8 0
BBX 8 16 0 -4
BITMAP
00
00
00
00
70
D8
18
18
18
18
1B
0E
00
00
00
00
ENDCHAR
STARTCHAR uni0286
ENCODING 646
SWIDTH 480 0
DWIDTH 8 0
BBX 8 16 0 -4
BITMAP
00
00
00
00
0E
1B
18
18
18
18
18
18
7E
D8
70
00
ENDCHAR
STARTCHAR uni0287
ENCODING 647
SWIDTH 480 0
DWIDTH 8 0
BBX 8 16 0 -4
BITMAP
00
00
70
D8
18
18
18
18
7E
18
18
10
00
00
00
00
ENDCHAR
STARTCHAR uni0288
ENCODING 648
SWIDTH 480 0
DWIDTH 8 0
BBX 8 16 0 -4
BITMAP
00
00
10
30
30
FC
30
30
30
30
30
30
30
36
1C
00
ENDCHAR
STARTCHAR uni0289
ENCODING 649
SWIDTH 480 0
DWIDTH 8 0
BBX 8 16 0 -4
BITMAP
00
00
00
00
00
66
66
66
FF
66
66
3B
00
00
00
00
ENDCHAR
STARTCHAR uni028A
ENCODING 650
SWIDTH 480 0
DWIDTH 8 0
BBX 8 16 0 -4
BITMAP
00
00
00
00
00
EE
6C
6C
C6
C6
C6
7C
00
00
00
00
ENDCHAR
STARTCHAR uni028B
ENCODING 651
SWIDTH 480 0
DWIDTH 8 0
BBX 8 16 0 -4
BITMAP
00
00
00
00
00
CC
C6
C6
C6
C6
C6
7C
00
00
00
00
ENDCHAR
STARTCHAR uni028C
ENCODING 652
SWIDTH 480 0
DWIDTH 8 0
BBX 8 16 0 -4
BITMAP
00
00
00
00
00
18
3C
66
66
66
66
66
00
00
00
00
ENDCHAR
STARTCHAR uni028D
ENCODING 653
SWIDTH 480 0
DWIDTH 8 0
BBX 8 16 0 -4
BITMAP
00
00
00
00
00
6C
FE
D6
D6
D6
C6
C6
00
00
00
00
ENDCHAR
STARTCHAR uni028E
ENCODING 654
SWIDTH 480 0
DWIDTH 8 0
BBX 8 16 0 -4
BITMAP
00
00
3E
60
C0
FC
C6
C6
C6
C6
C6
C6
00
00
00
00
ENDCHAR
STARTCHAR uni028F
ENCODING 655
SWIDTH 480 0
DWIDTH 8 0
BBX 8 16 0 -4
BITMAP
00
00
00
00
00
66
66
66
3C
18
18
3C
00
00
00
00
ENDCHAR
STARTCHAR uni0290
ENCODING 656
SWIDTH 480 0
DWIDTH 8 0
BBX 8 16 0 -4
BITMAP
00
00
00
00
00
FE
CC
18
30
60
C6
FE
06
06
03
00
ENDCHAR
STARTCHAR uni0291
ENCODING 657
SWIDTH 480 0
DWIDTH 8 0
BBX 8 16 0 -4
BITMAP
00
00
00
00
00
FE
CC
18
30
66
CB
FE
10
00
00
00
ENDCHAR
STARTCHAR uni0292
ENCODING 658
SWIDTH 480 0
DWIDTH 8 0
BBX 8 16 0 -4
BITMAP
00
00
00
00
00
FE
06
0C
18
3C
06
06
06
C6
7C
00
ENDCHAR
STARTCHAR uni0293
ENCODING 659
SWIDTH 480 0
DWIDTH 8 0
BBX 8 16 0 -4
BITMAP
00
00
00
00
00
FE
06
0C
18
3C
06
06
7E
C7
7C
00
ENDCHAR
STARTCHAR uni0294
ENCODING 660
SWIDTH 480 0
DWIDTH 8 0
BBX 8 16 0 -4
BITMAP
00
00
7C
C6
C6
06
1C
18
18
18
18
3C
00
00
00
00
ENDCHAR
STARTCHAR uni0295
ENCODING 661
SWIDTH 480 0
DWIDTH 8 0
BBX 8 16 0 -4
BITMAP
00
00
7C
C6
C6
C0
70
30
30
30
30
78
00
00
00
00
ENDCHAR
STARTCHAR uni0296
ENCODING 662
SWIDTH 480 0
DWIDTH 8 0
BBX 8 16 0 -4
BITMAP
00
00
3C
18
18
18
18
1C
06
C6
C6
7C
00
00
00
00
ENDCHAR
STARTCHAR uni0297
ENCODING 663
SWIDTH 480 0
DWIDTH 8 0
BBX 8 16 0 -4
BITMAP
00
00
00
00
00
7C
C6
C0
C0
C0
C0
C0
C0
C6
7C
00
ENDCHAR
STARTCHAR uni0298
ENCODING 664
SWIDTH 480 0
DWIDTH 8 0
BBX 8 16 0 -4
BITMAP
00
00
3C
66
C3
C3
DB
DB
C3
C3
66
3C
00
00
00
00
ENDCHAR
STARTCHAR uni0299
ENCODING 665
SWIDTH 480 0
DWIDTH 8 0
BBX 8 16 0 -4
BITMAP
00
00
00
00
00
FC
66
66
7C
66
66
FC
00
00
00
00
ENDCHAR
STARTCHAR uni029A
ENCODING 666
SWIDTH 480 0
DWIDTH 8 0
BBX 8 16 0 -4
BITMAP
00
00
00
00
00
7C
C6
C6
76
C6
C6
7C
00
00
00
00
ENDCHAR
STARTCHAR uni029B
ENCODING 667
SWIDTH 480 0
DWIDTH 8 0
BBX 8 16 0 -4
BITMAP
00
00
00
00
03
7E
C6
C0
CE
C6
C6
7A
00
00
00
00
ENDCHAR
STARTCHAR uni029C
ENCODING 668
SWIDTH 480 0
DWIDTH 8 0
BBX 8 16 0 -4
BITMAP
00
00
00
00
00
C6
C6
C6
FE
C6
C6
C6
00
00
00
00
ENDCHAR
STARTCHAR j
ENCODING 669
SWIDTH 480 0
DWIDTH 8 0
BBX 8 16 0 -4
BITMAP
00
00
0C
0C
00
1C
0C
0C
0C
0C
0C
0C
7E
CC
78
00
ENDCHAR
STARTCHAR uni029D
ENCODING 670
SWIDTH 480 0
DWIDTH 8 0
BBX 8 16 0 -4
BITMAP
00
00
00
00
00
CE
CC
6C
3C
3C
6C
CC
0C
0C
0E
00
ENDCHAR
STARTCHAR uni029E
ENCODING 671
SWIDTH 480 0
DWIDTH 8 0
BBX 8 16 0 -4
BITMAP
00
00
00
00
00
F0
60
60
60
62
66
FE
00
00
00
00
ENDCHAR
STARTCHAR uni029F
ENCODING 672
SWIDTH 480 0
DWIDTH 8 0
BBX 8 16 0 -4
BITMAP
00
00
00
06
0D
7C
CC
CC
CC
CC
CC
7C
0C
0C
1E
00
ENDCHAR
STARTCHAR uni02A0
ENCODING 673
SWIDTH 480 0
DWIDTH 8 0
BBX 8 16 0 -4
BITMAP
00
00
7C
C6
C6
06
1C
18
7E
18
18
3C
00
00
00
00
ENDCHAR
STARTCHAR uni02A1
ENCODING 674
SWIDTH 480 0
DWIDTH 8 0
BBX 8 16 0 -4
BITMAP
00
00
7C
C6
C6
C0
70
30
FC
30
30
78
00
00
00
00
ENDCHAR
STARTCHAR uni02A2
ENCODING 675
SWIDTH 480 0
DWIDTH 8 0
BBX 8 16 0 -4
BITMAP
00
00
38
18
18
7F
D9
DA
DA
DA
DC
6F
00
00
00
00
ENDCHAR
STARTCHAR uni02A3
ENCODING 676
SWIDTH 480 0
DWIDTH 8 0
BBX 8 16 0 -4
BITMAP
00
00
38
18
18
7F
DB
DB
DE
DE
DB
6B
03
1B
0E
00
ENDCHAR
STARTCHAR uni02A4
ENCODING 677
SWIDTH 480 0
DWIDTH 8 0
BBX 8 16 0 -4
BITMAP
00
00
38
18
18
7F
D9
DA
DA
DB
DD
6F
04
00
00
00
ENDCHAR
STARTCHAR uni02A5
ENCODING 678
SWIDTH 480 0
DWIDTH 8 0
BBX 8 16 0 -4
BITMAP
00
00
20
60
60
F6
6D
6C
66
63
6B
36
00
00
00
00
ENDCHAR
STARTCHAR uni02A6
ENCODING 679
SWIDTH 480 0
DWIDTH 8 0
BBX 8 16 0 -4
BITMAP
00
00
26
6D
6C
FC
6C
6C
6C
6C
6C
3C
0C
2C
18
00
ENDCHAR
STARTCHAR uni02A7
ENCODING 680
SWIDTH 480 0
DWIDTH 8 0
BBX 8 16 0 -4
BITMAP
00
00
20
60
60
F6
6D
6C
6C
6E
6D
36
00
00
00
00
ENDCHAR
STARTCHAR uni02A8
ENCODING 681
SWIDTH 480 0
DWIDTH 8 0
BBX 8 16 0 -4
BITMAP
00
00
70
D8
C0
FE
DB
DB
DB
DB
DB
DB
03
03
0E
00
ENDCHAR
STARTCHAR uni02A9
ENCODING 682
SWIDTH 480 0
DWIDTH 8 0
BBX 8 16 0 -4
BITMAP
00
00
E0
60
60
66
6D
6C
66
63
6B
F6
00
00
00
00
ENDCHAR
STARTCHAR uni02AA
ENCODING 683
SWIDTH 480 0
DWIDTH 8 0
BBX 8 16 0 -4
BITMAP
00
00
E0
60
60
6F
6B
63
66
6C
6D
FF
00
00
00
00
ENDCHAR
STARTCHAR uni02AB
ENCODING 684
SWIDTH 480 0
DWIDTH 8 0
BBX 8 16 0 -4
BITMAP
00
00
C6
D6
7C
6C
28
C6
D6
7C
6C
28
00
00
00
00
ENDCHAR
STARTCHAR uni02AC
ENCODING 685
SWIDTH 480 0
DWIDTH 8 0
BBX 8 16 0 -4
BITMAP
00
00
FE
C6
C6
C6
00
00
FE
C6
C6
C6
00
00
00
00
ENDCHAR
STARTCHAR uni02B0
ENCODING 688
SWIDTH 480 0
DWIDTH 8 0
BBX 8 16 0 -4
BITMAP
00
C0
C0
F0
D8
D8
D8
00
00
00
00
00
00
00
00
00
ENDCHAR
STARTCHAR uni02B1
ENCODING 689
SWIDTH 480 0
DWIDTH 8 0
BBX 8 16 0 -4
BITMAP
00
70
C0
F0
D8
D8
D8
00
00
00
00
00
00
00
00
00
ENDCHAR
STARTCHAR uni02B2
ENCODING 690
SWIDTH 480 0
DWIDTH 8 0
BBX 8 16 0 -4
BITMAP
00
18
00
38
18
18
D8
70
00
00
00
00
00
00
00
00
ENDCHAR
STARTCHAR uni02B3
ENCODING 691
SWIDTH 480 0
DWIDTH 8 0
BBX 8 16 0 -4
BITMAP
00
00
00
B0
D8
C0
C0
00
00
00
00
00
00
00
00
00
ENDCHAR
STARTCHAR uni02B4
ENCODING 692
SWIDTH 480 0
DWIDTH 8 0
BBX 8 16 0 -4
BITMAP
00
00
00
18
18
D8
68
00
00
00
00
00
00
00
00
00
ENDCHAR
STARTCHAR uni02B5
ENCODING 693
SWIDTH 480 0
DWIDTH 8 0
BBX 8 16 0 -4
BITMAP
00
00
00
18
18
D8
68
0C
00
00
00
00
00
00
00
00
ENDCHAR
STARTCHAR uni02B6
ENCODING 694
SWIDTH 480 0
DWIDTH 8 0
BBX 8 16 0 -4
BITMAP
00
D8
D8
F0
D8
D8
F0
00
00
00
00
00
00
00
00
00
ENDCHAR
STARTCHAR uni02B7
ENCODING 695
SWIDTH 480 0
DWIDTH 8 0
BBX 8 16 0 -4
BITMAP
00
00
00
C6
D6
7C
6C
00
00
00
00
00
00
00
00
00
ENDCHAR
STARTCHAR uni02B8
ENCODING 696
SWIDTH 480 0
DWIDTH 8 0
BBX 8 16 0 -4
BITMAP
00
00
00
D8
D8
78
18
70
00
00
00
00
00
00
00
00
ENDCHAR
STARTCHAR uni02B9
ENCODING 697
SWIDTH 480 0
DWIDTH 8 0
BBX 8 16 0 -4
BITMAP
00
18
30
60
00
00
00
00
00
00
00
00
00
00
00
00
ENDCHAR
STARTCHAR uni02BA
ENCODING 698
SWIDTH 480 0
DWIDTH 8 0
BBX 8 16 0 -4
BITMAP
00
36
6C
D8
00
00
00
00
00
00
00
00
00
00
00
00
ENDCHAR
STARTCHAR uni02BB
ENCODING 699
SWIDTH 480 0
DWIDTH 8 0
BBX 8 16 0 -4
BITMAP
00
18
30
30
00
00
00
00
00
00
00
00
00
00
00
00
ENDCHAR
STARTCHAR afii57929
ENCODING 700
SWIDTH 480 0
DWIDTH 8 0
BBX 8 16 0 -4
BITMAP
00
18
18
30
00
00
00
00
00
00
00
00
00
00
00
00
ENDCHAR
STARTCHAR afii64937
ENCODING 701
SWIDTH 480 0
DWIDTH 8 0
BBX 8 16 0 -4
BITMAP
00
30
30
18
00
00
00
00
00
00
00
00
00
00
00
00
ENDCHAR
STARTCHAR uni02BE
ENCODING 702
SWIDTH 480 0
DWIDTH 8 0
BBX 8 16 0 -4
BITMAP
00
18
0C
18
00
00
00
00
00
00
00
00
00
00
00
00
ENDCHAR
STARTCHAR uni02BF
ENCODING 703
SWIDTH 480 0
DWIDTH 8 0
BBX 8 16 0 -4
BITMAP
00
30
60
30
00
00
00
00
00
00
00
00
00
00
00
00
ENDCHAR
STARTCHAR uni02C0
ENCODING 704
SWIDTH 480 0
DWIDTH 8 0
BBX 8 16 0 -4
BITMAP
00
00
70
D8
18
30
30
00
00
00
00
00
00
00
00
00
ENDCHAR
STARTCHAR uni02C1
ENCODING 705
SWIDTH 480 0
DWIDTH 8 0
BBX 8 16 0 -4
BITMAP
00
00
70
D8
C0
60
60
00
00
00
00
00
00
00
00
00
ENDCHAR
STARTCHAR uni02C2
ENCODING 706
SWIDTH 480 0
DWIDTH 8 0
BBX 8 16 0 -4
BITMAP
00
00
18
70
C0
70
18
00
00
00
00
00
00
00
00
00
ENDCHAR
STARTCHAR uni02C3
ENCODING 707
SWIDTH 480 0
DWIDTH 8 0
BBX 8 16 0 -4
BITMAP
00
00
C0
70
18
70
C0
00
00
00
00
00
00
00
00
00
ENDCHAR
STARTCHAR uni02C4
ENCODING 708
SWIDTH 480 0
DWIDTH 8 0
BBX 8 16 0 -4
BITMAP
00
20
20
70
70
D8
D8
00
00
00
00
00
00
00
00
00
ENDCHAR
STARTCHAR uni02C5
ENCODING 709
SWIDTH 480 0
DWIDTH 8 0
BBX 8 16 0 -4
BITMAP
00
D8
D8
70
70
20
20
00
00
00
00
00
00
00
00
00
ENDCHAR
STARTCHAR circumflex
ENCODING 710
SWIDTH 480 0
DWIDTH 8 0
BBX 8 16 0 -4
BITMAP
00
10
38
6C
00
00
00
00
00
00
00
00
00
00
00
00
ENDCHAR
STARTCHAR caron
ENCODING 711
SWIDTH 480 0
DWIDTH 8 0
BBX 8 16 0 -4
BITMAP
00
6C
38
10
00
00
00
00
00
00
00
00
00
00
00
00
ENDCHAR
STARTCHAR uni02C8
ENCODING 712
SWIDTH 480 0
DWIDTH 8 0
BBX 8 16 0 -4
BITMAP
00
18
18
18
00
00
00
00
00
00
00
00
00
00
00
00
ENDCHAR
STARTCHAR macron
ENCODING 713
SWIDTH 480 0
DWIDTH 8 0
BBX 8 16 0 -4
BITMAP
00
00
00
7C
00
00
00
00
00
00
00
00
00
00
00
00
ENDCHAR
STARTCHAR uni02CA
ENCODING 714
SWIDTH 480 0
DWIDTH 8 0
BBX 8 16 0 -4
BITMAP
00
00
0C
18
00
00
00
00
00
00
00
00
00
00
00
00
ENDCHAR
STARTCHAR uni02CB
ENCODING 715
SWIDTH 480 0
DWIDTH 8 0
BBX 8 16 0 -4
BITMAP
00
00
60
30
00
00
00
00
00
00
00
00
00
00
00
00
ENDCHAR
STARTCHAR uni02CC
ENCODING 716
SWIDTH 480 0
DWIDTH 8 0
BBX 8 16 0 -4
BITMAP
00
00
00
00
00
00
00
00
00
00
00
00
18
18
18
00
ENDCHAR
STARTCHAR uni02CD
ENCODING 717
SWIDTH 480 0
DWIDTH 8 0
BBX 8 16 0 -4
BITMAP
00
00
00
00
00
00
00
00
00
00
00
00
00
7C
00
00
ENDCHAR
STARTCHAR uni02CE
ENCODING 718
SWIDTH 480 0
DWIDTH 8 0
BBX 8 16 0 -4
BITMAP
00
00
00
00
00
00
00
00
00
00
00
00
00
18
0C
00
ENDCHAR
STARTCHAR uni02CF
ENCODING 719
SWIDTH 480 0
DWIDTH 8 0
BBX 8 16 0 -4
BITMAP
00
00
00
00
00
00
00
00
00
00
00
00
00
30
60
00
ENDCHAR
STARTCHAR breve
ENCODING 728
SWIDTH 480 0
DWIDTH 8 0
BBX 8 16 0 -4
BITMAP
00
00
6C
38
00
00
00
00
00
00
00
00
00
00
00
00
ENDCHAR
STARTCHAR dotaccent
ENCODING 729
SWIDTH 480 0
DWIDTH 8 0
BBX 8 16 0 -4
BITMAP
00
00
18
18
00
00
00
00
00
00
00
00
00
00
00
00
ENDCHAR
STARTCHAR ring
ENCODING 730
SWIDTH 480 0
DWIDTH 8 0
BBX 8 16 0 -4
BITMAP
00
38
6C
38
00
00
00
00
00
00
00
00
00
00
00
00
ENDCHAR
STARTCHAR ogonek
ENCODING 731
SWIDTH 480 0
DWIDTH 8 0
BBX 8 16 0 -4
BITMAP
00
00
00
00
00
00
00
00
00
00
00
00
18
30
1C
00
ENDCHAR
STARTCHAR tilde
ENCODING 732
SWIDTH 480 0
DWIDTH 8 0
BBX 8 16 0 -4
BITMAP
00
00
76
DC
00
00
00
00
00
00
00
00
00
00
00
00
ENDCHAR
STARTCHAR hungarumlaut
ENCODING 733
SWIDTH 480 0
DWIDTH 8 0
BBX 8 16 0 -4
BITMAP
00
00
66
CC
00
00
00
00
00
00
00
00
00
00
00
00
ENDCHAR
STARTCHAR uni02EE
ENCODING 750
SWIDTH 480 0
DWIDTH 8 0
BBX 8 16 0 -4
BITMAP
00
6C
6C
6C
48
00
00
00
00
00
00
00
00
00
00
00
ENDCHAR
STARTCHAR gravecomb
ENCODING 768
SWIDTH 480 0
DWIDTH 8 0
BBX 8 16 0 -4
BITMAP
00
00
60
30
00
00
00
00
00
00
00
00
00
00
00
00
ENDCHAR
STARTCHAR acutecomb
ENCODING 769
SWIDTH 480 0
DWIDTH 8 0
BBX 8 16 0 -4
BITMAP
00
00
0C
18
00
00
00
00
00
00
00
00
00
00
00
00
ENDCHAR
STARTCHAR tildecomb
ENCODING 771
SWIDTH 480 0
DWIDTH 8 0
BBX 8 16 0 -4
BITMAP
00
00
34
58
00
00
00
00
00
00
00
00
00
00
00
00
ENDCHAR
STARTCHAR hookabovecomb
ENCODING 777
SWIDTH 480 0
DWIDTH 8 0
BBX 8 16 0 -4
BITMAP
00
70
18
30
00
00
00
00
00
00
00
00
00
00
00
00
ENDCHAR
STARTCHAR uni0312
ENCODING 786
SWIDTH 480 0
DWIDTH 8 0
BBX 8 16 0 -4
BITMAP
00
18
30
30
00
00
00
00
00
00
00
00
00
00
00
00
ENDCHAR
STARTCHAR uni0313
ENCODING 787
SWIDTH 480 0
DWIDTH 8 0
BBX 8 16 0 -4
BITMAP
00
18
18
30
00
00
00
00
00
00
00
00
00
00
00
00
ENDCHAR
STARTCHAR uni0314
ENCODING 788
SWIDTH 480 0
DWIDTH 8 0
BBX 8 16 0 -4
BITMAP
00
30
30
18
00
00
00
00
00
00
00
00
00
00
00
00
ENDCHAR
STARTCHAR dotbelowcomb
ENCODING 803
SWIDTH 480 0
DWIDTH 8 0
BBX 8 16 0 -4
BITMAP
00
00
00
00
00
00
00
00
00
00
00
00
00
18
18
00
ENDCHAR
STARTCHAR uni0340
ENCODING 832
SWIDTH 480 0
DWIDTH 8 0
BBX 8 16 0 -4
BITMAP
C0
60
00
00
00
00
00
00
00
00
00
00
00
00
00
00
ENDCHAR
STARTCHAR uni0341
ENCODING 833
SWIDTH 480 0
DWIDTH 8 0
BBX 8 16 0 -4
BITMAP
03
06
00
00
00
00
00
00
00
00
00
00
00
00
00
00
ENDCHAR
STARTCHAR uni0374
ENCODING 884
SWIDTH 480 0
DWIDTH 8 0
BBX 8 16 0 -4
BITMAP
00
30
20
40
00
00
00
00
00
00
00
00
00
00
00
00
ENDCHAR
STARTCHAR uni0375
ENCODING 885
SWIDTH 480 0
DWIDTH 8 0
BBX 8 16 0 -4
BITMAP
00
00
00
00
00
00
00
00
00
00
10
20
60
00
00
00
ENDCHAR
STARTCHAR uni037A
ENCODING 890
SWIDTH 480 0
DWIDTH 8 0
BBX 8 16 0 -4
BITMAP
00
00
00
00
00
00
00
00
00
00
00
00
30
34
18
00
ENDCHAR
STARTCHAR uni037E
ENCODING 894
SWIDTH 480 0
DWIDTH 8 0
BBX 8 16 0 -4
BITMAP
00
00
00
00
18
18
00
00
00
18
18
30
00
00
00
00
ENDCHAR
STARTCHAR tonos
ENCODING 900
SWIDTH 480 0
DWIDTH 8 0
BBX 8 16 0 -4
BITMAP
60
C0
00
00
00
00
00
00
00
00
00
00
00
00
00
00
ENDCHAR
STARTCHAR dieresistonos
ENCODING 901
SWIDTH 480 0
DWIDTH 8 0
BBX 8 16 0 -4
BITMAP
0C
18
00
6C
00
00
00
00
00
00
00
00
00
00
00
00
ENDCHAR
STARTCHAR Alphatonos
ENCODING 902
SWIDTH 480 0
DWIDTH 8 0
BBX 8 16 0 -4
BITMAP
60
C0
10
38
6C
C6
C6
FE
C6
C6
C6
C6
00
00
00
00
ENDCHAR
STARTCHAR anoteleia
ENCODING 903
SWIDTH 480 0
DWIDTH 8 0
BBX 8 16 0 -4
BITMAP
00
00
00
00
00
00
00
18
18
00
00
00
00
00
00
00
ENDCHAR
STARTCHAR Epsilontonos
ENCODING 904
SWIDTH 480 0
DWIDTH 8 0
BBX 8 16 0 -4
BITMAP
60
C0
3E
32
30
34
3C
34
30
30
32
3E
00
00
00
00
ENDCHAR
STARTCHAR Etatonos
ENCODING 905
SWIDTH 480 0
DWIDTH 8 0
BBX 8 16 0 -4
BITMAP
60
C0
33
33
33
33
3F
33
33
33
33
33
00
00
00
00
ENDCHAR
STARTCHAR Iotatonos
ENCODING 906
SWIDTH 480 0
DWIDTH 8 0
BBX 8 16 0 -4
BITMAP
60
C0
3C
18
18
18
18
18
18
18
18
3C
00
00
00
00
ENDCHAR
STARTCHAR Omicrontonos
ENCODING 908
SWIDTH 480 0
DWIDTH 8 0
BBX 8 16 0 -4
BITMAP
60
C0
3C
66
66
66
66
66
66
66
66
3C
00
00
00
00
ENDCHAR
STARTCHAR Upsilontonos
ENCODING 910
SWIDTH 480 0
DWIDTH 8 0
BBX 8 16 0 -4
BITMAP
60
C0
66
66
66
66
3C
18
18
18
18
3C
00
00
00
00
ENDCHAR
STARTCHAR Omegatonos
ENCODING 911
SWIDTH 480 0
DWIDTH 8 0
BBX 8 16 0 -4
BITMAP
60
C0
3E
63
63
63
63
63
36
36
36
77
00
00
00
00
ENDCHAR
STARTCHAR iotadieresistonos
ENCODING 912
SWIDTH 480 0
DWIDTH 8 0
BBX 8 16 0 -4
BITMAP
0C
18
00
6C
00
38
18
18
18
18
18
0E
00
00
00
00
ENDCHAR
STARTCHAR Alpha
ENCODING 913
SWIDTH 480 0
DWIDTH 8 0
BBX 8 16 0 -4
BITMAP
00
00
10
38
6C
C6
C6
FE
C6
C6
C6
C6
00
00
00
00
ENDCHAR
STARTCHAR Beta
ENCODING 914
SWIDTH 480 0
DWIDTH 8 0
BBX 8 16 0 -4
BITMAP
00
00
FC
66
66
66
7C
66
66
66
66
FC
00
00
00
00
ENDCHAR
STARTCHAR Gamma
ENCODING 915
SWIDTH 480 0
DWIDTH 8 0
BBX 8 16 0 -4
BITMAP
00
00
FE
66
62
60
60
60
60
60
60
F0
00
00
00
00
ENDCHAR
STARTCHAR Delta
ENCODING 916
SWIDTH 480 0
DWIDTH 8 0
BBX 8 16 0 -4
BITMAP
00
00
10
10
38
38
6C
6C
C6
C6
C6
FE
00
00
00
00
ENDCHAR
STARTCHAR Epsilon
ENCODING 917
SWIDTH 480 0
DWIDTH 8 0
BBX 8 16 0 -4
BITMAP
00
00
FE
66
62
68
78
68
60
62
66
FE
00
00
00
00
ENDCHAR
STARTCHAR Zeta
ENCODING 918
SWIDTH 480 0
DWIDTH 8 0
BBX 8 16 0 -4
BITMAP
00
00
FE
C6
86
0C
18
30
60
C2
C6
FE
00
00
00
00
ENDCHAR
STARTCHAR Eta
ENCODING 919
SWIDTH 480 0
DWIDTH 8 0
BBX 8 16 0 -4
BITMAP
00
00
C6
C6
C6
C6
FE
C6
C6
C6
C6
C6
00
00
00
00
ENDCHAR
STARTCHAR Theta
ENCODING 920
SWIDTH 480 0
DWIDTH 8 0
BBX 8 16 0 -4
BITMAP
00
00
7C
C6
C6
C6
FE
C6
C6
C6
C6
7C
00
00
00
00
ENDCHAR
STARTCHAR Iota
ENCODING 921
SWIDTH 480 0
DWIDTH 8 0
BBX 8 16 0 -4
BITMAP
00
00
3C
18
18
18
18
18
18
18
18
3C
00
00
00
00
ENDCHAR
STARTCHAR Kappa
ENCODING 922
SWIDTH 480 0
DWIDTH 8 0
BBX 8 16 0 -4
BITMAP
00
00
E6
66
66
6C
78
78
6C
66
66
E6
00
00
00
00
ENDCHAR
STARTCHAR Lambda
ENCODING 923
SWIDTH 480 0
DWIDTH 8 0
BBX 8 16 0 -4
BITMAP
00
00
10
10
38
38
6C
6C
C6
C6
C6
C6
00
00
00
00
ENDCHAR
STARTCHAR Mu
ENCODING 924
SWIDTH 480 0
DWIDTH 8 0
BBX 8 16 0 -4
BITMAP
00
00
C6
EE
FE
FE
D6
C6
C6
C6
C6
C6
00
00
00
00
ENDCHAR
STARTCHAR Nu
ENCODING 925
SWIDTH 480 0
DWIDTH 8 0
BBX 8 16 0 -4
BITMAP
00
00
C6
E6
F6
FE
DE
CE
C6
C6
C6
C6
00
00
00
00
ENDCHAR
STARTCHAR Xi
ENCODING 926
SWIDTH 480 0
DWIDTH 8 0
BBX 8 16 0 -4
BITMAP
00
00
FE
C6
82
44
7C
44
00
82
C6
FE
00
00
00
00
ENDCHAR
STARTCHAR Omicron
ENCODING 927
SWIDTH 480 0
DWIDTH 8 0
BBX 8 16 0 -4
BITMAP
00
00
7C
C6
C6
C6
C6
C6
C6
C6
C6
7C
00
00
00
00
ENDCHAR
STARTCHAR Pi
ENCODING 928
SWIDTH 480 0
DWIDTH 8 0
BBX 8 16 0 -4
BITMAP
00
00
FE
C6
C6
C6
C6
C6
C6
C6
C6
C6
00
00
00
00
ENDCHAR
STARTCHAR Rho
ENCODING 929
SWIDTH 480 0
DWIDTH 8 0
BBX 8 16 0 -4
BITMAP
00
00
FC
66
66
66
7C
60
60
60
60
F0
00
00
00
00
ENDCHAR
STARTCHAR Sigma
ENCODING 931
SWIDTH 480 0
DWIDTH 8 0
BBX 8 16 0 -4
BITMAP
00
00
FE
C6
62
30
18
18
30
62
C6
FE
00
00
00
00
ENDCHAR
STARTCHAR Tau
ENCODING 932
SWIDTH 480 0
DWIDTH 8 0
BBX 8 16 0 -4
BITMAP
00
00
7E
7E
5A
18
18
18
18
18
18
3C
00
00
00
00
ENDCHAR
STARTCHAR Upsilon
ENCODING 933
SWIDTH 480 0
DWIDTH 8 0
BBX 8 16 0 -4
BITMAP
00
00
66
66
66
66
3C
18
18
18
18
3C
00
00
00
00
ENDCHAR
STARTCHAR Phi
ENCODING 934
SWIDTH 480 0
DWIDTH 8 0
BBX 8 16 0 -4
BITMAP
00
00
10
7C
D6
D6
D6
D6
D6
7C
10
10
00
00
00
00
ENDCHAR
STARTCHAR Chi
ENCODING 935
SWIDTH 480 0
DWIDTH 8 0
BBX 8 16 0 -4
BITMAP
00
00
C6
C6
6C
7C
38
38
7C
6C
C6
C6
00
00
00
00
ENDCHAR
STARTCHAR Psi
ENCODING 936
SWIDTH 480 0
DWIDTH 8 0
BBX 8 16 0 -4
BITMAP
00
00
10
92
D6
D6
D6
D6
D6
7C
10
10
00
00
00
00
ENDCHAR
STARTCHAR Omega
ENCODING 937
SWIDTH 480 0
DWIDTH 8 0
BBX 8 16 0 -4
BITMAP
00
00
7C
C6
C6
C6
C6
C6
6C
6C
6C
EE
00
00
00
00
ENDCHAR
STARTCHAR Iotadieresis
ENCODING 938
SWIDTH 480 0
DWIDTH 8 0
BBX 8 16 0 -4
BITMAP
66
66
00
3C
18
18
18
18
18
18
18
3C
00
00
00
00
ENDCHAR
STARTCHAR Upsilondieresis
ENCODING 939
SWIDTH 480 0
DWIDTH 8 0
BBX 8 16 0 -4
BITMAP
66
66
00
66
66
66
3C
18
18
18
18
3C
00
00
00
00
ENDCHAR
STARTCHAR alphatonos
ENCODING 940
SWIDTH 480 0
DWIDTH 8 0
BBX 8 16 0 -4
BITMAP
00
00
0C
18
00
76
CC
CC
CC
CC
CC
76
00
00
00
00
ENDCHAR
STARTCHAR epsilontonos
ENCODING 941
SWIDTH 480 0
DWIDTH 8 0
BBX 8 16 0 -4
BITMAP
00
00
0C
18
00
7C
C6
C0
78
C0
C6
7C
00
00
00
00
ENDCHAR
STARTCHAR etatonos
ENCODING 942
SWIDTH 480 0
DWIDTH 8 0
BBX 8 16 0 -4
BITMAP
00
00
0C
18
00
DC
66
66
66
66
66
66
06
06
06
00
ENDCHAR
STARTCHAR iotatonos
ENCODING 943
SWIDTH 480 0
DWIDTH 8 0
BBX 8 16 0 -4
BITMAP
00
00
0C
18
00
38
18
18
18
18
18
0E
00
00
00
00
ENDCHAR
STARTCHAR upsilondieresistonos
ENCODING 944
SWIDTH 480 0
DWIDTH 8 0
BBX 8 16 0 -4
BITMAP
0C
18
00
6C
00
CC
C6
C6
C6
C6
C6
7C
00
00
00
00
ENDCHAR
STARTCHAR alpha
ENCODING 945
SWIDTH 480 0
DWIDTH 8 0
BBX 8 16 0 -4
BITMAP
00
00
00
00
00
76
CC
CC
CC
CC
CC
76
00
00
00
00
ENDCHAR
STARTCHAR beta
ENCODING 946
SWIDTH 480 0
DWIDTH 8 0
BBX 8 16 0 -4
BITMAP
00
00
3C
66
66
66
6C
66
66
66
66
6C
60
60
60
00
ENDCHAR
STARTCHAR gamma
ENCODING 947
SWIDTH 480 0
DWIDTH 8 0
BBX 8 16 0 -4
BITMAP
00
00
00
00
00
C6
46
6C
2C
2C
38
18
18
18
18
00
ENDCHAR
STARTCHAR delta
ENCODING 948
SWIDTH 480 0
DWIDTH 8 0
BBX 8 16 0 -4
BITMAP
00
00
3C
66
30
18
7C
C6
C6
C6
C6
7C
00
00
00
00
ENDCHAR
STARTCHAR epsilon
ENCODING 949
SWIDTH 480 0
DWIDTH 8 0
BBX 8 16 0 -4
BITMAP
00
00
00
00
00
7C
C6
C0
78
C0
C6
7C
00
00
00
00
ENDCHAR
STARTCHAR zeta
ENCODING 950
SWIDTH 480 0
DWIDTH 8 0
BBX 8 16 0 -4
BITMAP
00
00
46
7C
18
30
60
60
C0
C0
C0
7C
06
06
1C
00
ENDCHAR
STARTCHAR eta
ENCODING 951
SWIDTH 480 0
DWIDTH 8 0
BBX 8 16 0 -4
BITMAP
00
00
00
00
00
DC
66
66
66
66
66
66
06
06
06
00
ENDCHAR
STARTCHAR theta
ENCODING 952
SWIDTH 480 0
DWIDTH 8 0
BBX 8 16 0 -4
BITMAP
00
00
3C
66
66
66
7E
66
66
66
66
3C
00
00
00
00
ENDCHAR
STARTCHAR iota
ENCODING 953
SWIDTH 480 0
DWIDTH 8 0
BBX 8 16 0 -4
BITMAP
00
00
00
00
00
38
18
18
18
18
18
0E
00
00
00
00
ENDCHAR
STARTCHAR kappa
ENCODING 954
SWIDTH 480 0
DWIDTH 8 0
BBX 8 16 0 -4
BITMAP
00
00
00
00
00
E6
6C
78
78
6C
66
E6
00
00
00
00
ENDCHAR
STARTCHAR lambda
ENCODING 955
SWIDTH 480 0
DWIDTH 8 0
BBX 8 16 0 -4
BITMAP
00
00
C0
20
30
10
38
38
6C
64
C6
C2
00
00
00
00
ENDCHAR
STARTCHAR mu
ENCODING 956
SWIDTH 480 0
DWIDTH 8 0
BBX 8 16 0 -4
BITMAP
00
00
00
00
00
CC
CC
CC
CC
CC
CC
F6
C0
C0
C0
00
ENDCHAR
STARTCHAR nu
ENCODING 957
SWIDTH 480 0
DWIDTH 8 0
BBX 8 16 0 -4
BITMAP
00
00
00
00
00
C6
C6
66
6C
3C
38
10
00
00
00
00
ENDCHAR
STARTCHAR xi
ENCODING 958
SWIDTH 480 0
DWIDTH 8 0
BBX 8 16 0 -4
BITMAP
00
00
66
3C
30
60
3C
60
C0
C0
C0
7C
06
06
1C
00
ENDCHAR
STARTCHAR omicron
ENCODING 959
SWIDTH 480 0
DWIDTH 8 0
BBX 8 16 0 -4
BITMAP
00
00
00
00
00
7C
C6
C6
C6
C6
C6
7C
00
00
00
00
ENDCHAR
STARTCHAR pi
ENCODING 960
SWIDTH 480 0
DWIDTH 8 0
BBX 8 16 0 -4
BITMAP
00
00
00
00
00
FE
6C
6C
6C
6C
6C
66
00
00
00
00
ENDCHAR
STARTCHAR rho
ENCODING 961
SWIDTH 480 0
DWIDTH 8 0
BBX 8 16 0 -4
BITMAP
00
00
00
00
00
3C
66
66
66
66
66
7C
60
60
60
00
ENDCHAR
STARTCHAR sigma1
ENCODING 962
SWIDTH 480 0
DWIDTH 8 0
BBX 8 16 0 -4
BITMAP
00
00
00
00
00
7C
C6
C0
C0
C0
7C
06
06
1C
00
00
ENDCHAR
STARTCHAR sigma
ENCODING 963
SWIDTH 480 0
DWIDTH 8 0
BBX 8 16 0 -4
BITMAP
00
00
00
00
00
7E
CC
CC
CC
CC
CC
78
00
00
00
00
ENDCHAR
STARTCHAR tau
ENCODING 964
SWIDTH 480 0
DWIDTH 8 0
BBX 8 16 0 -4
BITMAP
00
00
00
00
00
7E
18
18
18
18
18
0E
00
00
00
00
ENDCHAR
STARTCHAR upsilon
ENCODING 965
SWIDTH 480 0
DWIDTH 8 0
BBX 8 16 0 -4
BITMAP
00
00
00
00
00
CC
C6
C6
C6
C6
C6
7C
00
00
00
00
ENDCHAR
STARTCHAR phi
ENCODING 966
SWIDTH 480 0
DWIDTH 8 0
BBX 8 16 0 -4
BITMAP
00
00
00
00
00
6C
D6
D6
D6
D6
D6
7C
10
10
10
00
ENDCHAR
STARTCHAR chi
ENCODING 967
SWIDTH 480 0
DWIDTH 8 0
BBX 8 16 0 -4
BITMAP
00
00
00
00
00
86
46
2C
2C
18
30
68
68
C4
C2
00
ENDCHAR
STARTCHAR psi
ENCODING 968
SWIDTH 480 0
DWIDTH 8 0
BBX 8 16 0 -4
BITMAP
00
00
00
00
00
92
D6
D6
D6
D6
D6
7C
10
10
10
00
ENDCHAR
STARTCHAR omega
ENCODING 969
SWIDTH 480 0
DWIDTH 8 0
BBX 8 16 0 -4
BITMAP
00
00
00
00
00
6C
C6
D6
D6
D6
D6
6C
00
00
00
00
ENDCHAR
STARTCHAR iotadieresis
ENCODING 970
SWIDTH 480 0
DWIDTH 8 0
BBX 8 16 0 -4
BITMAP
00
00
66
66
00
38
18
18
18
18
18
0E
00
00
00
00
ENDCHAR
STARTCHAR upsilondieresis
ENCODING 971
SWIDTH 480 0
DWIDTH 8 0
BBX 8 16 0 -4
BITMAP
00
00
6C
6C
00
CC
C6
C6
C6
C6
C6
7C
00
00
00
00
ENDCHAR
STARTCHAR omicrontonos
ENCODING 972
SWIDTH 480 0
DWIDTH 8 0
BBX 8 16 0 -4
BITMAP
00
00
0C
18
00
7C
C6
C6
C6
C6
C6
7C
00
00
00
00
ENDCHAR
STARTCHAR upsilontonos
ENCODING 973
SWIDTH 480 0
DWIDTH 8 0
BBX 8 16 0 -4
BITMAP
00
00
0C
18
00
CC
C6
C6
C6
C6
C6
7C
00
00
00
00
ENDCHAR
STARTCHAR omegatonos
ENCODING 974
SWIDTH 480 0
DWIDTH 8 0
BBX 8 16 0 -4
BITMAP
00
00
0C
18
00
6C
C6
D6
D6
D6
D6
6C
00
00
00
00
ENDCHAR
STARTCHAR uni03D0
ENCODING 976
SWIDTH 480 0
DWIDTH 8 0
BBX 8 16 0 -4
BITMAP
00
00
3C
66
66
6C
7C
66
66
66
66
3C
00
00
00
00
ENDCHAR
STARTCHAR theta1
ENCODING 977
SWIDTH 480 0
DWIDTH 8 0
BBX 8 16 0 -4
BITMAP
00
00
3C
66
66
36
1E
C6
66
66
66
3C
00
00
00
00
ENDCHAR
STARTCHAR Upsilon1
ENCODING 978
SWIDTH 480 0
DWIDTH 8 0
BBX 8 16 0 -4
BITMAP
00
00
C2
65
24
38
18
18
18
18
18
3C
00
00
00
00
ENDCHAR
STARTCHAR uni03D3
ENCODING 979
SWIDTH 480 0
DWIDTH 8 0
BBX 8 16 0 -4
BITMAP
60
C0
21
32
12
1C
0C
0C
0C
0C
0C
1E
00
00
00
00
ENDCHAR
STARTCHAR uni03D4
ENCODING 980
SWIDTH 480 0
DWIDTH 8 0
BBX 8 16 0 -4
BITMAP
6C
6C
00
C2
65
24
38
18
18
18
18
3C
00
00
00
00
ENDCHAR
STARTCHAR phi1
ENCODING 981
SWIDTH 480 0
DWIDTH 8 0
BBX 8 16 0 -4
BITMAP
00
00
10
10
10
7C
D6
D6
D6
D6
D6
7C
10
10
10
00
ENDCHAR
STARTCHAR omega1
ENCODING 982
SWIDTH 480 0
DWIDTH 8 0
BBX 8 16 0 -4
BITMAP
00
00
00
00
00
FE
6C
C6
D6
D6
D6
6C
00
00
00
00
ENDCHAR
STARTCHAR uni03D7
ENCODING 983
SWIDTH 480 0
DWIDTH 8 0
BBX 8 16 0 -4
BITMAP
00
00
00
00
00
46
A6
2C
38
68
CA
C4
0C
18
00
00
ENDCHAR
STARTCHAR uni03DA
ENCODING 986
SWIDTH 480 0
DWIDTH 8 0
BBX 8 16 0 -4
BITMAP
00
00
3C
66
C2
C0
C0
C0
C0
60
3C
06
06
1C
00
00
ENDCHAR
STARTCHAR uni03DB
ENCODING 987
SWIDTH 480 0
DWIDTH 8 0
BBX 8 16 0 -4
BITMAP
00
00
00
00
00
7E
C0
C0
C0
C0
C0
7C
06
06
1C
00
ENDCHAR
STARTCHAR uni03DC
ENCODING 988
SWIDTH 480 0
DWIDTH 8 0
BBX 8 16 0 -4
BITMAP
00
00
FE
66
62
60
78
68
60
60
60
F0
00
00
00
00
ENDCHAR
STARTCHAR uni03DD
ENCODING 989
SWIDTH 480 0
DWIDTH 8 0
BBX 8 16 0 -4
BITMAP
00
00
00
00
00
7E
32
30
30
3C
34
30
30
30
30
00
ENDCHAR
STARTCHAR uni03DE
ENCODING 990
SWIDTH 480 0
DWIDTH 8 0
BBX 8 16 0 -4
BITMAP
00
60
30
30
60
63
FF
C6
06
0C
0C
06
00
00
00
00
ENDCHAR
STARTCHAR uni03DF
ENCODING 991
SWIDTH 480 0
DWIDTH 8 0
BBX 8 16 0 -4
BITMAP
00
00
30
30
60
60
FE
FE
0C
0C
18
18
00
00
00
00
ENDCHAR
STARTCHAR uni03E0
ENCODING 992
SWIDTH 480 0
DWIDTH 8 0
BBX 8 16 0 -4
BITMAP
00
00
78
AC
26
26
0B
0B
1B
1B
1B
1B
03
02
04
00
ENDCHAR
STARTCHAR uni03E1
ENCODING 993
SWIDTH 480 0
DWIDTH 8 0
BBX 8 16 0 -4
BITMAP
00
00
00
00
C0
60
30
18
28
4C
14
24
06
02
02
00
ENDCHAR
STARTCHAR uni03E2
ENCODING 994
SWIDTH 480 0
DWIDTH 8 0
BBX 8 16 0 -4
BITMAP
00
00
DB
DB
DB
DB
DB
DB
DB
DB
DB
6D
03
3E
00
00
ENDCHAR
STARTCHAR uni03E3
ENCODING 995
SWIDTH 480 0
DWIDTH 8 0
BBX 8 16 0 -4
BITMAP
00
00
00
00
00
DB
DB
DB
DB
DB
DB
6D
03
7E
00
00
ENDCHAR
STARTCHAR uni03E4
ENCODING 996
SWIDTH 480 0
DWIDTH 8 0
BBX 8 16 0 -4
BITMAP
00
00
76
D6
C6
C6
C6
7E
06
06
06
06
00
00
00
00
ENDCHAR
STARTCHAR uni03E5
ENCODING 997
SWIDTH 480 0
DWIDTH 8 0
BBX 8 16 0 -4
BITMAP
00
00
36
66
66
66
66
3E
06
06
06
06
00
00
00
00
ENDCHAR
STARTCHAR uni03E6
ENCODING 998
SWIDTH 480 0
DWIDTH 8 0
BBX 8 16 0 -4
BITMAP
00
00
C0
C0
C0
C0
FC
C6
C6
C6
C6
C6
06
76
9C
00
ENDCHAR
STARTCHAR uni03E7
ENCODING 999
SWIDTH 480 0
DWIDTH 8 0
BBX 8 16 0 -4
BITMAP
00
00
00
00
08
7C
D6
66
06
06
66
BC
00
00
00
00
ENDCHAR
STARTCHAR uni03E8
ENCODING 1000
SWIDTH 480 0
DWIDTH 8 0
BBX 8 16 0 -4
BITMAP
00
00
7C
C6
C6
06
3C
60
C6
C6
C6
7C
00
00
00
00
ENDCHAR
STARTCHAR uni03E9
ENCODING 1001
SWIDTH 480 0
DWIDTH 8 0
BBX 8 16 0 -4
BITMAP
00
00
3C
66
66
26
1C
70
C0
C2
C6
7C
00
00
00
00
ENDCHAR
STARTCHAR uni03EA
ENCODING 1002
SWIDTH 480 0
DWIDTH 8 0
BBX 8 16 0 -4
BITMAP
00
00
C6
68
38
30
38
38
4C
4C
86
FE
00
00
00
00
ENDCHAR
STARTCHAR uni03EB
ENCODING 1003
SWIDTH 480 0
DWIDTH 8 0
BBX 8 16 0 -4
BITMAP
00
00
00
00
00
64
BA
30
38
28
4C
7C
00
00
00
00
ENDCHAR
STARTCHAR uni03EC
ENCODING 1004
SWIDTH 480 0
DWIDTH 8 0
BBX 8 16 0 -4
BITMAP
00
00
7E
C0
CC
D6
C6
C6
C6
C6
C6
7C
00
00
00
00
ENDCHAR
STARTCHAR uni03ED
ENCODING 1005
SWIDTH 480 0
DWIDTH 8 0
BBX 8 16 0 -4
BITMAP
00
00
00
00
00
7E
C0
DC
C6
C6
C6
7C
00
00
00
00
ENDCHAR
STARTCHAR uni03EE
ENCODING 1006
SWIDTH 480 0
DWIDTH 8 0
BBX 8 16 0 -4
BITMAP
00
00
3C
18
7E
99
18
18
18
18
18
3C
00
00
00
00
ENDCHAR
STARTCHAR uni03EF
ENCODING 1007
SWIDTH 480 0
DWIDTH 8 0
BBX 8 16 0 -4
BITMAP
00
00
18
1C
18
7E
58
18
18
18
38
18
00
00
00
00
ENDCHAR
STARTCHAR uni03F0
ENCODING 1008
SWIDTH 480 0
DWIDTH 8 0
BBX 8 16 0 -4
BITMAP
00
00
00
00
00
46
A6
2C
38
68
CA
C4
00
00
00
00
ENDCHAR
STARTCHAR uni03F1
ENCODING 1009
SWIDTH 480 0
DWIDTH 8 0
BBX 8 16 0 -4
BITMAP
00
00
00
00
00
7C
C6
C6
C6
C6
FC
C0
60
3C
06
00
ENDCHAR
STARTCHAR uni03F2
ENCODING 1010
SWIDTH 480 0
DWIDTH 8 0
BBX 8 16 0 -4
BITMAP
00
00
00
00
00
7C
C6
C0
C0
C0
C6
7C
00
00
00
00
ENDCHAR
STARTCHAR uni03F3
ENCODING 1011
SWIDTH 480 0
DWIDTH 8 0
BBX 8 16 0 -4
BITMAP
00
00
06
06
00
0E
06
06
06
06
06
06
66
66
3C
00
ENDCHAR
STARTCHAR uni0400
ENCODING 1024
SWIDTH 480 0
DWIDTH 8 0
BBX 8 16 0 -4
BITMAP
30
18
00
FE
66
62
68
78
68
62
66
FE
00
00
00
00
ENDCHAR
STARTCHAR afii10023
ENCODING 1025
SWIDTH 480 0
DWIDTH 8 0
BBX 8 16 0 -4
BITMAP
6C
6C
00
FE
66
62
68
78
68
62
66
FE
00
00
00
00
ENDCHAR
STARTCHAR afii10051
ENCODING 1026
SWIDTH 480 0
DWIDTH 8 0
BBX 8 16 0 -4
BITMAP
00
00
FE
B2
30
3E
33
33
33
33
33
33
03
06
00
00
ENDCHAR
STARTCHAR afii10052
ENCODING 1027
SWIDTH 480 0
DWIDTH 8 0
BBX 8 16 0 -4
BITMAP
0C
18
00
FE
66
62
60
60
60
60
60
F0
00
00
00
00
ENDCHAR
STARTCHAR afii10053
ENCODING 1028
SWIDTH 480 0
DWIDTH 8 0
BBX 8 16 0 -4
BITMAP
00
00
3C
66
C2
C0
F8
C0
C0
C2
66
3C
00
00
00
00
ENDCHAR
STARTCHAR afii10054
ENCODING 1029
SWIDTH 480 0
DWIDTH 8 0
BBX 8 16 0 -4
BITMAP
00
00
7C
C6
C6
60
38
0C
06
C6
C6
7C
00
00
00
00
ENDCHAR
STARTCHAR afii10055
ENCODING 1030
SWIDTH 480 0
DWIDTH 8 0
BBX 8 16 0 -4
BITMAP
00
00
3C
18
18
18
18
18
18
18
18
3C
00
00
00
00
ENDCHAR
STARTCHAR afii10056
ENCODING 1031
SWIDTH 480 0
DWIDTH 8 0
BBX 8 16 0 -4
BITMAP
66
66
00
3C
18
18
18
18
18
18
18
3C
00
00
00
00
ENDCHAR
STARTCHAR afii10057
ENCODING 1032
SWIDTH 480 0
DWIDTH 8 0
BBX 8 16 0 -4
BITMAP
00
00
1E
0C
0C
0C
0C
0C
CC
CC
CC
78
00
00
00
00
ENDCHAR
STARTCHAR afii10058
ENCODING 1033
SWIDTH 480 0
DWIDTH 8 0
BBX 8 16 0 -4
BITMAP
00
00
78
D8
D8
D8
DE
DB
DB
DB
DB
DE
00
00
00
00
ENDCHAR
STARTCHAR afii10059
ENCODING 1034
SWIDTH 480 0
DWIDTH 8 0
BBX 8 16 0 -4
BITMAP
00
00
D8
D8
D8
D8
FE
DB
DB
DB
DB
DE
00
00
00
00
ENDCHAR
STARTCHAR afii10060
ENCODING 1035
SWIDTH 480 0
DWIDTH 8 0
BBX 8 16 0 -4
BITMAP
00
00
FE
B2
30
3E
33
33
33
33
33
33
00
00
00
00
ENDCHAR
STARTCHAR afii10061
ENCODING 1036
SWIDTH 480 0
DWIDTH 8 0
BBX 8 16 0 -4
BITMAP
0C
18
00
E6
66
66
6C
78
6C
66
66
E6
00
00
00
00
ENDCHAR
STARTCHAR uni040D
ENCODING 1037
SWIDTH 480 0
DWIDTH 8 0
BBX 8 16 0 -4
BITMAP
30
18
00
C6
C6
CE
DE
FE
F6
E6
C6
C6
00
00
00
00
ENDCHAR
STARTCHAR afii10062
ENCODING 1038
SWIDTH 480 0
DWIDTH 8 0
BBX 8 16 0 -4
BITMAP
6C
38
00
C6
C6
C6
C6
7E
06
06
C6
7C
00
00
00
00
ENDCHAR
STARTCHAR afii10145
ENCODING 1039
SWIDTH 480 0
DWIDTH 8 0
BBX 8 16 0 -4
BITMAP
00
00
C6
C6
C6
C6
C6
C6
C6
C6
C6
FE
38
10
10
00
ENDCHAR
STARTCHAR afii10017
ENCODING 1040
SWIDTH 480 0
DWIDTH 8 0
BBX 8 16 0 -4
BITMAP
00
00
10
38
6C
C6
C6
FE
C6
C6
C6
C6
00
00
00
00
ENDCHAR
STARTCHAR afii10018
ENCODING 1041
SWIDTH 480 0
DWIDTH 8 0
BBX 8 16 0 -4
BITMAP
00
00
FE
66
62
60
7C
66
66
66
66
FC
00
00
00
00
ENDCHAR
STARTCHAR afii10019
ENCODING 1042
SWIDTH 480 0
DWIDTH 8 0
BBX 8 16 0 -4
BITMAP
00
00
FC
66
66
66
7C
66
66
66
66
FC
00
00
00
00
ENDCHAR
STARTCHAR afii10020
ENCODING 1043
SWIDTH 480 0
DWIDTH 8 0
BBX 8 16 0 -4
BITMAP
00
00
FE
66
62
60
60
60
60
60
60
F0
00
00
00
00
ENDCHAR
STARTCHAR afii10021
ENCODING 1044
SWIDTH 480 0
DWIDTH 8 0
BBX 8 16 0 -4
BITMAP
00
00
3C
6C
6C
6C
6C
6C
6C
6C
6C
FE
C6
82
00
00
ENDCHAR
STARTCHAR afii10022
ENCODING 1045
SWIDTH 480 0
DWIDTH 8 0
BBX 8 16 0 -4
BITMAP
00
00
FE
66
62
68
78
68
60
62
66
FE
00
00
00
00
ENDCHAR
STARTCHAR afii10024
ENCODING 1046
SWIDTH 480 0
DWIDTH 8 0
BBX 8 16 0 -4
BITMAP
00
00
D6
D6
D6
7C
38
7C
D6
D6
D6
D6
00
00
00
00
ENDCHAR
STARTCHAR afii10025
ENCODING 1047
SWIDTH 480 0
DWIDTH 8 0
BBX 8 16 0 -4
BITMAP
00
00
7C
C6
86
06
3C
06
06
86
C6
7C
00
00
00
00
ENDCHAR
STARTCHAR afii10026
ENCODING 1048
SWIDTH 480 0
DWIDTH 8 0
BBX 8 16 0 -4
BITMAP
00
00
C6
C6
C6
CE
DE
FE
F6
E6
C6
C6
00
00
00
00
ENDCHAR
STARTCHAR afii10027
ENCODING 1049
SWIDTH 480 0
DWIDTH 8 0
BBX 8 16 0 -4
BITMAP
6C
38
C6
C6
C6
CE
DE
FE
F6
E6
C6
C6
00
00
00
00
ENDCHAR
STARTCHAR afii10028
ENCODING 1050
SWIDTH 480 0
DWIDTH 8 0
BBX 8 16 0 -4
BITMAP
00
00
E6
66
66
6C
78
78
6C
66
66
E6
00
00
00
00
ENDCHAR
STARTCHAR afii10029
ENCODING 1051
SWIDTH 480 0
DWIDTH 8 0
BBX 8 16 0 -4
BITMAP
00
00
3E
66
66
66
66
66
66
66
66
C6
00
00
00
00
ENDCHAR
STARTCHAR afii10030
ENCODING 1052
SWIDTH 480 0
DWIDTH 8 0
BBX 8 16 0 -4
BITMAP
00
00
C6
EE
FE
FE
D6
C6
C6
C6
C6
C6
00
00
00
00
ENDCHAR
STARTCHAR afii10031
ENCODING 1053
SWIDTH 480 0
DWIDTH 8 0
BBX 8 16 0 -4
BITMAP
00
00
C6
C6
C6
C6
FE
C6
C6
C6
C6
C6
00
00
00
00
ENDCHAR
STARTCHAR afii10032
ENCODING 1054
SWIDTH 480 0
DWIDTH 8 0
BBX 8 16 0 -4
BITMAP
00
00
7C
C6
C6
C6
C6
C6
C6
C6
C6
7C
00
00
00
00
ENDCHAR
STARTCHAR afii10033
ENCODING 1055
SWIDTH 480 0
DWIDTH 8 0
BBX 8 16 0 -4
BITMAP
00
00
FE
C6
C6
C6
C6
C6
C6
C6
C6
C6
00
00
00
00
ENDCHAR
STARTCHAR afii10034
ENCODING 1056
SWIDTH 480 0
DWIDTH 8 0
BBX 8 16 0 -4
BITMAP
00
00
FC
66
66
66
7C
60
60
60
60
F0
00
00
00
00
ENDCHAR
STARTCHAR afii10035
ENCODING 1057
SWIDTH 480 0
DWIDTH 8 0
BBX 8 16 0 -4
BITMAP
00
00
3C
66
C2
C0
C0
C0
C0
C2
66
3C
00
00
00
00
ENDCHAR
STARTCHAR afii10036
ENCODING 1058
SWIDTH 480 0
DWIDTH 8 0
BBX 8 16 0 -4
BITMAP
00
00
7E
7E
5A
18
18
18
18
18
18
3C
00
00
00
00
ENDCHAR
STARTCHAR afii10037
ENCODING 1059
SWIDTH 480 0
DWIDTH 8 0
BBX 8 16 0 -4
BITMAP
00
00
C6
C6
C6
C6
C6
7E
06
06
C6
7C
00
00
00
00
ENDCHAR
STARTCHAR afii10038
ENCODING 1060
SWIDTH 480 0
DWIDTH 8 0
BBX 8 16 0 -4
BITMAP
00
00
10
7C
D6
D6
D6
D6
D6
7C
10
10
00
00
00
00
ENDCHAR
STARTCHAR afii10039
ENCODING 1061
SWIDTH 480 0
DWIDTH 8 0
BBX 8 16 0 -4
BITMAP
00
00
C6
C6
6C
7C
38
38
7C
6C
C6
C6
00
00
00
00
ENDCHAR
STARTCHAR afii10040
ENCODING 1062
SWIDTH 480 0
DWIDTH 8 0
BBX 8 16 0 -4
BITMAP
00
00
CC
CC
CC
CC
CC
CC
CC
CC
CC
FE
06
02
00
00
ENDCHAR
STARTCHAR afii10041
ENCODING 1063
SWIDTH 480 0
DWIDTH 8 0
BBX 8 16 0 -4
BITMAP
00
00
C6
C6
C6
C6
C6
7E
06
06
06
06
00
00
00
00
ENDCHAR
STARTCHAR afii10042
ENCODING 1064
SWIDTH 480 0
DWIDTH 8 0
BBX 8 16 0 -4
BITMAP
00
00
C6
D6
D6
D6
D6
D6
D6
D6
D6
FE
00
00
00
00
ENDCHAR
STARTCHAR afii10043
ENCODING 1065
SWIDTH 480 0
DWIDTH 8 0
BBX 8 16 0 -4
BITMAP
00
00
C6
D6
D6
D6
D6
D6
D6
D6
D6
FF
03
01
00
00
ENDCHAR
STARTCHAR afii10044
ENCODING 1066
SWIDTH 480 0
DWIDTH 8 0
BBX 8 16 0 -4
BITMAP
00
00
F8
B0
B0
30
3C
36
36
36
36
7C
00
00
00
00
ENDCHAR
STARTCHAR afii10045
ENCODING 1067
SWIDTH 480 0
DWIDTH 8 0
BBX 8 16 0 -4
BITMAP
00
00
C3
C3
C3
C3
F3
DB
DB
DB
DB
F3
00
00
00
00
ENDCHAR
STARTCHAR afii10046
ENCODING 1068
SWIDTH 480 0
DWIDTH 8 0
BBX 8 16 0 -4
BITMAP
00
00
F0
60
60
60
7C
66
66
66
66
FC
00
00
00
00
ENDCHAR
STARTCHAR afii10047
ENCODING 1069
SWIDTH 480 0
DWIDTH 8 0
BBX 8 16 0 -4
BITMAP
00
00
78
CC
86
06
3E
06
06
86
CC
78
00
00
00
00
ENDCHAR
STARTCHAR afii10048
ENCODING 1070
SWIDTH 480 0
DWIDTH 8 0
BBX 8 16 0 -4
BITMAP
00
00
9C
B6
B6
B6
F6
B6
B6
B6
B6
9C
00
00
00
00
ENDCHAR
STARTCHAR afii10049
ENCODING 1071
SWIDTH 480 0
DWIDTH 8 0
BBX 8 16 0 -4
BITMAP
00
00
7E
CC
CC
CC
7C
6C
6C
6C
6C
CE
00
00
00
00
ENDCHAR
STARTCHAR afii10065
ENCODING 1072
SWIDTH 480 0
DWIDTH 8 0
BBX 8 16 0 -4
BITMAP
00
00
00
00
00
78
0C
7C
CC
CC
CC
76
00
00
00
00
ENDCHAR
STARTCHAR afii10066
ENCODING 1073
SWIDTH 480 0
DWIDTH 8 0
BBX 8 16 0 -4
BITMAP
00
00
06
7C
C0
C0
FC
C6
C6
C6
C6
7C
00
00
00
00
ENDCHAR
STARTCHAR afii10067
ENCODING 1074
SWIDTH 480 0
DWIDTH 8 0
BBX 8 16 0 -4
BITMAP
00
00
00
00
00
FC
66
66
7C
66
66
FC
00
00
00
00
ENDCHAR
STARTCHAR afii10068
ENCODING 1075
SWIDTH 480 0
DWIDTH 8 0
BBX 8 16 0 -4
BITMAP
00
00
00
00
00
FE
66
62
60
60
60
F0
00
00
00
00
ENDCHAR
STARTCHAR afii10069
ENCODING 1076
SWIDTH 480 0
DWIDTH 8 0
BBX 8 16 0 -4
BITMAP
00
00
00
00
00
3C
6C
6C
6C
6C
6C
FE
C6
82
00
00
ENDCHAR
STARTCHAR afii10070
ENCODING 1077
SWIDTH 480 0
DWIDTH 8 0
BBX 8 16 0 -4
BITMAP
00
00
00
00
00
7C
C6
FE
C0
C0
C6
7C
00
00
00
00
ENDCHAR
STARTCHAR afii10072
ENCODING 1078
SWIDTH 480 0
DWIDTH 8 0
BBX 8 16 0 -4
BITMAP
00
00
00
00
00
D6
D6
D6
7C
D6
D6
D6
00
00
00
00
ENDCHAR
STARTCHAR afii10073
ENCODING 1079
SWIDTH 480 0
DWIDTH 8 0
BBX 8 16 0 -4
BITMAP
00
00
00
00
00
7C
C6
06
3C
06
C6
7C
00
00
00
00
ENDCHAR
STARTCHAR afii10074
ENCODING 1080
SWIDTH 480 0
DWIDTH 8 0
BBX 8 16 0 -4
BITMAP
00
00
00
00
00
C6
CE
DE
FE
F6
E6
C6
00
00
00
00
ENDCHAR
STARTCHAR afii10075
ENCODING 1081
SWIDTH 480 0
DWIDTH 8 0
BBX 8 16 0 -4
BITMAP
00
00
6C
38
00
C6
CE
DE
FE
F6
E6
C6
00
00
00
00
ENDCHAR
STARTCHAR afii10076
ENCODING 1082
SWIDTH 480 0
DWIDTH 8 0
BBX 8 16 0 -4
BITMAP
00
00
00
00
00
E6
6C
78
78
6C
66
E6
00
00
00
00
ENDCHAR
STARTCHAR afii10077
ENCODING 1083
SWIDTH 480 0
DWIDTH 8 0
BBX 8 16 0 -4
BITMAP
00
00
00
00
00
3E
66
66
66
66
66
C6
00
00
00
00
ENDCHAR
STARTCHAR afii10078
ENCODING 1084
SWIDTH 480 0
DWIDTH 8 0
BBX 8 16 0 -4
BITMAP
00
00
00
00
00
C6
EE
FE
FE
D6
C6
C6
00
00
00
00
ENDCHAR
STARTCHAR afii10079
ENCODING 1085
SWIDTH 480 0
DWIDTH 8 0
BBX 8 16 0 -4
BITMAP
00
00
00
00
00
C6
C6
C6
FE
C6
C6
C6
00
00
00
00
ENDCHAR
STARTCHAR afii10080
ENCODING 1086
SWIDTH 480 0
DWIDTH 8 0
BBX 8 16 0 -4
BITMAP
00
00
00
00
00
7C
C6
C6
C6
C6
C6
7C
00
00
00
00
ENDCHAR
STARTCHAR afii10081
ENCODING 1087
SWIDTH 480 0
DWIDTH 8 0
BBX 8 16 0 -4
BITMAP
00
00
00
00
00
FE
C6
C6
C6
C6
C6
C6
00
00
00
00
ENDCHAR
STARTCHAR afii10082
ENCODING 1088
SWIDTH 480 0
DWIDTH 8 0
BBX 8 16 0 -4
BITMAP
00
00
00
00
00
DC
66
66
66
66
66
7C
60
60
F0
00
ENDCHAR
STARTCHAR afii10083
ENCODING 1089
SWIDTH 480 0
DWIDTH 8 0
BBX 8 16 0 -4
BITMAP
00
00
00
00
00
7C
C6
C0
C0
C0
C6
7C
00
00
00
00
ENDCHAR
STARTCHAR afii10084
ENCODING 1090
SWIDTH 480 0
DWIDTH 8 0
BBX 8 16 0 -4
BITMAP
00
00
00
00
00
7E
5A
18
18
18
18
3C
00
00
00
00
ENDCHAR
STARTCHAR afii10085
ENCODING 1091
SWIDTH 480 0
DWIDTH 8 0
BBX 8 16 0 -4
BITMAP
00
00
00
00
00
C6
C6
C6
C6
C6
C6
7E
06
0C
F8
00
ENDCHAR
STARTCHAR afii10086
ENCODING 1092
SWIDTH 480 0
DWIDTH 8 0
BBX 8 16 0 -4
BITMAP
00
00
00
00
10
7C
D6
D6
D6
D6
D6
7C
10
10
10
00
ENDCHAR
STARTCHAR afii10087
ENCODING 1093
SWIDTH 480 0
DWIDTH 8 0
BBX 8 16 0 -4
BITMAP
00
00
00
00
00
C6
6C
38
38
38
6C
C6
00
00
00
00
ENDCHAR
STARTCHAR afii10088
ENCODING 1094
SWIDTH 480 0
DWIDTH 8 0
BBX 8 16 0 -4
BITMAP
00
00
00
00
00
CC
CC
CC
CC
CC
CC
FE
06
02
00
00
ENDCHAR
STARTCHAR afii10089
ENCODING 1095
SWIDTH 480 0
DWIDTH 8 0
BBX 8 16 0 -4
BITMAP
00
00
00
00
00
C6
C6
C6
7E
06
06
06
00
00
00
00
ENDCHAR
STARTCHAR afii10090
ENCODING 1096
SWIDTH 480 0
DWIDTH 8 0
BBX 8 16 0 -4
BITMAP
00
00
00
00
00
C6
D6
D6
D6
D6
D6
FE
00
00
00
00
ENDCHAR
STARTCHAR afii10091
ENCODING 1097
SWIDTH 480 0
DWIDTH 8 0
BBX 8 16 0 -4
BITMAP
00
00
00
00
00
C6
D6
D6
D6
D6
D6
FF
03
01
00
00
ENDCHAR
STARTCHAR afii10092
ENCODING 1098
SWIDTH 480 0
DWIDTH 8 0
BBX 8 16 0 -4
BITMAP
00
00
00
00
00
F8
B0
30
3C
36
36
7C
00
00
00
00
ENDCHAR
STARTCHAR afii10093
ENCODING 1099
SWIDTH 480 0
DWIDTH 8 0
BBX 8 16 0 -4
BITMAP
00
00
00
00
00
C3
C3
C3
F3
DB
DB
F3
00
00
00
00
ENDCHAR
STARTCHAR afii10094
ENCODING 1100
SWIDTH 480 0
DWIDTH 8 0
BBX 8 16 0 -4
BITMAP
00
00
00
00
00
F0
60
60
7C
66
66
FC
00
00
00
00
ENDCHAR
STARTCHAR afii10095
ENCODING 1101
SWIDTH 480 0
DWIDTH 8 0
BBX 8 16 0 -4
BITMAP
00
00
00
00
00
7C
C6
06
3E
06
C6
7C
00
00
00
00
ENDCHAR
STARTCHAR afii10096
ENCODING 1102
SWIDTH 480 0
DWIDTH 8 0
BBX 8 16 0 -4
BITMAP
00
00
00
00
00
9C
B6
B6
F6
B6
B6
9C
00
00
00
00
ENDCHAR
STARTCHAR afii10097
ENCODING 1103
SWIDTH 480 0
DWIDTH 8 0
BBX 8 16 0 -4
BITMAP
00
00
00
00
00
7E
CC
CC
7C
6C
6C
CE
00
00
00
00
ENDCHAR
STARTCHAR uni0450
ENCODING 1104
SWIDTH 480 0
DWIDTH 8 0
BBX 8 16 0 -4
BITMAP
00
00
60
30
00
7C
C6
FE
C0
C0
C6
7C
00
00
00
00
ENDCHAR
STARTCHAR afii10071
ENCODING 1105
SWIDTH 480 0
DWIDTH 8 0
BBX 8 16 0 -4
BITMAP
00
00
6C
6C
00
7C
C6
FE
C0
C0
C6
7C
00
00
00
00
ENDCHAR
STARTCHAR afii10099
ENCODING 1106
SWIDTH 480 0
DWIDTH 8 0
BBX 8 16 0 -4
BITMAP
00
00
60
F8
60
6C
76
66
66
66
66
E6
06
06
1C
00
ENDCHAR
STARTCHAR afii10100
ENCODING 1107
SWIDTH 480 0
DWIDTH 8 0
BBX 8 16 0 -4
BITMAP
00
00
0C
18
00
FE
66
62
60
60
60
F0
00
00
00
00
ENDCHAR
STARTCHAR afii10101
ENCODING 1108
SWIDTH 480 0
DWIDTH 8 0
BBX 8 16 0 -4
BITMAP
00
00
00
00
00
7C
C6
C0
F8
C0
C6
7C
00
00
00
00
ENDCHAR
STARTCHAR afii10102
ENCODING 1109
SWIDTH 480 0
DWIDTH 8 0
BBX 8 16 0 -4
BITMAP
00
00
00
00
00
7C
C6
60
38
0C
C6
7C
00
00
00
00
ENDCHAR
STARTCHAR afii10103
ENCODING 1110
SWIDTH 480 0
DWIDTH 8 0
BBX 8 16 0 -4
BITMAP
00
00
18
18
00
38
18
18
18
18
18
3C
00
00
00
00
ENDCHAR
STARTCHAR afii10104
ENCODING 1111
SWIDTH 480 0
DWIDTH 8 0
BBX 8 16 0 -4
BITMAP
00
00
66
66
00
38
18
18
18
18
18
3C
00
00
00
00
ENDCHAR
STARTCHAR afii10105
ENCODING 1112
SWIDTH 480 0
DWIDTH 8 0
BBX 8 16 0 -4
BITMAP
00
00
06
06
00
0E
06
06
06
06
06
06
66
66
3C
00
ENDCHAR
STARTCHAR afii10106
ENCODING 1113
SWIDTH 480 0
DWIDTH 8 0
BBX 8 16 0 -4
BITMAP
00
00
00
00
00
78
D8
D8
DE
DB
DB
DE
00
00
00
00
ENDCHAR
STARTCHAR afii10107
ENCODING 1114
SWIDTH 480 0
DWIDTH 8 0
BBX 8 16 0 -4
BITMAP
00
00
00
00
00
D8
D8
D8
FE
DB
DB
DE
00
00
00
00
ENDCHAR
STARTCHAR afii10108
ENCODING 1115
SWIDTH 480 0
DWIDTH 8 0
BBX 8 16 0 -4
BITMAP
00
00
60
F8
60
6C
76
66
66
66
66
E6
00
00
00
00
ENDCHAR
STARTCHAR afii10109
ENCODING 1116
SWIDTH 480 0
DWIDTH 8 0
BBX 8 16 0 -4
BITMAP
00
00
0C
18
00
E6
6C
78
78
6C
66
E6
00
00
00
00
ENDCHAR
STARTCHAR uni045D
ENCODING 1117
SWIDTH 480 0
DWIDTH 8 0
BBX 8 16 0 -4
BITMAP
00
00
60
30
00
C6
CE
DE
FE
F6
E6
C6
00
00
00
00
ENDCHAR
STARTCHAR afii10110
ENCODING 1118
SWIDTH 480 0
DWIDTH 8 0
BBX 8 16 0 -4
BITMAP
00
00
6C
38
00
C6
C6
C6
C6
C6
C6
7E
06
0C
F8
00
ENDCHAR
STARTCHAR afii10193
ENCODING 1119
SWIDTH 480 0
DWIDTH 8 0
BBX 8 16 0 -4
BITMAP
00
00
00
00
00
C6
C6
C6
C6
C6
C6
FE
38
10
10
00
ENDCHAR
STARTCHAR uni0460
ENCODING 1120
SWIDTH 480 0
DWIDTH 8 0
BBX 8 16 0 -4
BITMAP
00
00
6C
C6
C6
D6
D6
D6
D6
D6
FE
6C
00
00
00
00
ENDCHAR
STARTCHAR uni0461
ENCODING 1121
SWIDTH 480 0
DWIDTH 8 0
BBX 8 16 0 -4
BITMAP
00
00
00
00
00
6C
C6
D6
D6
D6
FE
6C
00
00
00
00
ENDCHAR
STARTCHAR afii10146
ENCODING 1122
SWIDTH 480 0
DWIDTH 8 0
BBX 8 16 0 -4
BITMAP
00
00
30
FC
B4
30
3C
36
36
36
36
7C
00
00
00
00
ENDCHAR
STARTCHAR afii10194
ENCODING 1123
SWIDTH 480 0
DWIDTH 8 0
BBX 8 16 0 -4
BITMAP
00
00
30
30
30
FC
B4
30
3C
36
36
7C
00
00
00
00
ENDCHAR
STARTCHAR uni0464
ENCODING 1124
SWIDTH 480 0
DWIDTH 8 0
BBX 8 16 0 -4
BITMAP
00
00
CE
DB
D9
D8
FE
D8
D8
D9
DB
CE
00
00
00
00
ENDCHAR
STARTCHAR uni0465
ENCODING 1125
SWIDTH 480 0
DWIDTH 8 0
BBX 8 16 0 -4
BITMAP
00
00
00
00
00
CE
DB
D8
FE
D8
DB
CE
00
00
00
00
ENDCHAR
STARTCHAR uni0466
ENCODING 1126
SWIDTH 480 0
DWIDTH 8 0
BBX 8 16 0 -4
BITMAP
00
00
10
38
38
6C
6C
6C
FE
D6
D6
D6
00
00
00
00
ENDCHAR
STARTCHAR uni0467
ENCODING 1127
SWIDTH 480 0
DWIDTH 8 0
BBX 8 16 0 -4
BITMAP
00
00
00
00
00
10
38
38
6C
7C
D6
D6
00
00
00
00
ENDCHAR
STARTCHAR uni0468
ENCODING 1128
SWIDTH 480 0
DWIDTH 8 0
BBX 8 16 0 -4
BITMAP
00
00
88
8C
9C
96
F6
B6
BF
AB
EB
EB
00
00
00
00
ENDCHAR
STARTCHAR uni0469
ENCODING 1129
SWIDTH 480 0
DWIDTH 8 0
BBX 8 16 0 -4
BITMAP
00
00
00
00
00
88
8C
9C
F6
BE
AB
EB
00
00
00
00
ENDCHAR
STARTCHAR uni046A
ENCODING 1130
SWIDTH 480 0
DWIDTH 8 0
BBX 8 16 0 -4
BITMAP
00
00
FE
C6
6C
6C
38
7C
D6
D6
D6
D6
00
00
00
00
ENDCHAR
STARTCHAR uni046B
ENCODING 1131
SWIDTH 480 0
DWIDTH 8 0
BBX 8 16 0 -4
BITMAP
00
00
00
00
00
FE
C6
6C
7C
D6
D6
D6
00
00
00
00
ENDCHAR
STARTCHAR uni046C
ENCODING 1132
SWIDTH 480 0
DWIDTH 8 0
BBX 8 16 0 -4
BITMAP
00
00
FF
A3
B2
96
FC
9C
BE
AA
AB
EB
00
00
00
00
ENDCHAR
STARTCHAR uni046D
ENCODING 1133
SWIDTH 480 0
DWIDTH 8 0
BBX 8 16 0 -4
BITMAP
00
00
00
00
00
BF
A3
96
FE
AB
AB
EB
00
00
00
00
ENDCHAR
STARTCHAR uni046E
ENCODING 1134
SWIDTH 480 0
DWIDTH 8 0
BBX 8 16 0 -4
BITMAP
6C
38
10
7C
C6
06
06
7C
06
06
06
7C
C0
7C
00
00
ENDCHAR
STARTCHAR uni046F
ENCODING 1135
SWIDTH 480 0
DWIDTH 8 0
BBX 8 16 0 -4
BITMAP
00
6C
38
10
00
7C
86
06
7C
06
06
7C
C0
7C
00
00
ENDCHAR
STARTCHAR uni0470
ENCODING 1136
SWIDTH 480 0
DWIDTH 8 0
BBX 8 16 0 -4
BITMAP
00
00
10
96
D6
D6
D6
D6
D6
7C
10
10
00
00
00
00
ENDCHAR
STARTCHAR uni0471
ENCODING 1137
SWIDTH 480 0
DWIDTH 8 0
BBX 8 16 0 -4
BITMAP
00
00
10
10
10
96
D6
D6
D6
D6
D6
7C
10
10
10
00
ENDCHAR
STARTCHAR afii10147
ENCODING 1138
SWIDTH 480 0
DWIDTH 8 0
BBX 8 16 0 -4
BITMAP
00
00
7C
C6
C6
C6
FE
C6
C6
C6
C6
7C
00
00
00
00
ENDCHAR
STARTCHAR afii10195
ENCODING 1139
SWIDTH 480 0
DWIDTH 8 0
BBX 8 16 0 -4
BITMAP
00
00
00
00
00
7C
C6
C6
FE
C6
C6
7C
00
00
00
00
ENDCHAR
STARTCHAR afii10148
ENCODING 1140
SWIDTH 480 0
DWIDTH 8 0
BBX 8 16 0 -4
BITMAP
00
00
C2
C6
C6
C4
CC
6C
68
78
38
30
00
00
00
00
ENDCHAR
STARTCHAR afii10196
ENCODING 1141
SWIDTH 480 0
DWIDTH 8 0
BBX 8 16 0 -4
BITMAP
00
00
00
00
00
C2
C6
64
6C
38
38
10
00
00
00
00
ENDCHAR
STARTCHAR uni0476
ENCODING 1142
SWIDTH 480 0
DWIDTH 8 0
BBX 8 16 0 -4
BITMAP
CC
66
00
C2
C6
C4
C4
6C
68
78
38
30
00
00
00
00
ENDCHAR
STARTCHAR uni0477
ENCODING 1143
SWIDTH 480 0
DWIDTH 8 0
BBX 8 16 0 -4
BITMAP
00
00
CC
66
00
C2
C6
64
6C
38
38
10
00
00
00
00
ENDCHAR
STARTCHAR uni0478
ENCODING 1144
SWIDTH 480 0
DWIDTH 8 0
BBX 8 16 0 -4
BITMAP
00
00
70
D8
D8
DB
DB
DB
DB
DB
DB
6F
03
06
1C
00
ENDCHAR
STARTCHAR uni0479
ENCODING 1145
SWIDTH 480 0
DWIDTH 8 0
BBX 8 16 0 -4
BITMAP
00
00
00
00
00
73
DB
DB
DB
DB
DB
6F
03
06
1C
00
ENDCHAR
STARTCHAR uni047A
ENCODING 1146
SWIDTH 480 0
DWIDTH 8 0
BBX 8 16 0 -4
BITMAP
00
10
7C
D6
C6
C6
C6
C6
C6
C6
D6
7C
10
00
00
00
ENDCHAR
STARTCHAR uni047B
ENCODING 1147
SWIDTH 480 0
DWIDTH 8 0
BBX 8 16 0 -4
BITMAP
00
00
00
00
10
7C
D6
C6
C6
C6
D6
7C
10
00
00
00
ENDCHAR
STARTCHAR uni047C
ENCODING 1148
SWIDTH 480 0
DWIDTH 8 0
BBX 8 16 0 -4
BITMAP
04
7C
40
6C
C6
C6
D6
D6
D6
D6
FE
6C
00
00
00
00
ENDCHAR
STARTCHAR uni047D
ENCODING 1149
SWIDTH 480 0
DWIDTH 8 0
BBX 8 16 0 -4
BITMAP
00
04
7C
40
00
6C
C6
D6
D6
D6
FE
6C
00
00
00
00
ENDCHAR
STARTCHAR uni047E
ENCODING 1150
SWIDTH 480 0
DWIDTH 8 0
BBX 8 16 0 -4
BITMAP
7C
54
00
6C
C6
C6
D6
D6
D6
D6
FE
6C
00
00
00
00
ENDCHAR
STARTCHAR uni047F
ENCODING 1151
SWIDTH 480 0
DWIDTH 8 0
BBX 8 16 0 -4
BITMAP
00
00
7C
54
00
6C
C6
D6
D6
D6
FE
6C
00
00
00
00
ENDCHAR
STARTCHAR uni0480
ENCODING 1152
SWIDTH 480 0
DWIDTH 8 0
BBX 8 16 0 -4
BITMAP
00
00
3C
66
C2
C0
C0
C0
C0
C0
60
3C
0C
0C
0C
00
ENDCHAR
STARTCHAR uni0481
ENCODING 1153
SWIDTH 480 0
DWIDTH 8 0
BBX 8 16 0 -4
BITMAP
00
00
00
00
00
7C
C6
C0
C0
C0
C0
78
18
18
00
00
ENDCHAR
STARTCHAR uni0482
ENCODING 1154
SWIDTH 480 0
DWIDTH 8 0
BBX 8 16 0 -4
BITMAP
00
00
06
06
3C
0F
18
18
F0
3C
60
60
00
00
00
00
ENDCHAR
STARTCHAR uni0483
ENCODING 1155
SWIDTH 480 0
DWIDTH 8 0
BBX 8 16 0 -4
BITMAP
00
04
7C
40
00
00
00
00
00
00
00
00
00
00
00
00
ENDCHAR
STARTCHAR uni0484
ENCODING 1156
SWIDTH 480 0
DWIDTH 8 0
BBX 8 16 0 -4
BITMAP
00
18
24
44
00
00
00
00
00
00
00
00
00
00
00
00
ENDCHAR
STARTCHAR uni0485
ENCODING 1157
SWIDTH 480 0
DWIDTH 8 0
BBX 8 16 0 -4
BITMAP
00
40
7C
40
00
00
00
00
00
00
00
00
00
00
00
00
ENDCHAR
STARTCHAR uni0486
ENCODING 1158
SWIDTH 480 0
DWIDTH 8 0
BBX 8 16 0 -4
BITMAP
00
04
7C
04
00
00
00
00
00
00
00
00
00
00
00
00
ENDCHAR
STARTCHAR uni0488
ENCODING 1160
SWIDTH 480 0
DWIDTH 8 0
BBX 8 16 0 -4
BITMAP
00
00
00
18
66
00
C3
00
66
18
00
00
00
00
00
00
ENDCHAR
STARTCHAR uni0489
ENCODING 1161
SWIDTH 480 0
DWIDTH 8 0
BBX 8 16 0 -4
BITMAP
00
00
08
50
46
00
82
41
00
62
0A
10
00
00
00
00
ENDCHAR
STARTCHAR uni048A
ENCODING 1162
SWIDTH 480 0
DWIDTH 8 0
BBX 8 16 0 -4
BITMAP
6C
38
C6
C6
C6
CE
DE
FE
F6
E6
C6
C7
03
01
00
00
ENDCHAR
STARTCHAR uni048B
ENCODING 1163
SWIDTH 480 0
DWIDTH 8 0
BBX 8 16 0 -4
BITMAP
00
00
6C
38
00
C6
CE
DE
FE
F6
E6
C7
03
01
00
00
ENDCHAR
STARTCHAR uni048C
ENCODING 1164
SWIDTH 480 0
DWIDTH 8 0
BBX 8 16 0 -4
BITMAP
00
60
F0
60
60
60
7C
66
66
66
66
FC
00
00
00
00
ENDCHAR
STARTCHAR uni048D
ENCODING 1165
SWIDTH 480 0
DWIDTH 8 0
BBX 8 16 0 -4
BITMAP
00
00
00
00
60
F0
60
60
7C
66
66
FC
00
00
00
00
ENDCHAR
STARTCHAR uni048E
ENCODING 1166
SWIDTH 480 0
DWIDTH 8 0
BBX 8 16 0 -4
BITMAP
00
00
FC
66
6E
64
7A
60
60
60
60
F0
00
00
00
00
ENDCHAR
STARTCHAR uni048F
ENCODING 1167
SWIDTH 480 0
DWIDTH 8 0
BBX 8 16 0 -4
BITMAP
00
00
00
00
00
DC
66
66
66
6E
64
7A
60
60
F0
00
ENDCHAR
STARTCHAR afii10050
ENCODING 1168
SWIDTH 480 0
DWIDTH 8 0
BBX 8 16 0 -4
BITMAP
02
06
FE
60
60
60
60
60
60
60
60
F0
00
00
00
00
ENDCHAR
STARTCHAR afii10098
ENCODING 1169
SWIDTH 480 0
DWIDTH 8 0
BBX 8 16 0 -4
BITMAP
00
00
00
02
06
FE
60
60
60
60
60
F0
00
00
00
00
ENDCHAR
STARTCHAR uni0492
ENCODING 1170
SWIDTH 480 0
DWIDTH 8 0
BBX 8 16 0 -4
BITMAP
00
00
FE
66
62
60
F8
60
60
60
60
F0
00
00
00
00
ENDCHAR
STARTCHAR uni0493
ENCODING 1171
SWIDTH 480 0
DWIDTH 8 0
BBX 8 16 0 -4
BITMAP
00
00
00
00
00
FE
66
62
F8
60
60
F0
00
00
00
00
ENDCHAR
STARTCHAR uni0494
ENCODING 1172
SWIDTH 480 0
DWIDTH 8 0
BBX 8 16 0 -4
BITMAP
00
00
FE
66
62
60
7C
66
66
66
66
F6
06
16
0C
00
ENDCHAR
STARTCHAR uni0495
ENCODING 1173
SWIDTH 480 0
DWIDTH 8 0
BBX 8 16 0 -4
BITMAP
00
00
00
00
00
FE
66
62
78
6C
66
F6
06
16
0C
00
ENDCHAR
STARTCHAR uni0496
ENCODING 1174
SWIDTH 480 0
DWIDTH 8 0
BBX 8 16 0 -4
BITMAP
00
00
D6
D6
D6
7C
38
7C
D6
D6
D6
D7
03
01
00
00
ENDCHAR
STARTCHAR uni0497
ENCODING 1175
SWIDTH 480 0
DWIDTH 8 0
BBX 8 16 0 -4
BITMAP
00
00
00
00
00
D6
D6
D6
7C
D6
D6
D7
03
01
00
00
ENDCHAR
STARTCHAR uni0498
ENCODING 1176
SWIDTH 480 0
DWIDTH 8 0
BBX 8 16 0 -4
BITMAP
00
00
7C
C6
86
06
3C
06
06
86
C6
7C
30
60
38
00
ENDCHAR
STARTCHAR uni0499
ENCODING 1177
SWIDTH 480 0
DWIDTH 8 0
BBX 8 16 0 -4
BITMAP
00
00
00
00
00
7C
C6
06
3C
06
C6
7C
30
60
38
00
ENDCHAR
STARTCHAR uni049A
ENCODING 1178
SWIDTH 480 0
DWIDTH 8 0
BBX 8 16 0 -4
BITMAP
00
00
E6
66
66
6C
78
78
6C
66
66
E7
03
01
00
00
ENDCHAR
STARTCHAR uni049B
ENCODING 1179
SWIDTH 480 0
DWIDTH 8 0
BBX 8 16 0 -4
BITMAP
00
00
00
00
00
E6
6C
78
78
6C
66
E7
03
01
00
00
ENDCHAR
STARTCHAR uni049C
ENCODING 1180
SWIDTH 480 0
DWIDTH 8 0
BBX 8 16 0 -4
BITMAP
00
00
C6
D6
D6
DC
F8
DC
D6
D6
C6
C6
00
00
00
00
ENDCHAR
STARTCHAR uni049D
ENCODING 1181
SWIDTH 480 0
DWIDTH 8 0
BBX 8 16 0 -4
BITMAP
00
00
00
00
00
C6
D6
DC
F8
DC
D6
C6
00
00
00
00
ENDCHAR
STARTCHAR uni049E
ENCODING 1182
SWIDTH 480 0
DWIDTH 8 0
BBX 8 16 0 -4
BITMAP
00
00
E6
66
F6
6C
78
78
6C
66
66
E6
00
00
00
00
ENDCHAR
STARTCHAR uni049F
ENCODING 1183
SWIDTH 480 0
DWIDTH 8 0
BBX 8 16 0 -4
BITMAP
00
00
E0
60
F0
66
6C
78
78
6C
66
E6
00
00
00
00
ENDCHAR
STARTCHAR uni04A0
ENCODING 1184
SWIDTH 480 0
DWIDTH 8 0
BBX 8 16 0 -4
BITMAP
00
00
F3
B3
B3
36
3C
3C
36
33
33
73
00
00
00
00
ENDCHAR
STARTCHAR uni04A1
ENCODING 1185
SWIDTH 480 0
DWIDTH 8 0
BBX 8 16 0 -4
BITMAP
00
00
00
00
00
F3
B6
BC
3C
36
33
73
00
00
00
00
ENDCHAR
STARTCHAR uni04A2
ENCODING 1186
SWIDTH 480 0
DWIDTH 8 0
BBX 8 16 0 -4
BITMAP
00
00
C6
C6
C6
C6
FE
C6
C6
C6
C6
C7
03
01
00
00
ENDCHAR
STARTCHAR uni04A3
ENCODING 1187
SWIDTH 480 0
DWIDTH 8 0
BBX 8 16 0 -4
BITMAP
00
00
00
00
00
C6
C6
C6
FE
C6
C6
C7
03
01
00
00
ENDCHAR
STARTCHAR uni04A4
ENCODING 1188
SWIDTH 480 0
DWIDTH 8 0
BBX 8 16 0 -4
BITMAP
00
00
DF
DB
D9
D8
F8
D8
D8
D8
D8
D8
00
00
00
00
ENDCHAR
STARTCHAR uni04A5
ENCODING 1189
SWIDTH 480 0
DWIDTH 8 0
BBX 8 16 0 -4
BITMAP
00
00
00
00
00
DF
DB
D9
F8
D8
D8
D8
00
00
00
00
ENDCHAR
STARTCHAR uni04A6
ENCODING 1190
SWIDTH 480 0
DWIDTH 8 0
BBX 8 16 0 -4
BITMAP
00
00
F8
D8
D8
D8
DE
DB
DB
DB
DB
DB
03
0B
06
00
ENDCHAR
STARTCHAR uni04A7
ENCODING 1191
SWIDTH 480 0
DWIDTH 8 0
BBX 8 16 0 -4
BITMAP
00
00
00
00
00
D8
D8
D8
FE
DB
DB
DB
03
0B
06
00
ENDCHAR
STARTCHAR uni04A8
ENCODING 1192
SWIDTH 480 0
DWIDTH 8 0
BBX 8 16 0 -4
BITMAP
00
00
7C
C2
CC
D6
D6
D6
D6
D6
CC
7A
00
00
00
00
ENDCHAR
STARTCHAR uni04A9
ENCODING 1193
SWIDTH 480 0
DWIDTH 8 0
BBX 8 16 0 -4
BITMAP
00
00
00
00
00
7C
C2
CC
D6
D6
CC
7A
00
00
00
00
ENDCHAR
STARTCHAR uni04AA
ENCODING 1194
SWIDTH 480 0
DWIDTH 8 0
BBX 8 16 0 -4
BITMAP
00
00
3C
66
C2
C0
C0
C0
C0
C2
66
3C
18
0C
38
00
ENDCHAR
STARTCHAR uni04AB
ENCODING 1195
SWIDTH 480 0
DWIDTH 8 0
BBX 8 16 0 -4
BITMAP
00
00
00
00
00
7C
C6
C0
C0
C0
C6
7C
18
0C
38
00
ENDCHAR
STARTCHAR uni04AC
ENCODING 1196
SWIDTH 480 0
DWIDTH 8 0
BBX 8 16 0 -4
BITMAP
00
00
7E
7E
5A
18
18
18
18
18
18
3C
0C
04
00
00
ENDCHAR
STARTCHAR uni04AD
ENCODING 1197
SWIDTH 480 0
DWIDTH 8 0
BBX 8 16 0 -4
BITMAP
00
00
00
00
00
7E
5A
18
18
18
18
3C
0C
04
00
00
ENDCHAR
STARTCHAR uni04AE
ENCODING 1198
SWIDTH 480 0
DWIDTH 8 0
BBX 8 16 0 -4
BITMAP
00
00
66
66
66
66
3C
18
18
18
18
3C
00
00
00
00
ENDCHAR
STARTCHAR uni04AF
ENCODING 1199
SWIDTH 480 0
DWIDTH 8 0
BBX 8 16 0 -4
BITMAP
00
00
00
00
00
66
66
66
66
66
3C
18
18
18
3C
00
ENDCHAR
STARTCHAR uni04B0
ENCODING 1200
SWIDTH 480 0
DWIDTH 8 0
BBX 8 16 0 -4
BITMAP
00
00
66
66
66
66
3C
18
7E
18
18
3C
00
00
00
00
ENDCHAR
STARTCHAR uni04B1
ENCODING 1201
SWIDTH 480 0
DWIDTH 8 0
BBX 8 16 0 -4
BITMAP
00
00
00
00
00
66
66
66
66
66
3C
18
7E
18
3C
00
ENDCHAR
STARTCHAR uni04B2
ENCODING 1202
SWIDTH 480 0
DWIDTH 8 0
BBX 8 16 0 -4
BITMAP
00
00
C6
C6
6C
7C
38
38
7C
6C
C6
C7
03
01
00
00
ENDCHAR
STARTCHAR uni04B3
ENCODING 1203
SWIDTH 480 0
DWIDTH 8 0
BBX 8 16 0 -4
BITMAP
00
00
00
00
00
C6
6C
38
38
38
6C
C7
03
01
00
00
ENDCHAR
STARTCHAR uni04B4
ENCODING 1204
SWIDTH 480 0
DWIDTH 8 0
BBX 8 16 0 -4
BITMAP
00
00
F6
66
66
66
66
66
66
66
66
7F
03
01
00
00
ENDCHAR
STARTCHAR uni04B5
ENCODING 1205
SWIDTH 480 0
DWIDTH 8 0
BBX 8 16 0 -4
BITMAP
00
00
00
00
00
F6
66
66
66
66
66
7F
03
01
00
00
ENDCHAR
STARTCHAR uni04B6
ENCODING 1206
SWIDTH 480 0
DWIDTH 8 0
BBX 8 16 0 -4
BITMAP
00
00
C6
C6
C6
C6
C6
7E
06
06
06
07
03
01
00
00
ENDCHAR
STARTCHAR uni04B7
ENCODING 1207
SWIDTH 480 0
DWIDTH 8 0
BBX 8 16 0 -4
BITMAP
00
00
00
00
00
C6
C6
C6
7E
06
06
07
03
01
00
00
ENDCHAR
STARTCHAR uni04B8
ENCODING 1208
SWIDTH 480 0
DWIDTH 8 0
BBX 8 16 0 -4
BITMAP
00
00
C6
C6
C6
D6
D6
7E
16
16
06
06
00
00
00
00
ENDCHAR
STARTCHAR uni04B9
ENCODING 1209
SWIDTH 480 0
DWIDTH 8 0
BBX 8 16 0 -4
BITMAP
00
00
00
00
00
C6
D6
D6
7E
16
16
06
00
00
00
00
ENDCHAR
STARTCHAR uni04BA
ENCODING 1210
SWIDTH 480 0
DWIDTH 8 0
BBX 8 16 0 -4
BITMAP
00
00
C0
C0
C0
C0
FC
C6
C6
C6
C6
C6
00
00
00
00
ENDCHAR
STARTCHAR uni04BB
ENCODING 1211
SWIDTH 480 0
DWIDTH 8 0
BBX 8 16 0 -4
BITMAP
00
00
00
00
00
C0
C0
C0
FC
C6
C6
C6
00
00
00
00
ENDCHAR
STARTCHAR uni04BC
ENCODING 1212
SWIDTH 480 0
DWIDTH 8 0
BBX 8 16 0 -4
BITMAP
00
00
1E
33
B3
B3
7F
30
30
30
33
1E
00
00
00
00
ENDCHAR
STARTCHAR uni04BD
ENCODING 1213
SWIDTH 480 0
DWIDTH 8 0
BBX 8 16 0 -4
BITMAP
00
00
00
00
00
9E
B3
7F
30
30
33
1E
00
00
00
00
ENDCHAR
STARTCHAR uni04BE
ENCODING 1214
SWIDTH 480 0
DWIDTH 8 0
BBX 8 16 0 -4
BITMAP
00
00
1E
33
B3
B3
7F
30
30
30
33
1E
0C
18
0E
00
ENDCHAR
STARTCHAR uni04BF
ENCODING 1215
SWIDTH 480 0
DWIDTH 8 0
BBX 8 16 0 -4
BITMAP
00
00
00
00
00
9E
B3
7F
30
30
33
1E
0C
18
0E
00
ENDCHAR
STARTCHAR uni04C0
ENCODING 1216
SWIDTH 480 0
DWIDTH 8 0
BBX 8 16 0 -4
BITMAP
00
00
3C
18
18
18
18
18
18
18
18
3C
00
00
00
00
ENDCHAR
STARTCHAR uni04C1
ENCODING 1217
SWIDTH 480 0
DWIDTH 8 0
BBX 8 16 0 -4
BITMAP
6C
38
D6
D6
D6
7C
38
7C
D6
D6
D6
D6
00
00
00
00
ENDCHAR
STARTCHAR uni04C2
ENCODING 1218
SWIDTH 480 0
DWIDTH 8 0
BBX 8 16 0 -4
BITMAP
00
00
6C
38
00
D6
D6
D6
7C
D6
D6
D6
00
00
00
00
ENDCHAR
STARTCHAR uni04C3
ENCODING 1219
SWIDTH 480 0
DWIDTH 8 0
BBX 8 16 0 -4
BITMAP
00
00
E6
66
66
6C
78
78
6C
66
66
E6
06
16
0C
00
ENDCHAR
STARTCHAR uni04C4
ENCODING 1220
SWIDTH 480 0
DWIDTH 8 0
BBX 8 16 0 -4
BITMAP
00
00
00
00
00
E6
6C
78
78
6C
66
E6
06
16
0C
00
ENDCHAR
STARTCHAR uni04C5
ENCODING 1221
SWIDTH 480 0
DWIDTH 8 0
BBX 8 16 0 -4
BITMAP
00
00
3E
66
66
66
66
66
66
66
66
C7
03
01
00
00
ENDCHAR
STARTCHAR uni04C6
ENCODING 1222
SWIDTH 480 0
DWIDTH 8 0
BBX 8 16 0 -4
BITMAP
00
00
00
00
00
3E
66
66
66
66
66
C7
03
01
00
00
ENDCHAR
STARTCHAR uni04C7
ENCODING 1223
SWIDTH 480 0
DWIDTH 8 0
BBX 8 16 0 -4
BITMAP
00
00
C6
C6
C6
C6
FE
C6
C6
C6
C6
C6
06
16
0C
00
ENDCHAR
STARTCHAR uni04C8
ENCODING 1224
SWIDTH 480 0
DWIDTH 8 0
BBX 8 16 0 -4
BITMAP
00
00
00
00
00
C6
C6
C6
FE
C6
C6
C6
06
16
0C
00
ENDCHAR
STARTCHAR uni04C9
ENCODING 1225
SWIDTH 480 0
DWIDTH 8 0
BBX 8 16 0 -4
BITMAP
00
00
C6
C6
C6
C6
FE
C6
C6
C6
C6
C7
03
01
00
00
ENDCHAR
STARTCHAR uni04CA
ENCODING 1226
SWIDTH 480 0
DWIDTH 8 0
BBX 8 16 0 -4
BITMAP
00
00
00
00
00
C6
C6
C6
FE
C6
C6
C7
03
01
00
00
ENDCHAR
STARTCHAR uni04CB
ENCODING 1227
SWIDTH 480 0
DWIDTH 8 0
BBX 8 16 0 -4
BITMAP
00
00
C6
C6
C6
C6
C6
7E
06
06
06
0E
0C
08
00
00
ENDCHAR
STARTCHAR uni04CC
ENCODING 1228
SWIDTH 480 0
DWIDTH 8 0
BBX 8 16 0 -4
BITMAP
00
00
00
00
00
C6
C6
C6
7E
06
06
0E
0C
08
00
00
ENDCHAR
STARTCHAR uni04CD
ENCODING 1229
SWIDTH 480 0
DWIDTH 8 0
BBX 8 16 0 -4
BITMAP
00
00
C6
EE
FE
FE
D6
C6
C6
C6
C6
C7
03
01
00
00
ENDCHAR
STARTCHAR uni04CE
ENCODING 1230
SWIDTH 480 0
DWIDTH 8 0
BBX 8 16 0 -4
BITMAP
00
00
00
00
00
C6
EE
FE
FE
D6
C6
C7
03
01
00
00
ENDCHAR
STARTCHAR uni04D0
ENCODING 1232
SWIDTH 480 0
DWIDTH 8 0
BBX 8 16 0 -4
BITMAP
6C
38
00
10
38
6C
C6
C6
FE
C6
C6
C6
00
00
00
00
ENDCHAR
STARTCHAR uni04D1
ENCODING 1233
SWIDTH 480 0
DWIDTH 8 0
BBX 8 16 0 -4
BITMAP
00
00
6C
38
00
78
0C
7C
CC
CC
CC
76
00
00
00
00
ENDCHAR
STARTCHAR uni04D2
ENCODING 1234
SWIDTH 480 0
DWIDTH 8 0
BBX 8 16 0 -4
BITMAP
6C
6C
00
10
38
6C
C6
C6
FE
C6
C6
C6
00
00
00
00
ENDCHAR
STARTCHAR uni04D3
ENCODING 1235
SWIDTH 480 0
DWIDTH 8 0
BBX 8 16 0 -4
BITMAP
00
00
6C
6C
00
78
0C
7C
CC
CC
CC
76
00
00
00
00
ENDCHAR
STARTCHAR uni04D4
ENCODING 1236
SWIDTH 480 0
DWIDTH 8 0
BBX 8 16 0 -4
BITMAP
00
00
3E
6C
CC
CC
FE
CC
CC
CC
CC
CE
00
00
00
00
ENDCHAR
STARTCHAR uni04D5
ENCODING 1237
SWIDTH 480 0
DWIDTH 8 0
BBX 8 16 0 -4
BITMAP
00
00
00
00
00
CC
76
36
7E
D8
D8
6E
00
00
00
00
ENDCHAR
STARTCHAR uni04D6
ENCODING 1238
SWIDTH 480 0
DWIDTH 8 0
BBX 8 16 0 -4
BITMAP
6C
38
00
FE
66
62
68
78
68
62
66
FE
00
00
00
00
ENDCHAR
STARTCHAR uni04D7
ENCODING 1239
SWIDTH 480 0
DWIDTH 8 0
BBX 8 16 0 -4
BITMAP
00
00
6C
38
00
7C
C6
FE
C0
C0
C6
7C
00
00
00
00
ENDCHAR
STARTCHAR uni04D8
ENCODING 1240
SWIDTH 480 0
DWIDTH 8 0
BBX 8 16 0 -4
BITMAP
00
00
7C
C6
06
06
06
FE
C6
C6
C6
7C
00
00
00
00
ENDCHAR
STARTCHAR afii10846
ENCODING 1241
SWIDTH 480 0
DWIDTH 8 0
BBX 8 16 0 -4
BITMAP
00
00
00
00
00
7C
C6
06
06
FE
C6
7C
00
00
00
00
ENDCHAR
STARTCHAR uni04DA
ENCODING 1242
SWIDTH 480 0
DWIDTH 8 0
BBX 8 16 0 -4
BITMAP
6C
6C
00
7C
C6
06
06
FE
C6
C6
C6
7C
00
00
00
00
ENDCHAR
STARTCHAR uni04DB
ENCODING 1243
SWIDTH 480 0
DWIDTH 8 0
BBX 8 16 0 -4
BITMAP
00
00
6C
6C
00
7C
C6
06
06
FE
C6
7C
00
00
00
00
ENDCHAR
STARTCHAR uni04DC
ENCODING 1244
SWIDTH 480 0
DWIDTH 8 0
BBX 8 16 0 -4
BITMAP
6C
6C
00
D6
D6
D6
7C
38
7C
D6
D6
D6
00
00
00
00
ENDCHAR
STARTCHAR uni04DD
ENCODING 1245
SWIDTH 480 0
DWIDTH 8 0
BBX 8 16 0 -4
BITMAP
00
00
6C
6C
00
D6
D6
D6
7C
D6
D6
D6
00
00
00
00
ENDCHAR
STARTCHAR uni04DE
ENCODING 1246
SWIDTH 480 0
DWIDTH 8 0
BBX 8 16 0 -4
BITMAP
6C
6C
00
7C
C6
86
06
3C
06
86
C6
7C
00
00
00
00
ENDCHAR
STARTCHAR uni04DF
ENCODING 1247
SWIDTH 480 0
DWIDTH 8 0
BBX 8 16 0 -4
BITMAP
00
00
6C
6C
00
7C
C6
06
3C
06
C6
7C
00
00
00
00
ENDCHAR
STARTCHAR uni04E0
ENCODING 1248
SWIDTH 480 0
DWIDTH 8 0
BBX 8 16 0 -4
BITMAP
00
00
FE
06
0C
18
3C
06
06
86
C6
7C
00
00
00
00
ENDCHAR
STARTCHAR uni04E1
ENCODING 1249
SWIDTH 480 0
DWIDTH 8 0
BBX 8 16 0 -4
BITMAP
00
00
00
00
00
FE
06
0C
18
3C
06
06
06
C6
7C
00
ENDCHAR
STARTCHAR uni04E2
ENCODING 1250
SWIDTH 480 0
DWIDTH 8 0
BBX 8 16 0 -4
BITMAP
00
7C
00
C6
C6
CE
DE
FE
F6
E6
C6
C6
00
00
00
00
ENDCHAR
STARTCHAR uni04E3
ENCODING 1251
SWIDTH 480 0
DWIDTH 8 0
BBX 8 16 0 -4
BITMAP
00
00
00
7C
00
C6
CE
DE
FE
F6
E6
C6
00
00
00
00
ENDCHAR
STARTCHAR uni04E4
ENCODING 1252
SWIDTH 480 0
DWIDTH 8 0
BBX 8 16 0 -4
BITMAP
6C
6C
00
C6
C6
CE
DE
FE
F6
E6
C6
C6
00
00
00
00
ENDCHAR
STARTCHAR uni04E5
ENCODING 1253
SWIDTH 480 0
DWIDTH 8 0
BBX 8 16 0 -4
BITMAP
00
00
6C
6C
00
C6
CE
DE
FE
F6
E6
C6
00
00
00
00
ENDCHAR
STARTCHAR uni04E6
ENCODING 1254
SWIDTH 480 0
DWIDTH 8 0
BBX 8 16 0 -4
BITMAP
6C
6C
00
7C
C6
C6
C6
C6
C6
C6
C6
7C
00
00
00
00
ENDCHAR
STARTCHAR uni04E7
ENCODING 1255
SWIDTH 480 0
DWIDTH 8 0
BBX 8 16 0 -4
BITMAP
00
00
6C
6C
00
7C
C6
C6
C6
C6
C6
7C
00
00
00
00
ENDCHAR
STARTCHAR uni04E8
ENCODING 1256
SWIDTH 480 0
DWIDTH 8 0
BBX 8 16 0 -4
BITMAP
00
00
7C
C6
C6
C6
FE
C6
C6
C6
C6
7C
00
00
00
00
ENDCHAR
STARTCHAR uni04E9
ENCODING 1257
SWIDTH 480 0
DWIDTH 8 0
BBX 8 16 0 -4
BITMAP
00
00
00
00
00
7C
C6
C6
FE
C6
C6
7C
00
00
00
00
ENDCHAR
STARTCHAR uni04EA
ENCODING 1258
SWIDTH 480 0
DWIDTH 8 0
BBX 8 16 0 -4
BITMAP
6C
6C
00
7C
C6
C6
C6
FE
C6
C6
C6
7C
00
00
00
00
ENDCHAR
STARTCHAR uni04EB
ENCODING 1259
SWIDTH 480 0
DWIDTH 8 0
BBX 8 16 0 -4
BITMAP
00
00
6C
6C
00
7C
C6
C6
FE
C6
C6
7C
00
00
00
00
ENDCHAR
STARTCHAR uni04EC
ENCODING 1260
SWIDTH 480 0
DWIDTH 8 0
BBX 8 16 0 -4
BITMAP
6C
6C
00
78
CC
86
06
3E
06
86
CC
78
00
00
00
00
ENDCHAR
STARTCHAR uni04ED
ENCODING 1261
SWIDTH 480 0
DWIDTH 8 0
BBX 8 16 0 -4
BITMAP
00
00
6C
6C
00
7C
C6
06
3E
06
C6
7C
00
00
00
00
ENDCHAR
STARTCHAR uni04EE
ENCODING 1262
SWIDTH 480 0
DWIDTH 8 0
BBX 8 16 0 -4
BITMAP
00
7C
00
C6
C6
C6
C6
7E
06
06
C6
7C
00
00
00
00
ENDCHAR
STARTCHAR uni04EF
ENCODING 1263
SWIDTH 480 0
DWIDTH 8 0
BBX 8 16 0 -4
BITMAP
00
00
00
7C
00
C6
C6
C6
C6
C6
C6
7E
06
0C
F8
00
ENDCHAR
STARTCHAR uni04F0
ENCODING 1264
SWIDTH 480 0
DWIDTH 8 0
BBX 8 16 0 -4
BITMAP
6C
6C
00
C6
C6
C6
C6
7E
06
06
C6
7C
00
00
00
00
ENDCHAR
STARTCHAR uni04F1
ENCODING 1265
SWIDTH 480 0
DWIDTH 8 0
BBX 8 16 0 -4
BITMAP
00
00
6C
6C
00
C6
C6
C6
C6
C6
C6
7E
06
0C
F8
00
ENDCHAR
STARTCHAR uni04F2
ENCODING 1266
SWIDTH 480 0
DWIDTH 8 0
BBX 8 16 0 -4
BITMAP
66
CC
00
C6
C6
C6
C6
7E
06
06
C6
7C
00
00
00
00
ENDCHAR
STARTCHAR uni04F3
ENCODING 1267
SWIDTH 480 0
DWIDTH 8 0
BBX 8 16 0 -4
BITMAP
00
00
66
CC
00
C6
C6
C6
C6
C6
C6
7E
06
0C
F8
00
ENDCHAR
STARTCHAR uni04F4
ENCODING 1268
SWIDTH 480 0
DWIDTH 8 0
BBX 8 16 0 -4
BITMAP
6C
6C
00
C6
C6
C6
C6
7E
06
06
06
06
00
00
00
00
ENDCHAR
STARTCHAR uni04F5
ENCODING 1269
SWIDTH 480 0
DWIDTH 8 0
BBX 8 16 0 -4
BITMAP
00
00
6C
6C
00
C6
C6
C6
7E
06
06
06
00
00
00
00
ENDCHAR
STARTCHAR uni04F8
ENCODING 1272
SWIDTH 480 0
DWIDTH 8 0
BBX 8 16 0 -4
BITMAP
6C
6C
00
C3
C3
C3
F3
DB
DB
DB
DB
F3
00
00
00
00
ENDCHAR
STARTCHAR uni04F9
ENCODING 1273
SWIDTH 480 0
DWIDTH 8 0
BBX 8 16 0 -4
BITMAP
00
00
6C
6C
00
C3
C3
C3
F3
DB
DB
F3
00
00
00
00
ENDCHAR
STARTCHAR uni0500
ENCODING 1280
SWIDTH 480 0
DWIDTH 8 0
BBX 8 16 0 -4
BITMAP
00
00
1E
0C
0C
0C
7C
CC
CC
CC
CC
7E
00
00
00
00
ENDCHAR
STARTCHAR uni0501
ENCODING 1281
SWIDTH 480 0
DWIDTH 8 0
BBX 8 16 0 -4
BITMAP
00
00
1C
0C
0C
3C
6C
CC
CC
CC
CC
76
00
00
00
00
ENDCHAR
STARTCHAR uni0502
ENCODING 1282
SWIDTH 480 0
DWIDTH 8 0
BBX 8 16 0 -4
BITMAP
00
00
1E
0C
0C
0C
7C
CD
CD
CD
CD
76
00
00
00
00
ENDCHAR
STARTCHAR uni0503
ENCODING 1283
SWIDTH 480 0
DWIDTH 8 0
BBX 8 16 0 -4
BITMAP
00
00
1C
0C
0C
3C
6C
CC
CD
CD
CD
76
00
00
00
00
ENDCHAR
STARTCHAR uni0504
ENCODING 1284
SWIDTH 480 0
DWIDTH 8 0
BBX 8 16 0 -4
BITMAP
00
00
78
CC
8C
0C
38
0D
0D
0D
0D
06
00
00
00
00
ENDCHAR
STARTCHAR uni0505
ENCODING 1285
SWIDTH 480 0
DWIDTH 8 0
BBX 8 16 0 -4
BITMAP
00
00
00
00
00
78
CC
0C
39
0D
0D
06
00
00
00
00
ENDCHAR
STARTCHAR uni0506
ENCODING 1286
SWIDTH 480 0
DWIDTH 8 0
BBX 8 16 0 -4
BITMAP
00
00
7C
C6
86
06
3C
06
06
06
06
07
03
01
00
00
ENDCHAR
STARTCHAR uni0507
ENCODING 1287
SWIDTH 480 0
DWIDTH 8 0
BBX 8 16 0 -4
BITMAP
00
00
00
00
00
7C
C6
06
3C
06
06
07
03
01
00
00
ENDCHAR
STARTCHAR uni0508
ENCODING 1288
SWIDTH 480 0
DWIDTH 8 0
BBX 8 16 0 -4
BITMAP
00
00
3C
6C
6C
6C
6C
6D
6D
6D
6D
C6
00
00
00
00
ENDCHAR
STARTCHAR uni0509
ENCODING 1289
SWIDTH 480 0
DWIDTH 8 0
BBX 8 16 0 -4
BITMAP
00
00
00
00
00
3C
6C
6C
6D
6D
6D
C6
00
00
00
00
ENDCHAR
STARTCHAR uni050A
ENCODING 1290
SWIDTH 480 0
DWIDTH 8 0
BBX 8 16 0 -4
BITMAP
00
00
CC
CC
CC
CC
FC
CD
CD
CD
CD
C6
00
00
00
00
ENDCHAR
STARTCHAR uni050B
ENCODING 1291
SWIDTH 480 0
DWIDTH 8 0
BBX 8 16 0 -4
BITMAP
00
00
00
00
00
CC
CC
CC
FD
CD
CD
C6
00
00
00
00
ENDCHAR
STARTCHAR uni050C
ENCODING 1292
SWIDTH 480 0
DWIDTH 8 0
BBX 8 16 0 -4
BITMAP
00
00
3C
66
C2
C0
C0
CE
C6
C6
66
3C
00
00
00
00
ENDCHAR
STARTCHAR uni050D
ENCODING 1293
SWIDTH 480 0
DWIDTH 8 0
BBX 8 16 0 -4
BITMAP
00
00
00
00
00
7C
C6
C0
CE
C6
C6
7C
00
00
00
00
ENDCHAR
STARTCHAR uni050E
ENCODING 1294
SWIDTH 480 0
DWIDTH 8 0
BBX 8 16 0 -4
BITMAP
00
00
7E
7E
5A
18
18
1B
1B
1B
1B
0E
00
00
00
00
ENDCHAR
STARTCHAR uni050F
ENCODING 1295
SWIDTH 480 0
DWIDTH 8 0
BBX 8 16 0 -4
BITMAP
00
00
00
00
00
7E
5A
18
1B
1B
1B
0E
00
00
00
00
ENDCHAR
STARTCHAR uni0530
ENCODING 1328
SWIDTH 480 0
DWIDTH 8 0
BBX 8 16 0 -4
BITMAP
00
00
00
00
18
64
94
BA
52
4C
30
00
00
00
00
00
ENDCHAR
STARTCHAR uni0531
ENCODING 1329
SWIDTH 480 0
DWIDTH 8 0
BBX 8 16 0 -4
BITMAP
00
00
CC
CC
CC
CC
CC
CC
CC
CC
CF
7B
00
00
00
00
ENDCHAR
STARTCHAR uni0532
ENCODING 1330
SWIDTH 480 0
DWIDTH 8 0
BBX 8 16 0 -4
BITMAP
00
00
3C
66
66
66
66
60
60
7E
60
60
00
00
00
00
ENDCHAR
STARTCHAR uni0533
ENCODING 1331
SWIDTH 480 0
DWIDTH 8 0
BBX 8 16 0 -4
BITMAP
00
00
78
CC
CC
CC
CC
7F
0C
0C
0C
0C
00
00
00
00
ENDCHAR
STARTCHAR uni0534
ENCODING 1332
SWIDTH 480 0
DWIDTH 8 0
BBX 8 16 0 -4
BITMAP
00
00
78
CC
CC
CC
CC
CF
0C
0C
0C
0C
00
00
00
00
ENDCHAR
STARTCHAR uni0535
ENCODING 1333
SWIDTH 480 0
DWIDTH 8 0
BBX 8 16 0 -4
BITMAP
00
00
60
7E
60
60
66
66
66
66
66
3C
00
00
00
00
ENDCHAR
STARTCHAR uni0536
ENCODING 1334
SWIDTH 480 0
DWIDTH 8 0
BBX 8 16 0 -4
BITMAP
00
00
3C
66
66
66
66
3E
06
0C
D8
FE
C3
00
00
00
ENDCHAR
STARTCHAR uni0537
ENCODING 1335
SWIDTH 480 0
DWIDTH 8 0
BBX 8 16 0 -4
BITMAP
00
00
60
60
7E
60
60
60
60
60
60
7C
06
00
00
00
ENDCHAR
STARTCHAR uni0538
ENCODING 1336
SWIDTH 480 0
DWIDTH 8 0
BBX 8 16 0 -4
BITMAP
00
00
3C
66
66
66
66
66
60
60
60
7E
00
00
00
00
ENDCHAR
STARTCHAR uni0539
ENCODING 1337
SWIDTH 480 0
DWIDTH 8 0
BBX 8 16 0 -4
BITMAP
00
00
7C
C6
CF
D6
D6
D6
D6
CC
C0
C0
00
00
00
00
ENDCHAR
STARTCHAR uni053A
ENCODING 1338
SWIDTH 480 0
DWIDTH 8 0
BBX 8 16 0 -4
BITMAP
00
00
0C
0C
0C
0C
7F
CC
CC
CC
CC
78
00
00
00
00
ENDCHAR
STARTCHAR uni053B
ENCODING 1339
SWIDTH 480 0
DWIDTH 8 0
BBX 8 16 0 -4
BITMAP
00
00
60
60
7C
66
66
66
66
66
60
60
00
00
00
00
ENDCHAR
STARTCHAR uni053C
ENCODING 1340
SWIDTH 480 0
DWIDTH 8 0
BBX 8 16 0 -4
BITMAP
00
00
60
60
60
60
60
60
60
60
60
7C
06
00
00
00
ENDCHAR
STARTCHAR uni053D
ENCODING 1341
SWIDTH 480 0
DWIDTH 8 0
BBX 8 16 0 -4
BITMAP
00
00
C0
C0
F6
D6
D6
D6
D6
CC
C0
C0
00
00
00
00
ENDCHAR
STARTCHAR uni053E
ENCODING 1342
SWIDTH 480 0
DWIDTH 8 0
BBX 8 16 0 -4
BITMAP
00
00
C0
7F
24
66
66
66
66
66
66
3C
00
00
00
00
ENDCHAR
STARTCHAR uni053F
ENCODING 1343
SWIDTH 480 0
DWIDTH 8 0
BBX 8 16 0 -4
BITMAP
00
00
60
60
66
66
66
66
66
3E
06
06
00
00
00
00
ENDCHAR
STARTCHAR uni0540
ENCODING 1344
SWIDTH 480 0
DWIDTH 8 0
BBX 8 16 0 -4
BITMAP
00
00
18
30
18
0C
18
30
60
F0
3C
0E
04
00
00
00
ENDCHAR
STARTCHAR uni0541
ENCODING 1345
SWIDTH 480 0
DWIDTH 8 0
BBX 8 16 0 -4
BITMAP
00
00
3C
66
66
66
06
06
06
6C
D8
6E
00
00
00
00
ENDCHAR
STARTCHAR uni0542
ENCODING 1346
SWIDTH 480 0
DWIDTH 8 0
BBX 8 16 0 -4
BITMAP
00
00
78
CC
CC
CC
CC
CC
0C
0C
0C
0F
00
00
00
00
ENDCHAR
STARTCHAR uni0543
ENCODING 1347
SWIDTH 480 0
DWIDTH 8 0
BBX 8 16 0 -4
BITMAP
00
00
1E
30
60
F8
6C
66
66
66
66
7E
00
00
00
00
ENDCHAR
STARTCHAR uni0544
ENCODING 1348
SWIDTH 480 0
DWIDTH 8 0
BBX 8 16 0 -4
BITMAP
00
00
CF
CC
CC
CC
CC
CC
CC
CC
CC
78
00
00
00
00
ENDCHAR
STARTCHAR uni0545
ENCODING 1349
SWIDTH 480 0
DWIDTH 8 0
BBX 8 16 0 -4
BITMAP
00
00
3C
66
06
06
7C
06
06
66
66
3C
00
00
00
00
ENDCHAR
STARTCHAR uni0546
ENCODING 1350
SWIDTH 480 0
DWIDTH 8 0
BBX 8 16 0 -4
BITMAP
00
00
E0
60
60
60
66
66
66
66
66
3C
00
00
00
00
ENDCHAR
STARTCHAR uni0547
ENCODING 1351
SWIDTH 480 0
DWIDTH 8 0
BBX 8 16 0 -4
BITMAP
00
00
3C
06
3E
66
60
60
60
66
66
3C
00
00
00
00
ENDCHAR
STARTCHAR uni0548
ENCODING 1352
SWIDTH 480 0
DWIDTH 8 0
BBX 8 16 0 -4
BITMAP
00
00
3C
66
66
66
66
66
66
66
66
66
00
00
00
00
ENDCHAR
STARTCHAR uni0549
ENCODING 1353
SWIDTH 480 0
DWIDTH 8 0
BBX 8 16 0 -4
BITMAP
00
00
3C
66
66
66
06
06
06
6C
38
0E
00
00
00
00
ENDCHAR
STARTCHAR uni054A
ENCODING 1354
SWIDTH 480 0
DWIDTH 8 0
BBX 8 16 0 -4
BITMAP
00
00
7C
D6
D6
D6
D6
D6
16
16
06
06
00
00
00
00
ENDCHAR
STARTCHAR uni054B
ENCODING 1355
SWIDTH 480 0
DWIDTH 8 0
BBX 8 16 0 -4
BITMAP
00
00
3C
66
66
66
76
1E
0E
0C
D8
FE
C3
00
00
00
ENDCHAR
STARTCHAR uni054C
ENCODING 1356
SWIDTH 480 0
DWIDTH 8 0
BBX 8 16 0 -4
BITMAP
00
00
78
CC
CC
CC
CC
CF
CC
CC
CC
CC
00
00
00
00
ENDCHAR
STARTCHAR uni054D
ENCODING 1357
SWIDTH 480 0
DWIDTH 8 0
BBX 8 16 0 -4
BITMAP
00
00
66
66
66
66
66
66
66
66
66
3C
00
00
00
00
ENDCHAR
STARTCHAR uni054E
ENCODING 1358
SWIDTH 480 0
DWIDTH 8 0
BBX 8 16 0 -4
BITMAP
00
00
0C
0C
CC
CC
CC
CC
7C
0C
0C
0F
00
00
00
00
ENDCHAR
STARTCHAR uni054F
ENCODING 1359
SWIDTH 480 0
DWIDTH 8 0
BBX 8 16 0 -4
BITMAP
00
00
7C
C6
C6
60
30
18
0C
C6
C6
7C
00
00
00
00
ENDCHAR
STARTCHAR uni0550
ENCODING 1360
SWIDTH 480 0
DWIDTH 8 0
BBX 8 16 0 -4
BITMAP
00
00
3C
66
66
66
66
66
60
60
60
60
00
00
00
00
ENDCHAR
STARTCHAR uni0551
ENCODING 1361
SWIDTH 480 0
DWIDTH 8 0
BBX 8 16 0 -4
BITMAP
00
00
3C
66
66
66
3C
66
06
06
66
3C
00
00
00
00
ENDCHAR
STARTCHAR uni0552
ENCODING 1362
SWIDTH 480 0
DWIDTH 8 0
BBX 8 16 0 -4
BITMAP
00
00
60
60
7C
66
66
66
66
63
60
60
00
00
00
00
ENDCHAR
STARTCHAR uni0553
ENCODING 1363
SWIDTH 480 0
DWIDTH 8 0
BBX 8 16 0 -4
BITMAP
00
00
10
7C
D6
D6
D6
D6
D6
D6
7C
10
00
00
00
00
ENDCHAR
STARTCHAR uni0554
ENCODING 1364
SWIDTH 480 0
DWIDTH 8 0
BBX 8 16 0 -4
BITMAP
00
00
3C
66
66
66
7C
60
60
FE
60
60
00
00
00
00
ENDCHAR
STARTCHAR uni0555
ENCODING 1365
SWIDTH 480 0
DWIDTH 8 0
BBX 8 16 0 -4
BITMAP
00
00
3C
66
66
66
66
66
66
66
66
3C
00
00
00
00
ENDCHAR
STARTCHAR uni0556
ENCODING 1366
SWIDTH 480 0
DWIDTH 8 0
BBX 8 16 0 -4
BITMAP
00
00
70
D0
D0
D0
7C
16
16
16
D6
7C
00
00
00
00
ENDCHAR
STARTCHAR uni0559
ENCODING 1369
SWIDTH 480 0
DWIDTH 8 0
BBX 8 16 0 -4
BITMAP
00
18
30
30
18
00
00
00
00
00
00
00
00
00
00
00
ENDCHAR
STARTCHAR uni055A
ENCODING 1370
SWIDTH 480 0
DWIDTH 8 0
BBX 8 16 0 -4
BITMAP
00
30
18
18
30
00
00
00
00
00
00
00
00
00
00
00
ENDCHAR
STARTCHAR uni055B
ENCODING 1371
SWIDTH 480 0
DWIDTH 8 0
BBX 8 16 0 -4
BITMAP
00
18
30
60
00
00
00
00
00
00
00
00
00
00
00
00
ENDCHAR
STARTCHAR uni055C
ENCODING 1372
SWIDTH 480 0
DWIDTH 8 0
BBX 8 16 0 -4
BITMAP
00
06
3C
60
00
00
00
00
00
00
00
00
00
00
00
00
ENDCHAR
STARTCHAR uni055D
ENCODING 1373
SWIDTH 480 0
DWIDTH 8 0
BBX 8 16 0 -4
BITMAP
00
30
18
0C
00
00
00
00
00
00
00
00
00
00
00
00
ENDCHAR
STARTCHAR uni055E
ENCODING 1374
SWIDTH 480 0
DWIDTH 8 0
BBX 8 16 0 -4
BITMAP
00
1C
36
6C
00
00
00
00
00
00
00
00
00
00
00
00
ENDCHAR
STARTCHAR uni055F
ENCODING 1375
SWIDTH 480 0
DWIDTH 8 0
BBX 8 16 0 -4
BITMAP
00
70
60
3E
00
00
00
00
00
00
00
00
00
00
00
00
ENDCHAR
STARTCHAR uni0561
ENCODING 1377
SWIDTH 480 0
DWIDTH 8 0
BBX 8 16 0 -4
BITMAP
00
00
00
00
00
D6
D6
D6
D6
D6
D6
6A
00
00
00
00
ENDCHAR
STARTCHAR uni0562
ENCODING 1378
SWIDTH 480 0
DWIDTH 8 0
BBX 8 16 0 -4
BITMAP
00
00
00
00
00
7C
66
66
66
60
60
7E
60
60
60
00
ENDCHAR
STARTCHAR uni0563
ENCODING 1379
SWIDTH 480 0
DWIDTH 8 0
BBX 8 16 0 -4
BITMAP
00
00
00
00
00
7C
CC
CC
CC
CC
CC
7F
0C
0C
0C
00
ENDCHAR
STARTCHAR uni0564
ENCODING 1380
SWIDTH 480 0
DWIDTH 8 0
BBX 8 16 0 -4
BITMAP
00
00
00
00
00
F8
CC
CC
CC
CC
CC
CF
0C
0C
0C
00
ENDCHAR
STARTCHAR uni0565
ENCODING 1381
SWIDTH 480 0
DWIDTH 8 0
BBX 8 16 0 -4
BITMAP
00
00
60
60
7E
60
60
66
66
66
66
3E
00
00
00
00
ENDCHAR
STARTCHAR uni0566
ENCODING 1382
SWIDTH 480 0
DWIDTH 8 0
BBX 8 16 0 -4
BITMAP
00
00
00
00
00
7C
CC
CC
CC
CC
CC
7C
0C
0C
0F
00
ENDCHAR
STARTCHAR uni0567
ENCODING 1383
SWIDTH 480 0
DWIDTH 8 0
BBX 8 16 0 -4
BITMAP
00
00
60
60
60
7C
60
60
60
60
60
78
0C
18
00
00
ENDCHAR
STARTCHAR uni0568
ENCODING 1384
SWIDTH 480 0
DWIDTH 8 0
BBX 8 16 0 -4
BITMAP
00
00
00
00
00
7C
66
66
66
66
66
66
60
60
7E
00
ENDCHAR
STARTCHAR uni0569
ENCODING 1385
SWIDTH 480 0
DWIDTH 8 0
BBX 8 16 0 -4
BITMAP
00
00
00
00
00
FC
C6
C6
CF
D6
D6
CC
C0
C0
C0
00
ENDCHAR
STARTCHAR uni056A
ENCODING 1386
SWIDTH 480 0
DWIDTH 8 0
BBX 8 16 0 -4
BITMAP
00
00
0C
0C
0C
7F
CC
CC
CC
CC
CC
7C
00
00
00
00
ENDCHAR
STARTCHAR uni056B
ENCODING 1387
SWIDTH 480 0
DWIDTH 8 0
BBX 8 16 0 -4
BITMAP
00
00
60
60
60
7C
66
66
66
66
66
66
60
60
60
00
ENDCHAR
STARTCHAR uni056C
ENCODING 1388
SWIDTH 480 0
DWIDTH 8 0
BBX 8 16 0 -4
BITMAP
00
00
00
00
00
30
30
30
30
30
30
30
30
30
3E
00
ENDCHAR
STARTCHAR uni056D
ENCODING 1389
SWIDTH 480 0
DWIDTH 8 0
BBX 8 16 0 -4
BITMAP
00
00
C0
C0
C0
F6
D6
D6
D6
D6
D6
CA
C0
C0
C0
00
ENDCHAR
STARTCHAR uni056E
ENCODING 1390
SWIDTH 480 0
DWIDTH 8 0
BBX 8 16 0 -4
BITMAP
00
00
60
38
0C
7F
CC
CC
CC
CC
CC
78
00
00
00
00
ENDCHAR
STARTCHAR uni056F
ENCODING 1391
SWIDTH 480 0
DWIDTH 8 0
BBX 8 16 0 -4
BITMAP
00
00
60
60
60
66
66
66
66
66
66
3E
06
06
06
00
ENDCHAR
STARTCHAR uni0570
ENCODING 1392
SWIDTH 480 0
DWIDTH 8 0
BBX 8 16 0 -4
BITMAP
00
00
60
60
60
7C
66
66
66
66
66
66
00
00
00
00
ENDCHAR
STARTCHAR uni0571
ENCODING 1393
SWIDTH 480 0
DWIDTH 8 0
BBX 8 16 0 -4
BITMAP
00
00
30
1C
0C
18
3C
64
66
62
63
3D
00
00
00
00
ENDCHAR
STARTCHAR uni0572
ENCODING 1394
SWIDTH 480 0
DWIDTH 8 0
BBX 8 16 0 -4
BITMAP
00
00
00
00
00
F8
CC
CC
CC
CC
CC
CC
0C
0C
0F
00
ENDCHAR
STARTCHAR uni0573
ENCODING 1395
SWIDTH 480 0
DWIDTH 8 0
BBX 8 16 0 -4
BITMAP
00
00
0E
18
30
F8
6C
66
66
66
66
3E
00
00
00
00
ENDCHAR
STARTCHAR uni0574
ENCODING 1396
SWIDTH 480 0
DWIDTH 8 0
BBX 8 16 0 -4
BITMAP
00
00
0F
0C
0C
CC
CC
CC
CC
CC
CC
7C
00
00
00
00
ENDCHAR
STARTCHAR uni0575
ENCODING 1397
SWIDTH 480 0
DWIDTH 8 0
BBX 8 16 0 -4
BITMAP
00
00
00
00
00
0C
0C
0C
0C
0C
0C
0C
0C
6C
38
00
ENDCHAR
STARTCHAR uni0576
ENCODING 1398
SWIDTH 480 0
DWIDTH 8 0
BBX 8 16 0 -4
BITMAP
00
00
E0
60
60
66
66
66
66
66
66
3E
00
00
00
00
ENDCHAR
STARTCHAR uni0577
ENCODING 1399
SWIDTH 480 0
DWIDTH 8 0
BBX 8 16 0 -4
BITMAP
00
00
00
00
00
3C
66
66
66
06
0C
18
30
60
3E
00
ENDCHAR
STARTCHAR uni0578
ENCODING 1400
SWIDTH 480 0
DWIDTH 8 0
BBX 8 16 0 -4
BITMAP
00
00
00
00
00
7C
66
66
66
66
66
66
00
00
00
00
ENDCHAR
STARTCHAR uni0579
ENCODING 1401
SWIDTH 480 0
DWIDTH 8 0
BBX 8 16 0 -4
BITMAP
00
00
00
00
00
0C
18
18
0C
06
0C
18
30
60
3E
00
ENDCHAR
STARTCHAR uni057A
ENCODING 1402
SWIDTH 480 0
DWIDTH 8 0
BBX 8 16 0 -4
BITMAP
00
00
00
00
00
D6
D6
D6
D6
D6
D6
7E
06
06
06
00
ENDCHAR
STARTCHAR uni057B
ENCODING 1403
SWIDTH 480 0
DWIDTH 8 0
BBX 8 16 0 -4
BITMAP
00
00
00
00
00
3C
66
66
66
76
1C
18
30
60
3E
00
ENDCHAR
STARTCHAR uni057C
ENCODING 1404
SWIDTH 480 0
DWIDTH 8 0
BBX 8 16 0 -4
BITMAP
00
00
00
00
00
F8
CC
CC
CC
CC
CC
CF
00
00
00
00
ENDCHAR
STARTCHAR uni057D
ENCODING 1405
SWIDTH 480 0
DWIDTH 8 0
BBX 8 16 0 -4
BITMAP
00
00
00
00
00
66
66
66
66
66
66
3E
00
00
00
00
ENDCHAR
STARTCHAR uni057E
ENCODING 1406
SWIDTH 480 0
DWIDTH 8 0
BBX 8 16 0 -4
BITMAP
00
00
0C
0C
0C
CC
CC
CC
CC
CC
CC
7C
0C
0C
0F
00
ENDCHAR
STARTCHAR uni057F
ENCODING 1407
SWIDTH 480 0
DWIDTH 8 0
BBX 8 16 0 -4
BITMAP
00
00
00
00
00
DC
D6
D6
D6
D6
D6
76
00
00
00
00
ENDCHAR
STARTCHAR uni0580
ENCODING 1408
SWIDTH 480 0
DWIDTH 8 0
BBX 8 16 0 -4
BITMAP
00
00
00
00
00
7C
66
66
66
66
66
66
60
60
60
00
ENDCHAR
STARTCHAR uni0581
ENCODING 1409
SWIDTH 480 0
DWIDTH 8 0
BBX 8 16 0 -4
BITMAP
00
00
00
00
00
3E
66
66
66
66
66
3E
06
66
3C
00
ENDCHAR
STARTCHAR uni0582
ENCODING 1410
SWIDTH 480 0
DWIDTH 8 0
BBX 8 16 0 -4
BITMAP
00
00
00
00
00
30
30
30
30
30
30
3E
00
00
00
00
ENDCHAR
STARTCHAR uni0583
ENCODING 1411
SWIDTH 480 0
DWIDTH 8 0
BBX 8 16 0 -4
BITMAP
00
00
10
10
10
DC
D6
D6
D6
D6
D6
76
10
10
10
00
ENDCHAR
STARTCHAR uni0584
ENCODING 1412
SWIDTH 480 0
DWIDTH 8 0
BBX 8 16 0 -4
BITMAP
00
00
00
00
00
7C
66
66
66
66
7C
60
FE
60
60
00
ENDCHAR
STARTCHAR uni0585
ENCODING 1413
SWIDTH 480 0
DWIDTH 8 0
BBX 8 16 0 -4
BITMAP
00
00
00
00
00
3C
66
66
66
66
66
3C
00
00
00
00
ENDCHAR
STARTCHAR uni0586
ENCODING 1414
SWIDTH 480 0
DWIDTH 8 0
BBX 8 16 0 -4
BITMAP
00
00
70
D0
D0
7C
16
16
16
16
D6
7C
10
10
10
00
ENDCHAR
STARTCHAR uni0587
ENCODING 1415
SWIDTH 480 0
DWIDTH 8 0
BBX 8 16 0 -4
BITMAP
00
00
C0
C0
C0
C0
C0
CC
CC
CC
CC
77
00
00
00
00
ENDCHAR
STARTCHAR uni0589
ENCODING 1417
SWIDTH 480 0
DWIDTH 8 0
BBX 8 16 0 -4
BITMAP
00
00
00
00
00
18
18
00
00
00
18
18
00
00
00
00
ENDCHAR
STARTCHAR uni058A
ENCODING 1418
SWIDTH 480 0
DWIDTH 8 0
BBX 8 16 0 -4
BITMAP
00
00
00
00
00
C0
C6
7C
00
00
00
00
00
00
00
00
ENDCHAR
STARTCHAR uni0591
ENCODING 1425
SWIDTH 480 0
DWIDTH 8 0
BBX 8 16 0 -4
BITMAP
00
00
00
00
00
00
00
00
00
00
00
00
10
10
38
6C
ENDCHAR
STARTCHAR uni0592
ENCODING 1426
SWIDTH 480 0
DWIDTH 8 0
BBX 8 16 0 -4
BITMAP
18
00
66
00
00
00
00
00
00
00
00
00
00
00
00
00
ENDCHAR
STARTCHAR uni0593
ENCODING 1427
SWIDTH 480 0
DWIDTH 8 0
BBX 8 16 0 -4
BITMAP
08
38
10
38
20
00
00
00
00
00
00
00
00
00
00
00
ENDCHAR
STARTCHAR uni0594
ENCODING 1428
SWIDTH 480 0
DWIDTH 8 0
BBX 8 16 0 -4
BITMAP
18
00
18
00
00
00
00
00
00
00
00
00
00
00
00
00
ENDCHAR
STARTCHAR uni0595
ENCODING 1429
SWIDTH 480 0
DWIDTH 8 0
BBX 8 16 0 -4
BITMAP
6C
60
6C
00
00
00
00
00
00
00
00
00
00
00
00
00
ENDCHAR
STARTCHAR uni0596
ENCODING 1430
SWIDTH 480 0
DWIDTH 8 0
BBX 8 16 0 -4
BITMAP
00
00
00
00
00
00
00
00
00
00
00
00
10
18
0C
00
ENDCHAR
STARTCHAR uni0597
ENCODING 1431
SWIDTH 480 0
DWIDTH 8 0
BBX 8 16 0 -4
BITMAP
10
38
10
00
00
00
00
00
00
00
00
00
00
00
00
00
ENDCHAR
STARTCHAR uni0598
ENCODING 1432
SWIDTH 480 0
DWIDTH 8 0
BBX 8 16 0 -4
BITMAP
74
D6
5C
00
00
00
00
00
00
00
00
00
00
00
00
00
ENDCHAR
STARTCHAR uni0599
ENCODING 1433
SWIDTH 480 0
DWIDTH 8 0
BBX 8 16 0 -4
BITMAP
C0
60
20
00
00
00
00
00
00
00
00
00
00
00
00
00
ENDCHAR
STARTCHAR uni059A
ENCODING 1434
SWIDTH 480 0
DWIDTH 8 0
BBX 8 16 0 -4
BITMAP
00
00
00
00
00
00
00
00
00
00
00
00
03
06
03
00
ENDCHAR
STARTCHAR uni059B
ENCODING 1435
SWIDTH 480 0
DWIDTH 8 0
BBX 8 16 0 -4
BITMAP
00
00
00
00
00
00
00
00
00
00
00
00
28
18
30
00
ENDCHAR
STARTCHAR uni059C
ENCODING 1436
SWIDTH 480 0
DWIDTH 8 0
BBX 8 16 0 -4
BITMAP
0C
18
10
00
00
00
00
00
00
00
00
00
00
00
00
00
ENDCHAR
STARTCHAR uni059D
ENCODING 1437
SWIDTH 480 0
DWIDTH 8 0
BBX 8 16 0 -4
BITMAP
03
06
04
00
00
00
00
00
00
00
00
00
00
00
00
00
ENDCHAR
STARTCHAR uni059E
ENCODING 1438
SWIDTH 480 0
DWIDTH 8 0
BBX 8 16 0 -4
BITMAP
1B
36
24
00
00
00
00
00
00
00
00
00
00
00
00
00
ENDCHAR
STARTCHAR uni059F
ENCODING 1439
SWIDTH 480 0
DWIDTH 8 0
BBX 8 16 0 -4
BITMAP
44
AA
6C
28
00
00
00
00
00
00
00
00
00
00
00
00
ENDCHAR
STARTCHAR uni05A0
ENCODING 1440
SWIDTH 480 0
DWIDTH 8 0
BBX 8 16 0 -4
BITMAP
04
0A
0C
08
00
00
00
00
00
00
00
00
00
00
00
00
ENDCHAR
STARTCHAR uni05A1
ENCODING 1441
SWIDTH 480 0
DWIDTH 8 0
BBX 8 16 0 -4
BITMAP
40
50
E0
80
00
00
00
00
00
00
00
00
00
00
00
00
ENDCHAR
STARTCHAR uni05A3
ENCODING 1443
SWIDTH 480 0
DWIDTH 8 0
BBX 8 16 0 -4
BITMAP
00
00
00
00
00
00
00
00
00
00
00
00
0C
0C
3C
00
ENDCHAR
STARTCHAR uni05A4
ENCODING 1444
SWIDTH 480 0
DWIDTH 8 0
BBX 8 16 0 -4
BITMAP
00
00
00
00
00
00
00
00
00
00
00
00
18
30
18
00
ENDCHAR
STARTCHAR uni05A5
ENCODING 1445
SWIDTH 480 0
DWIDTH 8 0
BBX 8 16 0 -4
BITMAP
00
00
00
00
00
00
00
00
00
00
00
00
10
30
60
00
ENDCHAR
STARTCHAR uni05A6
ENCODING 1446
SWIDTH 480 0
DWIDTH 8 0
BBX 8 16 0 -4
BITMAP
00
00
00
00
00
00
00
00
00
00
00
00
24
6C
D8
00
ENDCHAR
STARTCHAR uni05A7
ENCODING 1447
SWIDTH 480 0
DWIDTH 8 0
BBX 8 16 0 -4
BITMAP
00
00
00
00
00
00
00
00
00
00
00
00
18
30
08
30
ENDCHAR
STARTCHAR uni05A8
ENCODING 1448
SWIDTH 480 0
DWIDTH 8 0
BBX 8 16 0 -4
BITMAP
60
30
10
00
00
00
00
00
00
00
00
00
00
00
00
00
ENDCHAR
STARTCHAR uni05A9
ENCODING 1449
SWIDTH 480 0
DWIDTH 8 0
BBX 8 16 0 -4
BITMAP
40
A0
60
20
00
00
00
00
00
00
00
00
00
00
00
00
ENDCHAR
STARTCHAR uni05AA
ENCODING 1450
SWIDTH 480 0
DWIDTH 8 0
BBX 8 16 0 -4
BITMAP
00
00
00
00
00
00
00
00
00
00
00
00
6C
38
10
10
ENDCHAR
STARTCHAR uni05AB
ENCODING 1451
SWIDTH 480 0
DWIDTH 8 0
BBX 8 16 0 -4
BITMAP
18
30
18
00
00
00
00
00
00
00
00
00
00
00
00
00
ENDCHAR
STARTCHAR uni05AC
ENCODING 1452
SWIDTH 480 0
DWIDTH 8 0
BBX 8 16 0 -4
BITMAP
0C
0C
3C
00
00
00
00
00
00
00
00
00
00
00
00
00
ENDCHAR
STARTCHAR uni05AD
ENCODING 1453
SWIDTH 480 0
DWIDTH 8 0
BBX 8 16 0 -4
BITMAP
00
00
00
00
00
00
00
00
00
00
00
00
04
06
03
00
ENDCHAR
STARTCHAR uni05AE
ENCODING 1454
SWIDTH 480 0
DWIDTH 8 0
BBX 8 16 0 -4
BITMAP
48
A8
90
00
00
00
00
00
00
00
00
00
00
00
00
00
ENDCHAR
STARTCHAR uni05AF
ENCODING 1455
SWIDTH 480 0
DWIDTH 8 0
BBX 8 16 0 -4
BITMAP
38
6C
38
00
00
00
00
00
00
00
00
00
00
00
00
00
ENDCHAR
STARTCHAR afii57799
ENCODING 1456
SWIDTH 480 0
DWIDTH 8 0
BBX 8 16 0 -4
BITMAP
00
00
00
00
00
00
00
00
00
00
00
00
18
00
18
00
ENDCHAR
STARTCHAR afii57801
ENCODING 1457
SWIDTH 480 0
DWIDTH 8 0
BBX 8 16 0 -4
BITMAP
00
00
00
00
00
00
00
00
00
00
00
00
DB
00
33
00
ENDCHAR
STARTCHAR afii57800
ENCODING 1458
SWIDTH 480 0
DWIDTH 8 0
BBX 8 16 0 -4
BITMAP
00
00
00
00
00
00
00
00
00
00
00
00
F6
00
06
00
ENDCHAR
STARTCHAR afii57802
ENCODING 1459
SWIDTH 480 0
DWIDTH 8 0
BBX 8 16 0 -4
BITMAP
00
00
00
00
00
00
00
00
00
00
00
00
F6
60
66
00
ENDCHAR
STARTCHAR afii57793
ENCODING 1460
SWIDTH 480 0
DWIDTH 8 0
BBX 8 16 0 -4
BITMAP
00
00
00
00
00
00
00
00
00
00
00
00
18
00
00
00
ENDCHAR
STARTCHAR afii57794
ENCODING 1461
SWIDTH 480 0
DWIDTH 8 0
BBX 8 16 0 -4
BITMAP
00
00
00
00
00
00
00
00
00
00
00
00
66
00
00
00
ENDCHAR
STARTCHAR afii57795
ENCODING 1462
SWIDTH 480 0
DWIDTH 8 0
BBX 8 16 0 -4
BITMAP
00
00
00
00
00
00
00
00
00
00
00
00
66
00
18
00
ENDCHAR
STARTCHAR afii57798
ENCODING 1463
SWIDTH 480 0
DWIDTH 8 0
BBX 8 16 0 -4
BITMAP
00
00
00
00
00
00
00
00
00
00
00
00
00
7E
00
00
ENDCHAR
STARTCHAR afii57797
ENCODING 1464
SWIDTH 480 0
DWIDTH 8 0
BBX 8 16 0 -4
BITMAP
00
00
00
00
00
00
00
00
00
00
00
00
00
7E
18
18
ENDCHAR
STARTCHAR afii57806
ENCODING 1465
SWIDTH 480 0
DWIDTH 8 0
BBX 8 16 0 -4
BITMAP
00
60
60
00
00
00
00
00
00
00
00
00
00
00
00
00
ENDCHAR
STARTCHAR afii57796
ENCODING 1467
SWIDTH 480 0
DWIDTH 8 0
BBX 8 16 0 -4
BITMAP
00
00
00
00
00
00
00
00
00
00
00
00
C0
18
03
00
ENDCHAR
STARTCHAR afii57807
ENCODING 1468
SWIDTH 480 0
DWIDTH 8 0
BBX 8 16 0 -4
BITMAP
00
00
00
00
00
00
00
18
18
00
00
00
00
00
00
00
ENDCHAR
STARTCHAR afii57839
ENCODING 1469
SWIDTH 480 0
DWIDTH 8 0
BBX 8 16 0 -4
BITMAP
00
00
00
00
00
00
00
00
00
00
00
00
00
18
18
18
ENDCHAR
STARTCHAR afii57645
ENCODING 1470
SWIDTH 480 0
DWIDTH 8 0
BBX 8 16 0 -4
BITMAP
00
00
00
7E
FC
00
00
00
00
00
00
00
00
00
00
00
ENDCHAR
STARTCHAR afii57841
ENCODING 1471
SWIDTH 480 0
DWIDTH 8 0
BBX 8 16 0 -4
BITMAP
00
00
7C
00
00
00
00
00
00
00
00
00
00
00
00
00
ENDCHAR
STARTCHAR afii57842
ENCODING 1472
SWIDTH 480 0
DWIDTH 8 0
BBX 8 16 0 -4
BITMAP
00
00
00
00
18
18
18
18
18
18
18
18
00
00
00
00
ENDCHAR
STARTCHAR afii57804
ENCODING 1473
SWIDTH 480 0
DWIDTH 8 0
BBX 8 16 0 -4
BITMAP
00
06
06
00
00
00
00
00
00
00
00
00
00
00
00
00
ENDCHAR
STARTCHAR afii57803
ENCODING 1474
SWIDTH 480 0
DWIDTH 8 0
BBX 8 16 0 -4
BITMAP
00
C0
C0
00
00
00
00
00
00
00
00
00
00
00
00
00
ENDCHAR
STARTCHAR afii57658
ENCODING 1475
SWIDTH 480 0
DWIDTH 8 0
BBX 8 16 0 -4
BITMAP
00
00
00
00
18
18
00
00
00
00
18
18
00
00
00
00
ENDCHAR
STARTCHAR uni05C4
ENCODING 1476
SWIDTH 480 0
DWIDTH 8 0
BBX 8 16 0 -4
BITMAP
00
18
18
00
00
00
00
00
00
00
00
00
00
00
00
00
ENDCHAR
STARTCHAR afii57664
ENCODING 1488
SWIDTH 480 0
DWIDTH 8 0
BBX 8 16 0 -4
BITMAP
00
00
00
00
C6
C6
66
76
DC
CC
C6
C6
00
00
00
00
ENDCHAR
STARTCHAR afii57665
ENCODING 1489
SWIDTH 480 0
DWIDTH 8 0
BBX 8 16 0 -4
BITMAP
00
00
00
00
F8
0C
0C
0C
0C
0C
0C
FE
00
00
00
00
ENDCHAR
STARTCHAR afii57666
ENCODING 1490
SWIDTH 480 0
DWIDTH 8 0
BBX 8 16 0 -4
BITMAP
00
00
00
00
38
0C
0C
0C
0C
1C
36
E6
00
00
00
00
ENDCHAR
STARTCHAR afii57667
ENCODING 1491
SWIDTH 480 0
DWIDTH 8 0
BBX 8 16 0 -4
BITMAP
00
00
00
00
FE
0C
0C
0C
0C
0C
0C
0C
00
00
00
00
ENDCHAR
STARTCHAR afii57668
ENCODING 1492
SWIDTH 480 0
DWIDTH 8 0
BBX 8 16 0 -4
BITMAP
00
00
00
00
FC
06
06
06
C6
C6
C6
C6
00
00
00
00
ENDCHAR
STARTCHAR afii57669
ENCODING 1493
SWIDTH 480 0
DWIDTH 8 0
BBX 8 16 0 -4
BITMAP
00
00
00
00
70
18
18
18
18
18
18
18
00
00
00
00
ENDCHAR
STARTCHAR afii57670
ENCODING 1494
SWIDTH 480 0
DWIDTH 8 0
BBX 8 16 0 -4
BITMAP
00
00
00
00
7E
18
18
18
0C
0C
18
30
00
00
00
00
ENDCHAR
STARTCHAR afii57671
ENCODING 1495
SWIDTH 480 0
DWIDTH 8 0
BBX 8 16 0 -4
BITMAP
00
00
00
00
FC
66
C6
C6
C6
C6
C6
C6
00
00
00
00
ENDCHAR
STARTCHAR afii57672
ENCODING 1496
SWIDTH 480 0
DWIDTH 8 0
BBX 8 16 0 -4
BITMAP
00
00
00
00
CC
D6
D6
C6
C6
C6
C6
7C
00
00
00
00
ENDCHAR
STARTCHAR afii57673
ENCODING 1497
SWIDTH 480 0
DWIDTH 8 0
BBX 8 16 0 -4
BITMAP
00
00
00
00
70
18
18
18
30
00
00
00
00
00
00
00
ENDCHAR
STARTCHAR afii57674
ENCODING 1498
SWIDTH 480 0
DWIDTH 8 0
BBX 8 16 0 -4
BITMAP
00
00
00
00
FC
06
06
06
0C
0C
0C
0C
0C
0C
0E
00
ENDCHAR
STARTCHAR afii57675
ENCODING 1499
SWIDTH 480 0
DWIDTH 8 0
BBX 8 16 0 -4
BITMAP
00
00
00
00
FC
06
06
06
06
06
06
FC
00
00
00
00
ENDCHAR
STARTCHAR afii57676
ENCODING 1500
SWIDTH 480 0
DWIDTH 8 0
BBX 8 16 0 -4
BITMAP
00
00
C0
C0
FC
06
06
06
06
0C
18
18
00
00
00
00
ENDCHAR
STARTCHAR afii57677
ENCODING 1501
SWIDTH 480 0
DWIDTH 8 0
BBX 8 16 0 -4
BITMAP
00
00
00
00
FC
66
C6
C6
C6
C6
C6
FE
00
00
00
00
ENDCHAR
STARTCHAR afii57678
ENCODING 1502
SWIDTH 480 0
DWIDTH 8 0
BBX 8 16 0 -4
BITMAP
00
00
00
00
DC
76
66
C6
C6
C6
C6
DE
00
00
00
00
ENDCHAR
STARTCHAR afii57679
ENCODING 1503
SWIDTH 480 0
DWIDTH 8 0
BBX 8 16 0 -4
BITMAP
00
00
00
00
38
0C
0C
18
18
18
18
18
18
18
1C
00
ENDCHAR
STARTCHAR afii57680
ENCODING 1504
SWIDTH 480 0
DWIDTH 8 0
BBX 8 16 0 -4
BITMAP
00
00
00
00
38
0C
0C
0C
0C
0C
0C
7C
00
00
00
00
ENDCHAR
STARTCHAR afii57681
ENCODING 1505
SWIDTH 480 0
DWIDTH 8 0
BBX 8 16 0 -4
BITMAP
00
00
00
00
FC
66
C6
C6
C6
C6
CC
78
00
00
00
00
ENDCHAR
STARTCHAR afii57682
ENCODING 1506
SWIDTH 480 0
DWIDTH 8 0
BBX 8 16 0 -4
BITMAP
00
00
00
00
EE
66
66
66
66
66
2C
F8
00
00
00
00
ENDCHAR
STARTCHAR afii57683
ENCODING 1507
SWIDTH 480 0
DWIDTH 8 0
BBX 8 16 0 -4
BITMAP
00
00
00
00
F8
4C
CC
CC
EC
0C
0C
0C
0C
0C
0E
00
ENDCHAR
STARTCHAR afii57684
ENCODING 1508
SWIDTH 480 0
DWIDTH 8 0
BBX 8 16 0 -4
BITMAP
00
00
00
00
FC
46
C6
C6
E6
06
06
FE
00
00
00
00
ENDCHAR
STARTCHAR afii57685
ENCODING 1509
SWIDTH 480 0
DWIDTH 8 0
BBX 8 16 0 -4
BITMAP
00
00
00
00
EE
66
66
6C
78
60
60
60
60
60
70
00
ENDCHAR
STARTCHAR afii57686
ENCODING 1510
SWIDTH 480 0
DWIDTH 8 0
BBX 8 16 0 -4
BITMAP
00
00
00
00
EE
66
66
34
18
0C
06
FE
00
00
00
00
ENDCHAR
STARTCHAR afii57687
ENCODING 1511
SWIDTH 480 0
DWIDTH 8 0
BBX 8 16 0 -4
BITMAP
00
00
00
00
FC
06
06
66
64
6C
6E
60
60
60
60
00
ENDCHAR
STARTCHAR afii57688
ENCODING 1512
SWIDTH 480 0
DWIDTH 8 0
BBX 8 16 0 -4
BITMAP
00
00
00
00
FC
06
06
06
06
06
06
06
00
00
00
00
ENDCHAR
STARTCHAR afii57689
ENCODING 1513
SWIDTH 480 0
DWIDTH 8 0
BBX 8 16 0 -4
BITMAP
00
00
00
00
D6
D6
D6
D6
D6
F6
C6
7C
00
00
00
00
ENDCHAR
STARTCHAR afii57690
ENCODING 1514
SWIDTH 480 0
DWIDTH 8 0
BBX 8 16 0 -4
BITMAP
00
00
00
00
FC
66
66
66
66
66
E6
E6
00
00
00
00
ENDCHAR
STARTCHAR afii57716
ENCODING 1520
SWIDTH 480 0
DWIDTH 8 0
BBX 8 16 0 -4
BITMAP
00
00
00
00
CC
66
66
66
66
66
66
66
00
00
00
00
ENDCHAR
STARTCHAR afii57717
ENCODING 1521
SWIDTH 480 0
DWIDTH 8 0
BBX 8 16 0 -4
BITMAP
00
00
00
00
CC
66
66
66
C6
06
06
06
00
00
00
00
ENDCHAR
STARTCHAR afii57718
ENCODING 1522
SWIDTH 480 0
DWIDTH 8 0
BBX 8 16 0 -4
BITMAP
00
00
00
00
CC
66
66
66
CC
00
00
00
00
00
00
00
ENDCHAR
STARTCHAR uni05F3
ENCODING 1523
SWIDTH 480 0
DWIDTH 8 0
BBX 8 16 0 -4
BITMAP
00
00
0C
18
00
00
00
00
00
00
00
00
00
00
00
00
ENDCHAR
STARTCHAR uni05F4
ENCODING 1524
SWIDTH 480 0
DWIDTH 8 0
BBX 8 16 0 -4
BITMAP
00
00
66
CC
00
00
00
00
00
00
00
00
00
00
00
00
ENDCHAR
STARTCHAR afii57388
ENCODING 1548
SWIDTH 480 0
DWIDTH 8 0
BBX 8 16 0 -4
BITMAP
00
00
00
00
00
08
10
18
18
00
00
00
00
00
00
00
ENDCHAR
STARTCHAR afii57403
ENCODING 1563
SWIDTH 480 0
DWIDTH 8 0
BBX 8 16 0 -4
BITMAP
00
00
0C
18
18
00
00
00
18
18
00
00
00
00
00
00
ENDCHAR
STARTCHAR afii57407
ENCODING 1567
SWIDTH 480 0
DWIDTH 8 0
BBX 8 16 0 -4
BITMAP
00
00
1C
22
20
10
08
08
00
08
00
00
00
00
00
00
ENDCHAR
STARTCHAR afii57409
ENCODING 1569
SWIDTH 480 0
DWIDTH 8 0
BBX 8 16 0 -4
BITMAP
00
00
00
00
18
24
20
1E
20
00
00
00
00
00
00
00
ENDCHAR
STARTCHAR afii57410
ENCODING 1570
SWIDTH 480 0
DWIDTH 8 0
BBX 8 16 0 -4
BITMAP
02
3C
40
10
10
10
10
10
10
00
00
00
00
00
00
00
ENDCHAR
STARTCHAR afii57411
ENCODING 1571
SWIDTH 480 0
DWIDTH 8 0
BBX 8 16 0 -4
BITMAP
18
20
1C
20
08
08
08
08
08
00
00
00
00
00
00
00
ENDCHAR
STARTCHAR afii57412
ENCODING 1572
SWIDTH 480 0
DWIDTH 8 0
BBX 8 16 0 -4
BITMAP
00
1C
20
1C
20
0C
12
0E
02
04
18
60
00
00
00
00
ENDCHAR
STARTCHAR afii57413
ENCODING 1573
SWIDTH 480 0
DWIDTH 8 0
BBX 8 16 0 -4
BITMAP
00
00
00
08
08
08
08
08
08
00
18
20
1C
20
00
00
ENDCHAR
STARTCHAR afii57414
ENCODING 1574
SWIDTH 480 0
DWIDTH 8 0
BBX 8 16 0 -4
BITMAP
00
30
40
38
40
07
08
88
86
81
82
7C
00
00
00
00
ENDCHAR
STARTCHAR afii57415
ENCODING 1575
SWIDTH 480 0
DWIDTH 8 0
BBX 8 16 0 -4
BITMAP
00
00
00
08
08
08
08
08
08
00
00
00
00
00
00
00
ENDCHAR
STARTCHAR afii57416
ENCODING 1576
SWIDTH 480 0
DWIDTH 8 0
BBX 8 16 0 -4
BITMAP
00
00
00
00
00
40
81
81
7E
00
00
08
00
00
00
00
ENDCHAR
STARTCHAR afii57417
ENCODING 1577
SWIDTH 480 0
DWIDTH 8 0
BBX 8 16 0 -4
BITMAP
00
28
00
00
18
24
22
22
1C
00
00
00
00
00
00
00
ENDCHAR
STARTCHAR afii57418
ENCODING 1578
SWIDTH 480 0
DWIDTH 8 0
BBX 8 16 0 -4
BITMAP
00
00
00
00
14
40
81
81
7E
00
00
00
00
00
00
00
ENDCHAR
STARTCHAR afii57419
ENCODING 1579
SWIDTH 480 0
DWIDTH 8 0
BBX 8 16 0 -4
BITMAP
00
08
00
14
00
40
81
81
7E
00
00
00
00
00
00
00
ENDCHAR
STARTCHAR afii57420
ENCODING 1580
SWIDTH 480 0
DWIDTH 8 0
BBX 8 16 0 -4
BITMAP
00
00
00
00
70
8F
30
40
80
88
80
41
3E
00
00
00
ENDCHAR
STARTCHAR afii57421
ENCODING 1581
SWIDTH 480 0
DWIDTH 8 0
BBX 8 16 0 -4
BITMAP
00
00
00
00
70
8F
30
40
80
80
80
41
3E
00
00
00
ENDCHAR
STARTCHAR afii57422
ENCODING 1582
SWIDTH 480 0
DWIDTH 8 0
BBX 8 16 0 -4
BITMAP
00
20
00
00
70
8F
30
40
80
80
80
41
3E
00
00
00
ENDCHAR
STARTCHAR afii57423
ENCODING 1583
SWIDTH 480 0
DWIDTH 8 0
BBX 8 16 0 -4
BITMAP
00
00
00
00
08
04
02
42
3C
00
00
00
00
00
00
00
ENDCHAR
STARTCHAR afii57424
ENCODING 1584
SWIDTH 480 0
DWIDTH 8 0
BBX 8 16 0 -4
BITMAP
00
00
10
00
08
04
02
42
3C
00
00
00
00
00
00
00
ENDCHAR
STARTCHAR afii57425
ENCODING 1585
SWIDTH 480 0
DWIDTH 8 0
BBX 8 16 0 -4
BITMAP
00
00
00
00
00
04
02
02
04
18
60
00
00
00
00
00
ENDCHAR
STARTCHAR afii57426
ENCODING 1586
SWIDTH 480 0
DWIDTH 8 0
BBX 8 16 0 -4
BITMAP
00
00
08
00
00
04
02
02
04
18
60
00
00
00
00
00
ENDCHAR
STARTCHAR afii57427
ENCODING 1587
SWIDTH 480 0
DWIDTH 8 0
BBX 8 16 0 -4
BITMAP
00
00
00
00
00
01
15
88
84
84
78
00
00
00
00
00
ENDCHAR
STARTCHAR afii57428
ENCODING 1588
SWIDTH 480 0
DWIDTH 8 0
BBX 8 16 0 -4
BITMAP
00
08
00
14
00
01
15
88
84
84
78
00
00
00
00
00
ENDCHAR
STARTCHAR afii57429
ENCODING 1589
SWIDTH 480 0
DWIDTH 8 0
BBX 8 16 0 -4
BITMAP
00
00
00
00
06
09
31
9E
88
88
70
00
00
00
00
00
ENDCHAR
STARTCHAR afii57430
ENCODING 1590
SWIDTH 480 0
DWIDTH 8 0
BBX 8 16 0 -4
BITMAP
00
00
04
00
06
09
31
9E
88
88
70
00
00
00
00
00
ENDCHAR
STARTCHAR afii57431
ENCODING 1591
SWIDTH 480 0
DWIDTH 8 0
BBX 8 16 0 -4
BITMAP
00
00
20
20
20
2C
32
A2
7C
00
00
00
00
00
00
00
ENDCHAR
STARTCHAR afii57432
ENCODING 1592
SWIDTH 480 0
DWIDTH 8 0
BBX 8 16 0 -4
BITMAP
00
00
24
20
20
2C
32
A2
7C
00
00
00
00
00
00
00
ENDCHAR
STARTCHAR afii57433
ENCODING 1593
SWIDTH 480 0
DWIDTH 8 0
BBX 8 16 0 -4
BITMAP
00
00
00
00
70
80
8C
70
40
80
80
80
41
3E
00
00
ENDCHAR
STARTCHAR afii57434
ENCODING 1594
SWIDTH 480 0
DWIDTH 8 0
BBX 8 16 0 -4
BITMAP
00
40
00
00
70
80
8C
70
40
80
80
80
41
3E
00
00
ENDCHAR
STARTCHAR afii57440
ENCODING 1600
SWIDTH 480 0
DWIDTH 8 0
BBX 8 16 0 -4
BITMAP
00
00
00
00
00
00
00
00
FF
00
00
00
00
00
00
00
ENDCHAR
STARTCHAR afii57441
ENCODING 1601
SWIDTH 480 0
DWIDTH 8 0
BBX 8 16 0 -4
BITMAP
00
00
04
00
06
49
85
83
7E
00
00
00
00
00
00
00
ENDCHAR
STARTCHAR afii57442
ENCODING 1602
SWIDTH 480 0
DWIDTH 8 0
BBX 8 16 0 -4
BITMAP
00
00
0A
00
06
09
09
47
81
81
81
42
3C
00
00
00
ENDCHAR
STARTCHAR afii57443
ENCODING 1603
SWIDTH 480 0
DWIDTH 8 0
BBX 8 16 0 -4
BITMAP
00
00
19
21
19
21
01
81
7E
00
00
00
00
00
00
00
ENDCHAR
STARTCHAR afii57444
ENCODING 1604
SWIDTH 480 0
DWIDTH 8 0
BBX 8 16 0 -4
BITMAP
00
02
02
02
02
02
42
82
82
84
78
00
00
00
00
00
ENDCHAR
STARTCHAR afii57445
ENCODING 1605
SWIDTH 480 0
DWIDTH 8 0
BBX 8 16 0 -4
BITMAP
00
00
00
00
0C
12
12
3C
40
40
40
40
40
40
00
00
ENDCHAR
STARTCHAR afii57446
ENCODING 1606
SWIDTH 480 0
DWIDTH 8 0
BBX 8 16 0 -4
BITMAP
00
00
08
00
00
41
81
81
81
42
3C
00
00
00
00
00
ENDCHAR
STARTCHAR afii57470
ENCODING 1607
SWIDTH 480 0
DWIDTH 8 0
BBX 8 16 0 -4
BITMAP
00
00
00
40
30
4E
49
39
E6
00
00
00
00
00
00
00
ENDCHAR
STARTCHAR afii57448
ENCODING 1608
SWIDTH 480 0
DWIDTH 8 0
BBX 8 16 0 -4
BITMAP
00
00
00
00
00
0C
12
0E
02
04
18
60
00
00
00
00
ENDCHAR
STARTCHAR afii57449
ENCODING 1609
SWIDTH 480 0
DWIDTH 8 0
BBX 8 16 0 -4
BITMAP
00
00
00
00
00
07
08
88
86
81
81
7E
00
00
00
00
ENDCHAR
STARTCHAR afii57450
ENCODING 1610
SWIDTH 480 0
DWIDTH 8 0
BBX 8 16 0 -4
BITMAP
00
00
00
00
00
07
08
88
86
81
81
7E
00
00
24
00
ENDCHAR
STARTCHAR afii57451
ENCODING 1611
SWIDTH 480 0
DWIDTH 8 0
BBX 8 16 0 -4
BITMAP
0C
30
0C
30
00
00
00
00
00
00
00
00
00
00
00
00
ENDCHAR
STARTCHAR afii57452
ENCODING 1612
SWIDTH 480 0
DWIDTH 8 0
BBX 8 16 0 -4
BITMAP
0C
12
CA
2C
70
00
00
00
00
00
00
00
00
00
00
00
ENDCHAR
STARTCHAR afii57453
ENCODING 1613
SWIDTH 480 0
DWIDTH 8 0
BBX 8 16 0 -4
BITMAP
00
00
00
00
00
00
00
00
00
00
0C
30
0C
30
00
00
ENDCHAR
STARTCHAR afii57454
ENCODING 1614
SWIDTH 480 0
DWIDTH 8 0
BBX 8 16 0 -4
BITMAP
0C
30
00
00
00
00
00
00
00
00
00
00
00
00
00
00
ENDCHAR
STARTCHAR afii57455
ENCODING 1615
SWIDTH 480 0
DWIDTH 8 0
BBX 8 16 0 -4
BITMAP
08
14
0C
08
10
00
00
00
00
00
00
00
00
00
00
00
ENDCHAR
STARTCHAR afii57456
ENCODING 1616
SWIDTH 480 0
DWIDTH 8 0
BBX 8 16 0 -4
BITMAP
00
00
00
00
00
00
00
00
00
00
00
00
0C
30
00
00
ENDCHAR
STARTCHAR afii57457
ENCODING 1617
SWIDTH 480 0
DWIDTH 8 0
BBX 8 16 0 -4
BITMAP
0A
2A
2C
10
00
00
00
00
00
00
00
00
00
00
00
00
ENDCHAR
STARTCHAR afii57458
ENCODING 1618
SWIDTH 480 0
DWIDTH 8 0
BBX 8 16 0 -4
BITMAP
18
24
18
00
00
00
00
00
00
00
00
00
00
00
00
00
ENDCHAR
STARTCHAR uni0653
ENCODING 1619
SWIDTH 480 0
DWIDTH 8 0
BBX 8 16 0 -4
BITMAP
01
7E
80
00
00
00
00
00
00
00
00
00
00
00
00
00
ENDCHAR
STARTCHAR uni0654
ENCODING 1620
SWIDTH 480 0
DWIDTH 8 0
BBX 8 16 0 -4
BITMAP
0C
10
0C
10
00
00
00
00
00
00
00
00
00
00
00
00
ENDCHAR
STARTCHAR uni0655
ENCODING 1621
SWIDTH 480 0
DWIDTH 8 0
BBX 8 16 0 -4
BITMAP
00
00
00
00
00
00
00
00
00
00
00
00
0C
10
0C
10
ENDCHAR
STARTCHAR afii57392
ENCODING 1632
SWIDTH 480 0
DWIDTH 8 0
BBX 8 16 0 -4
BITMAP
00
00
00
00
00
00
30
78
30
00
00
00
00
00
00
00
ENDCHAR
STARTCHAR afii57393
ENCODING 1633
SWIDTH 480 0
DWIDTH 8 0
BBX 8 16 0 -4
BITMAP
00
00
20
70
70
38
18
18
08
08
08
00
00
00
00
00
ENDCHAR
STARTCHAR afii57394
ENCODING 1634
SWIDTH 480 0
DWIDTH 8 0
BBX 8 16 0 -4
BITMAP
00
00
44
FC
F8
60
30
30
10
10
10
00
00
00
00
00
ENDCHAR
STARTCHAR afii57395
ENCODING 1635
SWIDTH 480 0
DWIDTH 8 0
BBX 8 16 0 -4
BITMAP
00
00
4A
FE
F4
60
30
30
10
10
10
00
00
00
00
00
ENDCHAR
STARTCHAR afii57396
ENCODING 1636
SWIDTH 480 0
DWIDTH 8 0
BBX 8 16 0 -4
BITMAP
00
00
10
20
40
30
10
20
42
7C
38
00
00
00
00
00
ENDCHAR
STARTCHAR afii57397
ENCODING 1637
SWIDTH 480 0
DWIDTH 8 0
BBX 8 16 0 -4
BITMAP
00
00
10
38
2C
44
42
82
82
FE
7C
00
00
00
00
00
ENDCHAR
STARTCHAR afii57398
ENCODING 1638
SWIDTH 480 0
DWIDTH 8 0
BBX 8 16 0 -4
BITMAP
00
00
80
F8
78
08
08
08
0C
0E
06
00
00
00
00
00
ENDCHAR
STARTCHAR afii57399
ENCODING 1639
SWIDTH 480 0
DWIDTH 8 0
BBX 8 16 0 -4
BITMAP
00
00
82
C6
C6
6C
28
38
10
10
10
00
00
00
00
00
ENDCHAR
STARTCHAR afii57400
ENCODING 1640
SWIDTH 480 0
DWIDTH 8 0
BBX 8 16 0 -4
BITMAP
00
00
10
10
10
38
28
6C
C6
C6
82
00
00
00
00
00
ENDCHAR
STARTCHAR afii57401
ENCODING 1641
SWIDTH 480 0
DWIDTH 8 0
BBX 8 16 0 -4
BITMAP
00
00
70
F8
88
F8
78
08
0C
0E
06
00
00
00
00
00
ENDCHAR
STARTCHAR afii57381
ENCODING 1642
SWIDTH 480 0
DWIDTH 8 0
BBX 8 16 0 -4
BITMAP
00
00
60
91
92
64
08
10
26
49
89
06
00
00
00
00
ENDCHAR
STARTCHAR uni066B
ENCODING 1643
SWIDTH 480 0
DWIDTH 8 0
BBX 8 16 0 -4
BITMAP
00
00
00
00
00
00
00
00
18
18
30
30
60
60
00
00
ENDCHAR
STARTCHAR uni066C
ENCODING 1644
SWIDTH 480 0
DWIDTH 8 0
BBX 8 16 0 -4
BITMAP
00
10
38
18
10
20
00
00
00
00
00
00
00
00
00
00
ENDCHAR
STARTCHAR afii63167
ENCODING 1645
SWIDTH 480 0
DWIDTH 8 0
BBX 8 16 0 -4
BITMAP
00
00
00
10
10
38
FE
7C
38
6C
44
00
00
00
00
00
ENDCHAR
STARTCHAR uni0670
ENCODING 1648
SWIDTH 480 0
DWIDTH 8 0
BBX 8 16 0 -4
BITMAP
10
10
10
10
00
00
00
00
00
00
00
00
00
00
00
00
ENDCHAR
STARTCHAR uni0671
ENCODING 1649
SWIDTH 480 0
DWIDTH 8 0
BBX 8 16 0 -4
BITMAP
06
29
5E
00
04
04
04
04
04
00
00
00
00
00
00
00
ENDCHAR
STARTCHAR uni0672
ENCODING 1650
SWIDTH 480 0
DWIDTH 8 0
BBX 8 16 0 -4
BITMAP
06
28
5E
00
04
04
04
04
04
00
00
00
00
00
00
00
ENDCHAR
STARTCHAR uni0673
ENCODING 1651
SWIDTH 480 0
DWIDTH 8 0
BBX 8 16 0 -4
BITMAP
00
00
00
04
04
04
04
04
04
00
06
28
5E
00
00
00
ENDCHAR
STARTCHAR uni0674
ENCODING 1652
SWIDTH 480 0
DWIDTH 8 0
BBX 8 16 0 -4
BITMAP
00
07
08
07
08
00
00
00
00
00
00
00
00
00
00
00
ENDCHAR
STARTCHAR uni0675
ENCODING 1653
SWIDTH 480 0
DWIDTH 8 0
BBX 8 16 0 -4
BITMAP
03
04
03
14
10
10
10
10
10
00
00
00
00
00
00
00
ENDCHAR
STARTCHAR uni0676
ENCODING 1654
SWIDTH 480 0
DWIDTH 8 0
BBX 8 16 0 -4
BITMAP
03
04
03
04
00
0C
12
0E
02
04
18
60
00
00
00
00
ENDCHAR
STARTCHAR uni0677
ENCODING 1655
SWIDTH 480 0
DWIDTH 8 0
BBX 8 16 0 -4
BITMAP
23
54
33
24
40
0C
12
0E
02
04
18
60
00
00
00
00
ENDCHAR
STARTCHAR uni0678
ENCODING 1656
SWIDTH 480 0
DWIDTH 8 0
BBX 8 16 0 -4
BITMAP
03
04
03
04
00
07
08
88
86
81
81
7E
00
00
00
00
ENDCHAR
STARTCHAR afii57511
ENCODING 1657
SWIDTH 480 0
DWIDTH 8 0
BBX 8 16 0 -4
BITMAP
10
1C
14
38
00
40
81
81
7E
00
00
00
00
00
00
00
ENDCHAR
STARTCHAR uni067A
ENCODING 1658
SWIDTH 480 0
DWIDTH 8 0
BBX 8 16 0 -4
BITMAP
00
08
00
08
00
40
81
81
7E
00
00
00
00
00
00
00
ENDCHAR
STARTCHAR uni067B
ENCODING 1659
SWIDTH 480 0
DWIDTH 8 0
BBX 8 16 0 -4
BITMAP
00
00
00
00
00
40
81
81
7E
00
08
00
08
00
00
00
ENDCHAR
STARTCHAR uni067C
ENCODING 1660
SWIDTH 480 0
DWIDTH 8 0
BBX 8 16 0 -4
BITMAP
00
00
00
00
14
40
81
81
7E
08
14
08
00
00
00
00
ENDCHAR
STARTCHAR uni067D
ENCODING 1661
SWIDTH 480 0
DWIDTH 8 0
BBX 8 16 0 -4
BITMAP
00
14
00
08
00
40
81
81
7E
00
00
00
00
00
00
00
ENDCHAR
STARTCHAR afii57506
ENCODING 1662
SWIDTH 480 0
DWIDTH 8 0
BBX 8 16 0 -4
BITMAP
00
00
00
00
00
40
81
81
7E
00
00
14
00
08
00
00
ENDCHAR
STARTCHAR uni067F
ENCODING 1663
SWIDTH 480 0
DWIDTH 8 0
BBX 8 16 0 -4
BITMAP
00
14
00
14
00
40
81
81
7E
00
00
00
00
00
00
00
ENDCHAR
STARTCHAR uni0680
ENCODING 1664
SWIDTH 480 0
DWIDTH 8 0
BBX 8 16 0 -4
BITMAP
00
00
00
00
00
40
81
81
7E
00
00
14
00
14
00
00
ENDCHAR
STARTCHAR uni0681
ENCODING 1665
SWIDTH 480 0
DWIDTH 8 0
BBX 8 16 0 -4
BITMAP
06
08
06
08
70
8F
30
40
80
80
80
41
3E
00
00
00
ENDCHAR
STARTCHAR uni0682
ENCODING 1666
SWIDTH 480 0
DWIDTH 8 0
BBX 8 16 0 -4
BITMAP
08
00
08
00
70
8F
30
40
80
80
80
41
3E
00
00
00
ENDCHAR
STARTCHAR uni0683
ENCODING 1667
SWIDTH 480 0
DWIDTH 8 0
BBX 8 16 0 -4
BITMAP
00
00
00
00
70
8F
30
40
80
94
80
41
3E
00
00
00
ENDCHAR
STARTCHAR uni0684
ENCODING 1668
SWIDTH 480 0
DWIDTH 8 0
BBX 8 16 0 -4
BITMAP
00
00
00
00
70
8F
30
40
88
80
88
41
3E
00
00
00
ENDCHAR
STARTCHAR uni0685
ENCODING 1669
SWIDTH 480 0
DWIDTH 8 0
BBX 8 16 0 -4
BITMAP
08
00
14
00
70
8F
30
40
80
80
80
41
3E
00
00
00
ENDCHAR
STARTCHAR afii57507
ENCODING 1670
SWIDTH 480 0
DWIDTH 8 0
BBX 8 16 0 -4
BITMAP
00
00
00
00
70
8F
30
40
94
80
88
41
3E
00
00
00
ENDCHAR
STARTCHAR uni0687
ENCODING 1671
SWIDTH 480 0
DWIDTH 8 0
BBX 8 16 0 -4
BITMAP
00
00
00
00
70
8F
30
40
94
80
94
41
3E
00
00
00
ENDCHAR
STARTCHAR afii57512
ENCODING 1672
SWIDTH 480 0
DWIDTH 8 0
BBX 8 16 0 -4
BITMAP
20
38
28
70
08
04
02
42
3C
00
00
00
00
00
00
00
ENDCHAR
STARTCHAR uni0689
ENCODING 1673
SWIDTH 480 0
DWIDTH 8 0
BBX 8 16 0 -4
BITMAP
00
00
00
00
08
04
02
42
3C
08
14
08
00
00
00
00
ENDCHAR
STARTCHAR uni068A
ENCODING 1674
SWIDTH 480 0
DWIDTH 8 0
BBX 8 16 0 -4
BITMAP
00
00
00
00
08
04
02
42
3C
00
00
08
00
00
00
00
ENDCHAR
STARTCHAR uni068B
ENCODING 1675
SWIDTH 480 0
DWIDTH 8 0
BBX 8 16 0 -4
BITMAP
20
38
28
70
08
04
02
42
3C
00
00
08
00
00
00
00
ENDCHAR
STARTCHAR uni068C
ENCODING 1676
SWIDTH 480 0
DWIDTH 8 0
BBX 8 16 0 -4
BITMAP
00
14
00
00
08
04
02
42
3C
00
00
00
00
00
00
00
ENDCHAR
STARTCHAR uni068D
ENCODING 1677
SWIDTH 480 0
DWIDTH 8 0
BBX 8 16 0 -4
BITMAP
00
00
00
00
08
04
02
42
3C
00
00
14
00
00
00
00
ENDCHAR
STARTCHAR uni068E
ENCODING 1678
SWIDTH 480 0
DWIDTH 8 0
BBX 8 16 0 -4
BITMAP
08
00
14
00
08
04
02
42
3C
00
00
00
00
00
00
00
ENDCHAR
STARTCHAR uni068F
ENCODING 1679
SWIDTH 480 0
DWIDTH 8 0
BBX 8 16 0 -4
BITMAP
14
00
08
00
08
04
02
42
3C
00
00
00
00
00
00
00
ENDCHAR
STARTCHAR uni0690
ENCODING 1680
SWIDTH 480 0
DWIDTH 8 0
BBX 8 16 0 -4
BITMAP
14
00
14
00
08
04
02
42
3C
00
00
00
00
00
00
00
ENDCHAR
STARTCHAR afii57513
ENCODING 1681
SWIDTH 480 0
DWIDTH 8 0
BBX 8 16 0 -4
BITMAP
10
1C
14
38
00
04
02
02
04
18
60
00
00
00
00
00
ENDCHAR
STARTCHAR uni0692
ENCODING 1682
SWIDTH 480 0
DWIDTH 8 0
BBX 8 16 0 -4
BITMAP
00
14
08
00
00
04
02
02
04
18
60
00
00
00
00
00
ENDCHAR
STARTCHAR uni0693
ENCODING 1683
SWIDTH 480 0
DWIDTH 8 0
BBX 8 16 0 -4
BITMAP
00
00
00
00
00
04
02
02
04
1C
6A
04
00
00
00
00
ENDCHAR
STARTCHAR uni0694
ENCODING 1684
SWIDTH 480 0
DWIDTH 8 0
BBX 8 16 0 -4
BITMAP
00
00
00
00
00
04
02
02
04
18
62
00
00
00
00
00
ENDCHAR
STARTCHAR uni0695
ENCODING 1685
SWIDTH 480 0
DWIDTH 8 0
BBX 8 16 0 -4
BITMAP
00
00
00
00
00
04
02
02
04
18
60
00
14
08
00
00
ENDCHAR
STARTCHAR uni0696
ENCODING 1686
SWIDTH 480 0
DWIDTH 8 0
BBX 8 16 0 -4
BITMAP
00
00
00
00
00
04
02
12
04
18
62
00
00
00
00
00
ENDCHAR
STARTCHAR uni0697
ENCODING 1687
SWIDTH 480 0
DWIDTH 8 0
BBX 8 16 0 -4
BITMAP
00
00
14
00
00
04
02
02
04
18
60
00
00
00
00
00
ENDCHAR
STARTCHAR afii57508
ENCODING 1688
SWIDTH 480 0
DWIDTH 8 0
BBX 8 16 0 -4
BITMAP
08
00
14
00
00
04
02
02
04
18
60
00
00
00
00
00
ENDCHAR
STARTCHAR uni0699
ENCODING 1689
SWIDTH 480 0
DWIDTH 8 0
BBX 8 16 0 -4
BITMAP
14
00
14
00
00
04
02
02
04
18
60
00
00
00
00
00
ENDCHAR
STARTCHAR uni069A
ENCODING 1690
SWIDTH 480 0
DWIDTH 8 0
BBX 8 16 0 -4
BITMAP
00
00
00
04
00
01
15
88
88
8A
70
00
00
00
00
00
ENDCHAR
STARTCHAR uni069B
ENCODING 1691
SWIDTH 480 0
DWIDTH 8 0
BBX 8 16 0 -4
BITMAP
00
00
00
00
00
01
15
88
88
90
65
00
02
00
00
00
ENDCHAR
STARTCHAR uni069C
ENCODING 1692
SWIDTH 480 0
DWIDTH 8 0
BBX 8 16 0 -4
BITMAP
00
04
00
0A
00
01
15
88
88
90
65
00
02
00
00
00
ENDCHAR
STARTCHAR uni069D
ENCODING 1693
SWIDTH 480 0
DWIDTH 8 0
BBX 8 16 0 -4
BITMAP
00
00
00
00
06
09
31
9E
88
90
65
00
00
00
00
00
ENDCHAR
STARTCHAR uni069E
ENCODING 1694
SWIDTH 480 0
DWIDTH 8 0
BBX 8 16 0 -4
BITMAP
04
00
0A
00
06
09
31
9E
88
88
70
00
00
00
00
00
ENDCHAR
STARTCHAR uni069F
ENCODING 1695
SWIDTH 480 0
DWIDTH 8 0
BBX 8 16 0 -4
BITMAP
04
00
2A
20
20
2C
32
A2
7C
00
00
00
00
00
00
00
ENDCHAR
STARTCHAR uni06A0
ENCODING 1696
SWIDTH 480 0
DWIDTH 8 0
BBX 8 16 0 -4
BITMAP
20
00
50
00
70
80
8C
70
40
80
80
80
41
3E
00
00
ENDCHAR
STARTCHAR uni06A1
ENCODING 1697
SWIDTH 480 0
DWIDTH 8 0
BBX 8 16 0 -4
BITMAP
00
00
00
00
06
49
85
83
7E
00
00
00
00
00
00
00
ENDCHAR
STARTCHAR uni06A2
ENCODING 1698
SWIDTH 480 0
DWIDTH 8 0
BBX 8 16 0 -4
BITMAP
00
00
00
00
06
49
85
83
7E
00
02
00
00
00
00
00
ENDCHAR
STARTCHAR uni06A3
ENCODING 1699
SWIDTH 480 0
DWIDTH 8 0
BBX 8 16 0 -4
BITMAP
00
00
04
00
06
49
85
83
7E
00
08
00
00
00
00
00
ENDCHAR
STARTCHAR afii57505
ENCODING 1700
SWIDTH 480 0
DWIDTH 8 0
BBX 8 16 0 -4
BITMAP
04
00
0A
00
06
49
85
83
7E
00
00
00
00
00
00
00
ENDCHAR
STARTCHAR uni06A5
ENCODING 1701
SWIDTH 480 0
DWIDTH 8 0
BBX 8 16 0 -4
BITMAP
00
00
00
00
06
49
85
83
7E
00
0A
00
04
00
00
00
ENDCHAR
STARTCHAR uni06A6
ENCODING 1702
SWIDTH 480 0
DWIDTH 8 0
BBX 8 16 0 -4
BITMAP
0A
00
0A
00
06
49
85
83
7E
00
00
00
00
00
00
00
ENDCHAR
STARTCHAR uni06A7
ENCODING 1703
SWIDTH 480 0
DWIDTH 8 0
BBX 8 16 0 -4
BITMAP
00
00
04
00
06
09
09
47
81
81
81
42
3C
00
00
00
ENDCHAR
STARTCHAR uni06A8
ENCODING 1704
SWIDTH 480 0
DWIDTH 8 0
BBX 8 16 0 -4
BITMAP
04
00
0A
00
06
09
09
47
81
81
81
42
3C
00
00
00
ENDCHAR
STARTCHAR uni06A9
ENCODING 1705
SWIDTH 480 0
DWIDTH 8 0
BBX 8 16 0 -4
BITMAP
00
01
02
04
08
44
82
82
7C
00
00
00
00
00
00
00
ENDCHAR
STARTCHAR uni06AA
ENCODING 1706
SWIDTH 480 0
DWIDTH 8 0
BBX 8 16 0 -4
BITMAP
00
00
00
18
20
40
3E
01
81
7E
00
00
00
00
00
00
ENDCHAR
STARTCHAR uni06AB
ENCODING 1707
SWIDTH 480 0
DWIDTH 8 0
BBX 8 16 0 -4
BITMAP
00
01
02
05
0B
48
84
82
7C
00
00
00
00
00
00
00
ENDCHAR
STARTCHAR uni06AC
ENCODING 1708
SWIDTH 480 0
DWIDTH 8 0
BBX 8 16 0 -4
BITMAP
04
00
19
21
19
21
01
81
7E
00
00
00
00
00
00
00
ENDCHAR
STARTCHAR uni06AD
ENCODING 1709
SWIDTH 480 0
DWIDTH 8 0
BBX 8 16 0 -4
BITMAP
10
00
29
01
19
21
19
A1
7E
00
00
00
00
00
00
00
ENDCHAR
STARTCHAR uni06AE
ENCODING 1710
SWIDTH 480 0
DWIDTH 8 0
BBX 8 16 0 -4
BITMAP
00
00
19
21
19
21
01
81
7E
00
14
00
08
00
00
00
ENDCHAR
STARTCHAR afii57509
ENCODING 1711
SWIDTH 480 0
DWIDTH 8 0
BBX 8 16 0 -4
BITMAP
04
09
12
04
08
44
82
82
7C
00
00
00
00
00
00
00
ENDCHAR
STARTCHAR uni06B0
ENCODING 1712
SWIDTH 480 0
DWIDTH 8 0
BBX 8 16 0 -4
BITMAP
04
09
12
05
0B
48
84
82
7C
00
00
00
00
00
00
00
ENDCHAR
STARTCHAR uni06B1
ENCODING 1713
SWIDTH 480 0
DWIDTH 8 0
BBX 8 16 0 -4
BITMAP
A4
09
12
04
08
44
82
82
7C
00
00
00
00
00
00
00
ENDCHAR
STARTCHAR uni06B2
ENCODING 1714
SWIDTH 480 0
DWIDTH 8 0
BBX 8 16 0 -4
BITMAP
04
09
12
04
08
44
82
82
7C
00
14
00
00
00
00
00
ENDCHAR
STARTCHAR uni06B3
ENCODING 1715
SWIDTH 480 0
DWIDTH 8 0
BBX 8 16 0 -4
BITMAP
04
09
12
04
08
44
82
82
7C
00
08
00
08
00
00
00
ENDCHAR
STARTCHAR uni06B4
ENCODING 1716
SWIDTH 480 0
DWIDTH 8 0
BBX 8 16 0 -4
BITMAP
44
09
A2
04
08
44
82
82
7C
00
00
00
00
00
00
00
ENDCHAR
STARTCHAR uni06B5
ENCODING 1717
SWIDTH 480 0
DWIDTH 8 0
BBX 8 16 0 -4
BITMAP
14
08
02
02
02
02
42
82
82
84
78
00
00
00
00
00
ENDCHAR
STARTCHAR uni06B6
ENCODING 1718
SWIDTH 480 0
DWIDTH 8 0
BBX 8 16 0 -4
BITMAP
08
02
02
02
02
02
42
82
82
84
78
00
00
00
00
00
ENDCHAR
STARTCHAR uni06B7
ENCODING 1719
SWIDTH 480 0
DWIDTH 8 0
BBX 8 16 0 -4
BITMAP
10
02
2A
02
02
02
42
82
82
84
78
00
00
00
00
00
ENDCHAR
STARTCHAR uni06B8
ENCODING 1720
SWIDTH 480 0
DWIDTH 8 0
BBX 8 16 0 -4
BITMAP
00
02
02
02
02
02
42
82
82
84
78
00
14
00
08
00
ENDCHAR
STARTCHAR uni06B9
ENCODING 1721
SWIDTH 480 0
DWIDTH 8 0
BBX 8 16 0 -4
BITMAP
00
08
00
00
00
41
81
81
81
42
3C
00
00
04
00
00
ENDCHAR
STARTCHAR afii57514
ENCODING 1722
SWIDTH 480 0
DWIDTH 8 0
BBX 8 16 0 -4
BITMAP
00
00
00
00
00
41
81
81
81
42
3C
00
00
00
00
00
ENDCHAR
STARTCHAR uni06BB
ENCODING 1723
SWIDTH 480 0
DWIDTH 8 0
BBX 8 16 0 -4
BITMAP
10
1C
14
38
00
41
81
81
81
42
3C
00
00
00
00
00
ENDCHAR
STARTCHAR uni06BC
ENCODING 1724
SWIDTH 480 0
DWIDTH 8 0
BBX 8 16 0 -4
BITMAP
00
00
08
00
00
41
81
81
81
42
3C
08
14
08
00
00
ENDCHAR
STARTCHAR uni06BD
ENCODING 1725
SWIDTH 480 0
DWIDTH 8 0
BBX 8 16 0 -4
BITMAP
08
00
14
00
00
41
81
81
81
42
3C
00
00
00
00
00
ENDCHAR
STARTCHAR uni06BE
ENCODING 1726
SWIDTH 480 0
DWIDTH 8 0
BBX 8 16 0 -4
BITMAP
00
00
00
10
38
4C
52
32
3C
40
00
00
00
00
00
00
ENDCHAR
STARTCHAR uni06BF
ENCODING 1727
SWIDTH 480 0
DWIDTH 8 0
BBX 8 16 0 -4
BITMAP
00
00
10
00
70
8F
30
40
94
80
88
41
3E
00
00
00
ENDCHAR
STARTCHAR uni06C0
ENCODING 1728
SWIDTH 480 0
DWIDTH 8 0
BBX 8 16 0 -4
BITMAP
38
40
38
40
18
24
22
22
1C
00
00
00
00
00
00
00
ENDCHAR
STARTCHAR uni06C1
ENCODING 1729
SWIDTH 480 0
DWIDTH 8 0
BBX 8 16 0 -4
BITMAP
00
00
00
00
00
00
00
0C
13
00
00
00
00
00
00
00
ENDCHAR
STARTCHAR uni06C2
ENCODING 1730
SWIDTH 480 0
DWIDTH 8 0
BBX 8 16 0 -4
BITMAP
00
00
38
40
38
40
00
0C
13
00
00
00
00
00
00
00
ENDCHAR
STARTCHAR uni06C3
ENCODING 1731
SWIDTH 480 0
DWIDTH 8 0
BBX 8 16 0 -4
BITMAP
00
00
00
14
00
00
00
0C
13
00
00
00
00
00
00
00
ENDCHAR
STARTCHAR uni06C4
ENCODING 1732
SWIDTH 480 0
DWIDTH 8 0
BBX 8 16 0 -4
BITMAP
00
00
00
00
00
0C
12
0E
12
2C
18
60
00
00
00
00
ENDCHAR
STARTCHAR uni06C5
ENCODING 1733
SWIDTH 480 0
DWIDTH 8 0
BBX 8 16 0 -4
BITMAP
00
00
00
00
00
0C
12
0E
02
3C
18
60
00
00
00
00
ENDCHAR
STARTCHAR uni06C6
ENCODING 1734
SWIDTH 480 0
DWIDTH 8 0
BBX 8 16 0 -4
BITMAP
00
14
08
00
00
0C
12
0E
02
04
18
60
00
00
00
00
ENDCHAR
STARTCHAR uni06C7
ENCODING 1735
SWIDTH 480 0
DWIDTH 8 0
BBX 8 16 0 -4
BITMAP
10
28
18
10
20
0C
12
0E
02
04
18
60
00
00
00
00
ENDCHAR
STARTCHAR uni06C8
ENCODING 1736
SWIDTH 480 0
DWIDTH 8 0
BBX 8 16 0 -4
BITMAP
08
08
08
08
00
0C
12
0E
02
04
18
60
00
00
00
00
ENDCHAR
STARTCHAR uni06C9
ENCODING 1737
SWIDTH 480 0
DWIDTH 8 0
BBX 8 16 0 -4
BITMAP
00
08
14
00
00
0C
12
0E
02
04
18
60
00
00
00
00
ENDCHAR
STARTCHAR uni06CA
ENCODING 1738
SWIDTH 480 0
DWIDTH 8 0
BBX 8 16 0 -4
BITMAP
00
00
14
00
00
0C
12
0E
02
04
18
60
00
00
00
00
ENDCHAR
STARTCHAR uni06CB
ENCODING 1739
SWIDTH 480 0
DWIDTH 8 0
BBX 8 16 0 -4
BITMAP
08
00
14
00
00
0C
12
0E
02
04
18
60
00
00
00
00
ENDCHAR
STARTCHAR uni06CC
ENCODING 1740
SWIDTH 480 0
DWIDTH 8 0
BBX 8 16 0 -4
BITMAP
00
00
00
00
00
07
08
88
86
81
81
7E
00
00
00
00
ENDCHAR
STARTCHAR uni06CD
ENCODING 1741
SWIDTH 480 0
DWIDTH 8 0
BBX 8 16 0 -4
BITMAP
00
00
00
00
20
47
88
08
86
81
81
7E
00
00
00
00
ENDCHAR
STARTCHAR uni06CE
ENCODING 1742
SWIDTH 480 0
DWIDTH 8 0
BBX 8 16 0 -4
BITMAP
00
00
00
50
20
07
08
88
86
81
81
7E
00
00
00
00
ENDCHAR
STARTCHAR uni06CF
ENCODING 1743
SWIDTH 480 0
DWIDTH 8 0
BBX 8 16 0 -4
BITMAP
00
00
08
00
00
0C
12
0E
02
04
18
60
00
00
00
00
ENDCHAR
STARTCHAR uni06D0
ENCODING 1744
SWIDTH 480 0
DWIDTH 8 0
BBX 8 16 0 -4
BITMAP
00
00
00
00
00
07
08
88
86
81
82
7C
00
08
00
08
ENDCHAR
STARTCHAR uni06D1
ENCODING 1745
SWIDTH 480 0
DWIDTH 8 0
BBX 8 16 0 -4
BITMAP
00
00
00
00
00
07
08
88
86
81
82
7C
00
14
00
08
ENDCHAR
STARTCHAR afii57519
ENCODING 1746
SWIDTH 480 0
DWIDTH 8 0
BBX 8 16 0 -4
BITMAP
00
00
00
00
00
00
08
14
60
80
FE
00
00
00
00
00
ENDCHAR
STARTCHAR uni06D3
ENCODING 1747
SWIDTH 480 0
DWIDTH 8 0
BBX 8 16 0 -4
BITMAP
00
00
60
80
60
80
08
14
60
80
FE
00
00
00
00
00
ENDCHAR
STARTCHAR uni06D4
ENCODING 1748
SWIDTH 480 0
DWIDTH 8 0
BBX 8 16 0 -4
BITMAP
00
00
00
00
00
00
00
3C
00
00
00
00
00
00
00
00
ENDCHAR
STARTCHAR afii57534
ENCODING 1749
SWIDTH 480 0
DWIDTH 8 0
BBX 8 16 0 -4
BITMAP
00
00
00
00
18
24
22
22
1C
00
00
00
00
00
00
00
ENDCHAR
STARTCHAR uni06D6
ENCODING 1750
SWIDTH 480 0
DWIDTH 8 0
BBX 8 16 0 -4
BITMAP
40
40
43
55
7E
80
7C
00
00
00
00
00
00
00
00
00
ENDCHAR
STARTCHAR uni06D7
ENCODING 1751
SWIDTH 480 0
DWIDTH 8 0
BBX 8 16 0 -4
BITMAP
2A
20
26
2A
7C
80
7C
00
00
00
00
00
00
00
00
00
ENDCHAR
STARTCHAR uni06D8
ENCODING 1752
SWIDTH 480 0
DWIDTH 8 0
BBX 8 16 0 -4
BITMAP
0C
0E
1C
60
00
00
00
00
00
00
00
00
00
00
00
00
ENDCHAR
STARTCHAR uni06D9
ENCODING 1753
SWIDTH 480 0
DWIDTH 8 0
BBX 8 16 0 -4
BITMAP
14
14
08
14
18
00
00
00
00
00
00
00
00
00
00
00
ENDCHAR
STARTCHAR uni06DA
ENCODING 1754
SWIDTH 480 0
DWIDTH 8 0
BBX 8 16 0 -4
BITMAP
18
2C
10
28
22
1C
00
00
00
00
00
00
00
00
00
00
ENDCHAR
STARTCHAR uni06DB
ENCODING 1755
SWIDTH 480 0
DWIDTH 8 0
BBX 8 16 0 -4
BITMAP
08
00
14
00
00
00
00
00
00
00
00
00
00
00
00
00
ENDCHAR
STARTCHAR uni06DC
ENCODING 1756
SWIDTH 480 0
DWIDTH 8 0
BBX 8 16 0 -4
BITMAP
15
8A
90
60
00
00
00
00
00
00
00
00
00
00
00
00
ENDCHAR
STARTCHAR uni06DD
ENCODING 1757
SWIDTH 480 0
DWIDTH 8 0
BBX 8 16 0 -4
BITMAP
00
5A
A5
66
5B
81
81
81
81
81
81
5A
66
A5
5A
00
ENDCHAR
STARTCHAR uni06DE
ENCODING 1758
SWIDTH 480 0
DWIDTH 8 0
BBX 8 16 0 -4
BITMAP
00
00
18
66
42
42
81
99
99
81
42
42
66
18
00
00
ENDCHAR
STARTCHAR uni06DF
ENCODING 1759
SWIDTH 480 0
DWIDTH 8 0
BBX 8 16 0 -4
BITMAP
08
1C
08
00
00
00
00
00
00
00
00
00
00
00
00
00
ENDCHAR
STARTCHAR uni06E0
ENCODING 1760
SWIDTH 480 0
DWIDTH 8 0
BBX 8 16 0 -4
BITMAP
18
18
00
00
00
00
00
00
00
00
00
00
00
00
00
00
ENDCHAR
STARTCHAR uni06E1
ENCODING 1761
SWIDTH 480 0
DWIDTH 8 0
BBX 8 16 0 -4
BITMAP
18
26
08
70
00
00
00
00
00
00
00
00
00
00
00
00
ENDCHAR
STARTCHAR uni06E2
ENCODING 1762
SWIDTH 480 0
DWIDTH 8 0
BBX 8 16 0 -4
BITMAP
0C
0C
10
10
10
00
00
00
00
00
00
00
00
00
00
00
ENDCHAR
STARTCHAR uni06E3
ENCODING 1763
SWIDTH 480 0
DWIDTH 8 0
BBX 8 16 0 -4
BITMAP
00
00
00
00
00
00
00
00
00
00
00
00
15
8A
90
60
ENDCHAR
STARTCHAR uni06E4
ENCODING 1764
SWIDTH 480 0
DWIDTH 8 0
BBX 8 16 0 -4
BITMAP
32
2C
00
00
00
00
00
00
00
00
00
00
00
00
00
00
ENDCHAR
STARTCHAR uni06E5
ENCODING 1765
SWIDTH 480 0
DWIDTH 8 0
BBX 8 16 0 -4
BITMAP
00
00
00
00
00
08
14
0C
04
08
30
00
00
00
00
00
ENDCHAR
STARTCHAR uni06E6
ENCODING 1766
SWIDTH 480 0
DWIDTH 8 0
BBX 8 16 0 -4
BITMAP
00
00
00
00
00
00
10
30
40
3E
00
00
00
00
00
00
ENDCHAR
STARTCHAR uni06E7
ENCODING 1767
SWIDTH 480 0
DWIDTH 8 0
BBX 8 16 0 -4
BITMAP
10
30
40
3E
00
00
00
00
00
00
00
00
00
00
00
00
ENDCHAR
STARTCHAR uni06E8
ENCODING 1768
SWIDTH 480 0
DWIDTH 8 0
BBX 8 16 0 -4
BITMAP
08
22
22
1C
00
00
00
00
00
00
00
00
00
00
00
00
ENDCHAR
STARTCHAR uni06E9
ENCODING 1769
SWIDTH 480 0
DWIDTH 8 0
BBX 8 16 0 -4
BITMAP
10
28
54
AA
92
54
54
54
54
54
54
54
82
FE
00
00
ENDCHAR
STARTCHAR uni06EA
ENCODING 1770
SWIDTH 480 0
DWIDTH 8 0
BBX 8 16 0 -4
BITMAP
00
00
00
00
00
00
00
00
00
00
00
08
14
22
14
08
ENDCHAR
STARTCHAR uni06EB
ENCODING 1771
SWIDTH 480 0
DWIDTH 8 0
BBX 8 16 0 -4
BITMAP
08
14
22
14
08
00
00
00
00
00
00
00
00
00
00
00
ENDCHAR
STARTCHAR uni06EC
ENCODING 1772
SWIDTH 480 0
DWIDTH 8 0
BBX 8 16 0 -4
BITMAP
18
3C
3C
18
00
00
00
00
00
00
00
00
00
00
00
00
ENDCHAR
STARTCHAR uni06ED
ENCODING 1773
SWIDTH 480 0
DWIDTH 8 0
BBX 8 16 0 -4
BITMAP
00
00
00
00
00
00
00
00
00
00
00
0C
0C
10
10
10
ENDCHAR
STARTCHAR uni06F0
ENCODING 1776
SWIDTH 480 0
DWIDTH 8 0
BBX 8 16 0 -4
BITMAP
00
00
00
00
00
38
44
44
38
00
00
00
00
00
00
00
ENDCHAR
STARTCHAR uni06F1
ENCODING 1777
SWIDTH 480 0
DWIDTH 8 0
BBX 8 16 0 -4
BITMAP
00
00
20
70
70
38
18
18
08
08
08
00
00
00
00
00
ENDCHAR
STARTCHAR uni06F2
ENCODING 1778
SWIDTH 480 0
DWIDTH 8 0
BBX 8 16 0 -4
BITMAP
00
00
44
FC
F8
60
30
30
10
10
10
00
00
00
00
00
ENDCHAR
STARTCHAR uni06F3
ENCODING 1779
SWIDTH 480 0
DWIDTH 8 0
BBX 8 16 0 -4
BITMAP
00
00
4A
FE
F4
60
30
30
10
10
10
00
00
00
00
00
ENDCHAR
STARTCHAR uni06F4
ENCODING 1780
SWIDTH 480 0
DWIDTH 8 0
BBX 8 16 0 -4
BITMAP
00
00
4E
F0
FE
7C
30
30
10
10
10
00
00
00
00
00
ENDCHAR
STARTCHAR uni06F5
ENCODING 1781
SWIDTH 480 0
DWIDTH 8 0
BBX 8 16 0 -4
BITMAP
00
00
30
38
2C
44
42
82
92
FE
6C
00
00
00
00
00
ENDCHAR
STARTCHAR uni06F6
ENCODING 1782
SWIDTH 480 0
DWIDTH 8 0
BBX 8 16 0 -4
BITMAP
00
00
18
3C
60
7E
3C
30
60
40
80
00
00
00
00
00
ENDCHAR
STARTCHAR uni06F7
ENCODING 1783
SWIDTH 480 0
DWIDTH 8 0
BBX 8 16 0 -4
BITMAP
00
00
82
C6
C6
6C
28
38
10
10
10
00
00
00
00
00
ENDCHAR
STARTCHAR uni06F8
ENCODING 1784
SWIDTH 480 0
DWIDTH 8 0
BBX 8 16 0 -4
BITMAP
00
00
10
10
10
38
28
6C
C6
C6
82
00
00
00
00
00
ENDCHAR
STARTCHAR uni06F9
ENCODING 1785
SWIDTH 480 0
DWIDTH 8 0
BBX 8 16 0 -4
BITMAP
00
00
70
F8
88
F8
78
08
0C
0E
06
00
00
00
00
00
ENDCHAR
STARTCHAR uni06FA
ENCODING 1786
SWIDTH 480 0
DWIDTH 8 0
BBX 8 16 0 -4
BITMAP
00
08
00
14
00
01
15
88
88
88
72
00
00
00
00
00
ENDCHAR
STARTCHAR uni06FB
ENCODING 1787
SWIDTH 480 0
DWIDTH 8 0
BBX 8 16 0 -4
BITMAP
00
00
04
00
06
09
31
9E
88
88
72
00
00
00
00
00
ENDCHAR
STARTCHAR uni06FC
ENCODING 1788
SWIDTH 480 0
DWIDTH 8 0
BBX 8 16 0 -4
BITMAP
00
40
00
00
70
80
8C
70
40
80
88
80
41
3E
00
00
ENDCHAR
STARTCHAR uni06FD
ENCODING 1789
SWIDTH 480 0
DWIDTH 8 0
BBX 8 16 0 -4
BITMAP
00
00
00
00
18
24
20
1E
20
00
14
14
14
14
00
00
ENDCHAR
STARTCHAR uni06FE
ENCODING 1790
SWIDTH 480 0
DWIDTH 8 0
BBX 8 16 0 -4
BITMAP
00
00
00
00
0C
12
12
3C
40
54
54
54
54
40
00
00
ENDCHAR
STARTCHAR m
ENCODING 4307
SWIDTH 480 0
DWIDTH 8 0
BBX 8 16 0 -4
BITMAP
00
00
00
00
00
6C
92
92
92
92
92
4C
30
4C
02
00
ENDCHAR
STARTCHAR m
ENCODING 4311
SWIDTH 480 0
DWIDTH 8 0
BBX 8 16 0 -4
BITMAP
00
00
00
00
00
6C
92
92
92
92
92
64
00
00
00
00
ENDCHAR
STARTCHAR m
ENCODING 4314
SWIDTH 480 0
DWIDTH 8 0
BBX 8 16 0 -4
BITMAP
00
00
00
00
00
54
AA
AA
AA
82
82
40
30
4C
02
00
ENDCHAR
STARTCHAR m
ENCODING 4317
SWIDTH 480 0
DWIDTH 8 0
BBX 8 16 0 -4
BITMAP
00
00
00
00
00
6C
92
92
92
82
82
44
00
00
00
00
ENDCHAR
STARTCHAR m
ENCODING 4326
SWIDTH 480 0
DWIDTH 8 0
BBX 8 16 0 -4
BITMAP
00
00
00
00
00
6C
92
92
92
82
82
40
30
4C
02
00
ENDCHAR
STARTCHAR uni1E00
ENCODING 7680
SWIDTH 480 0
DWIDTH 8 0
BBX 8 16 0 -4
BITMAP
00
00
10
38
6C
C6
C6
FE
C6
C6
C6
C6
00
38
6C
38
ENDCHAR
STARTCHAR uni1E01
ENCODING 7681
SWIDTH 480 0
DWIDTH 8 0
BBX 8 16 0 -4
BITMAP
00
00
00
00
00
78
0C
7C
CC
CC
CC
76
00
38
6C
38
ENDCHAR
STARTCHAR uni1E02
ENCODING 7682
SWIDTH 480 0
DWIDTH 8 0
BBX 8 16 0 -4
BITMAP
18
18
00
FC
66
66
66
7C
66
66
66
FC
00
00
00
00
ENDCHAR
STARTCHAR uni1E03
ENCODING 7683
SWIDTH 480 0
DWIDTH 8 0
BBX 8 16 0 -4
BITMAP
00
0C
EC
60
60
78
6C
66
66
66
66
7C
00
00
00
00
ENDCHAR
STARTCHAR uni1E04
ENCODING 7684
SWIDTH 480 0
DWIDTH 8 0
BBX 8 16 0 -4
BITMAP
00
00
FC
66
66
66
7C
66
66
66
66
FC
00
18
18
00
ENDCHAR
STARTCHAR uni1E05
ENCODING 7685
SWIDTH 480 0
DWIDTH 8 0
BBX 8 16 0 -4
BITMAP
00
00
E0
60
60
78
6C
66
66
66
66
7C
00
18
18
00
ENDCHAR
STARTCHAR uni1E06
ENCODING 7686
SWIDTH 480 0
DWIDTH 8 0
BBX 8 16 0 -4
BITMAP
00
00
FC
66
66
66
7C
66
66
66
66
FC
00
7C
00
00
ENDCHAR
STARTCHAR uni1E07
ENCODING 7687
SWIDTH 480 0
DWIDTH 8 0
BBX 8 16 0 -4
BITMAP
00
00
E0
60
60
78
6C
66
66
66
66
7C
00
7C
00
00
ENDCHAR
STARTCHAR uni1E08
ENCODING 7688
SWIDTH 480 0
DWIDTH 8 0
BBX 8 16 0 -4
BITMAP
0C
18
00
3C
66
C2
C0
C0
C0
C2
66
3C
18
0C
38
00
ENDCHAR
STARTCHAR uni1E09
ENCODING 7689
SWIDTH 480 0
DWIDTH 8 0
BBX 8 16 0 -4
BITMAP
00
00
0C
18
00
7C
C6
C0
C0
C0
C6
7C
18
0C
38
00
ENDCHAR
STARTCHAR uni1E0A
ENCODING 7690
SWIDTH 480 0
DWIDTH 8 0
BBX 8 16 0 -4
BITMAP
30
30
00
F8
6C
66
66
66
66
66
6C
F8
00
00
00
00
ENDCHAR
STARTCHAR uni1E0B
ENCODING 7691
SWIDTH 480 0
DWIDTH 8 0
BBX 8 16 0 -4
BITMAP
60
60
0C
0C
0C
3C
6C
CC
CC
CC
CC
76
00
00
00
00
ENDCHAR
STARTCHAR uni1E0C
ENCODING 7692
SWIDTH 480 0
DWIDTH 8 0
BBX 8 16 0 -4
BITMAP
00
00
F8
6C
66
66
66
66
66
66
6C
F8
00
30
30
00
ENDCHAR
STARTCHAR uni1E0D
ENCODING 7693
SWIDTH 480 0
DWIDTH 8 0
BBX 8 16 0 -4
BITMAP
00
00
1C
0C
0C
3C
6C
CC
CC
CC
CC
76
00
30
30
00
ENDCHAR
STARTCHAR uni1E0E
ENCODING 7694
SWIDTH 480 0
DWIDTH 8 0
BBX 8 16 0 -4
BITMAP
00
00
F8
6C
66
66
66
66
66
66
6C
F8
00
7C
00
00
ENDCHAR
STARTCHAR uni1E0F
ENCODING 7695
SWIDTH 480 0
DWIDTH 8 0
BBX 8 16 0 -4
BITMAP
00
00
1C
0C
0C
3C
6C
CC
CC
CC
CC
76
00
7C
00
00
ENDCHAR
STARTCHAR uni1E10
ENCODING 7696
SWIDTH 480 0
DWIDTH 8 0
BBX 8 16 0 -4
BITMAP
00
00
F8
6C
66
66
66
66
66
66
6C
F8
30
18
70
00
ENDCHAR
STARTCHAR uni1E11
ENCODING 7697
SWIDTH 480 0
DWIDTH 8 0
BBX 8 16 0 -4
BITMAP
00
00
1C
0C
0C
3C
6C
CC
CC
CC
CC
76
30
18
70
00
ENDCHAR
STARTCHAR uni1E12
ENCODING 7698
SWIDTH 480 0
DWIDTH 8 0
BBX 8 16 0 -4
BITMAP
00
00
F8
6C
66
66
66
66
66
66
6C
F8
10
38
6C
00
ENDCHAR
STARTCHAR uni1E13
ENCODING 7699
SWIDTH 480 0
DWIDTH 8 0
BBX 8 16 0 -4
BITMAP
00
00
1C
0C
0C
3C
6C
CC
CC
CC
CC
76
10
38
6C
00
ENDCHAR
STARTCHAR uni1E14
ENCODING 7700
SWIDTH 480 0
DWIDTH 8 0
BBX 8 16 0 -4
BITMAP
60
30
00
7C
00
FE
62
68
78
68
62
FE
00
00
00
00
ENDCHAR
STARTCHAR uni1E15
ENCODING 7701
SWIDTH 480 0
DWIDTH 8 0
BBX 8 16 0 -4
BITMAP
60
30
00
7C
00
7C
C6
FE
C0
C0
C6
7C
00
00
00
00
ENDCHAR
STARTCHAR uni1E16
ENCODING 7702
SWIDTH 480 0
DWIDTH 8 0
BBX 8 16 0 -4
BITMAP
0C
18
00
7C
00
FE
62
68
78
68
62
FE
00
00
00
00
ENDCHAR
STARTCHAR uni1E17
ENCODING 7703
SWIDTH 480 0
DWIDTH 8 0
BBX 8 16 0 -4
BITMAP
0C
18
00
7C
00
7C
C6
FE
C0
C0
C6
7C
00
00
00
00
ENDCHAR
STARTCHAR uni1E18
ENCODING 7704
SWIDTH 480 0
DWIDTH 8 0
BBX 8 16 0 -4
BITMAP
00
00
FE
66
62
68
78
68
60
62
66
FE
10
38
6C
00
ENDCHAR
STARTCHAR uni1E19
ENCODING 7705
SWIDTH 480 0
DWIDTH 8 0
BBX 8 16 0 -4
BITMAP
00
00
00
00
00
7C
C6
FE
C0
C0
C6
7C
10
38
6C
00
ENDCHAR
STARTCHAR uni1E1A
ENCODING 7706
SWIDTH 480 0
DWIDTH 8 0
BBX 8 16 0 -4
BITMAP
00
00
FE
66
62
68
78
68
60
62
66
FE
00
76
DC
00
ENDCHAR
STARTCHAR uni1E1B
ENCODING 7707
SWIDTH 480 0
DWIDTH 8 0
BBX 8 16 0 -4
BITMAP
00
00
00
00
00
7C
C6
FE
C0
C0
C6
7C
00
76
DC
00
ENDCHAR
STARTCHAR uni1E1C
ENCODING 7708
SWIDTH 480 0
DWIDTH 8 0
BBX 8 16 0 -4
BITMAP
6C
38
00
FE
66
62
68
78
68
62
66
FE
18
0C
38
00
ENDCHAR
STARTCHAR uni1E1D
ENCODING 7709
SWIDTH 480 0
DWIDTH 8 0
BBX 8 16 0 -4
BITMAP
00
00
6C
38
00
7C
C6
FE
C0
C0
C6
7C
18
0C
38
00
ENDCHAR
STARTCHAR uni1E1E
ENCODING 7710
SWIDTH 480 0
DWIDTH 8 0
BBX 8 16 0 -4
BITMAP
18
18
00
FE
66
62
68
78
68
60
60
F0
00
00
00
00
ENDCHAR
STARTCHAR uni1E1F
ENCODING 7711
SWIDTH 480 0
DWIDTH 8 0
BBX 8 16 0 -4
BITMAP
30
30
00
38
6C
64
F0
60
60
60
60
F0
00
00
00
00
ENDCHAR
STARTCHAR uni1E20
ENCODING 7712
SWIDTH 480 0
DWIDTH 8 0
BBX 8 16 0 -4
BITMAP
00
7C
00
3C
66
C2
C0
DE
C6
C6
66
3A
00
00
00
00
ENDCHAR
STARTCHAR uni1E21
ENCODING 7713
SWIDTH 480 0
DWIDTH 8 0
BBX 8 16 0 -4
BITMAP
00
00
00
7C
00
76
CC
CC
CC
CC
CC
7C
0C
CC
78
00
ENDCHAR
STARTCHAR uni1E22
ENCODING 7714
SWIDTH 480 0
DWIDTH 8 0
BBX 8 16 0 -4
BITMAP
30
30
00
C6
C6
C6
C6
FE
C6
C6
C6
C6
00
00
00
00
ENDCHAR
STARTCHAR uni1E23
ENCODING 7715
SWIDTH 480 0
DWIDTH 8 0
BBX 8 16 0 -4
BITMAP
0C
0C
E0
60
60
6C
76
66
66
66
66
E6
00
00
00
00
ENDCHAR
STARTCHAR uni1E24
ENCODING 7716
SWIDTH 480 0
DWIDTH 8 0
BBX 8 16 0 -4
BITMAP
00
00
C6
C6
C6
C6
FE
C6
C6
C6
C6
C6
00
30
30
00
ENDCHAR
STARTCHAR uni1E25
ENCODING 7717
SWIDTH 480 0
DWIDTH 8 0
BBX 8 16 0 -4
BITMAP
00
00
E0
60
60
6C
76
66
66
66
66
E6
00
18
18
00
ENDCHAR
STARTCHAR uni1E26
ENCODING 7718
SWIDTH 480 0
DWIDTH 8 0
BBX 8 16 0 -4
BITMAP
6C
6C
00
C6
C6
C6
C6
FE
C6
C6
C6
C6
00
00
00
00
ENDCHAR
STARTCHAR uni1E27
ENCODING 7719
SWIDTH 480 0
DWIDTH 8 0
BBX 8 16 0 -4
BITMAP
6C
6C
00
E0
60
6C
76
66
66
66
66
E6
00
00
00
00
ENDCHAR
STARTCHAR uni1E28
ENCODING 7720
SWIDTH 480 0
DWIDTH 8 0
BBX 8 16 0 -4
BITMAP
00
00
C6
C6
C6
C6
FE
C6
C6
C6
C6
C6
60
30
E0
00
ENDCHAR
STARTCHAR uni1E29
ENCODING 7721
SWIDTH 480 0
DWIDTH 8 0
BBX 8 16 0 -4
BITMAP
00
00
E0
60
60
6C
76
66
66
66
66
E6
30
18
70
00
ENDCHAR
STARTCHAR uni1E2A
ENCODING 7722
SWIDTH 480 0
DWIDTH 8 0
BBX 8 16 0 -4
BITMAP
00
00
C6
C6
C6
C6
FE
C6
C6
C6
C6
C6
00
6C
38
00
ENDCHAR
STARTCHAR uni1E2B
ENCODING 7723
SWIDTH 480 0
DWIDTH 8 0
BBX 8 16 0 -4
BITMAP
00
00
E0
60
60
6C
76
66
66
66
66
E6
00
6C
38
00
ENDCHAR
STARTCHAR uni1E2C
ENCODING 7724
SWIDTH 480 0
DWIDTH 8 0
BBX 8 16 0 -4
BITMAP
00
00
3C
18
18
18
18
18
18
18
18
3C
00
76
DC
00
ENDCHAR
STARTCHAR uni1E2D
ENCODING 7725
SWIDTH 480 0
DWIDTH 8 0
BBX 8 16 0 -4
BITMAP
00
00
18
18
00
38
18
18
18
18
18
3C
00
76
DC
00
ENDCHAR
STARTCHAR uni1E2E
ENCODING 7726
SWIDTH 480 0
DWIDTH 8 0
BBX 8 16 0 -4
BITMAP
0C
18
66
00
3C
18
18
18
18
18
18
3C
00
00
00
00
ENDCHAR
STARTCHAR uni1E2F
ENCODING 7727
SWIDTH 480 0
DWIDTH 8 0
BBX 8 16 0 -4
BITMAP
0C
18
66
66
00
38
18
18
18
18
18
3C
00
00
00
00
ENDCHAR
STARTCHAR uni1E30
ENCODING 7728
SWIDTH 480 0
DWIDTH 8 0
BBX 8 16 0 -4
BITMAP
18
18
00
E6
66
66
6C
78
6C
66
66
E6
00
00
00
00
ENDCHAR
STARTCHAR uni1E31
ENCODING 7729
SWIDTH 480 0
DWIDTH 8 0
BBX 8 16 0 -4
BITMAP
00
0C
EC
60
60
66
6C
78
78
6C
66
E6
00
00
00
00
ENDCHAR
STARTCHAR uni1E32
ENCODING 7730
SWIDTH 480 0
DWIDTH 8 0
BBX 8 16 0 -4
BITMAP
00
00
E6
66
66
6C
78
78
6C
66
66
E6
00
18
18
00
ENDCHAR
STARTCHAR uni1E33
ENCODING 7731
SWIDTH 480 0
DWIDTH 8 0
BBX 8 16 0 -4
BITMAP
00
00
E0
60
60
66
6C
78
78
6C
66
E6
00
18
18
00
ENDCHAR
STARTCHAR uni1E34
ENCODING 7732
SWIDTH 480 0
DWIDTH 8 0
BBX 8 16 0 -4
BITMAP
00
00
E6
66
66
6C
78
78
6C
66
66
E6
00
7C
00
00
ENDCHAR
STARTCHAR uni1E35
ENCODING 7733
SWIDTH 480 0
DWIDTH 8 0
BBX 8 16 0 -4
BITMAP
00
00
E0
60
60
66
6C
78
78
6C
66
E6
00
7C
00
00
ENDCHAR
STARTCHAR uni1E36
ENCODING 7734
SWIDTH 480 0
DWIDTH 8 0
BBX 8 16 0 -4
BITMAP
00
00
F0
60
60
60
60
60
60
62
66
FE
00
18
18
00
ENDCHAR
STARTCHAR uni1E37
ENCODING 7735
SWIDTH 480 0
DWIDTH 8 0
BBX 8 16 0 -4
BITMAP
00
00
38
18
18
18
18
18
18
18
18
3C
00
18
18
00
ENDCHAR
STARTCHAR uni1E38
ENCODING 7736
SWIDTH 480 0
DWIDTH 8 0
BBX 8 16 0 -4
BITMAP
00
7C
00
F0
60
60
60
60
60
62
66
FE
00
18
18
00
ENDCHAR
STARTCHAR uni1E39
ENCODING 7737
SWIDTH 480 0
DWIDTH 8 0
BBX 8 16 0 -4
BITMAP
00
7C
00
38
18
18
18
18
18
18
18
3C
00
18
18
00
ENDCHAR
STARTCHAR uni1E3A
ENCODING 7738
SWIDTH 480 0
DWIDTH 8 0
BBX 8 16 0 -4
BITMAP
00
00
F0
60
60
60
60
60
60
62
66
FE
00
7C
00
00
ENDCHAR
STARTCHAR uni1E3B
ENCODING 7739
SWIDTH 480 0
DWIDTH 8 0
BBX 8 16 0 -4
BITMAP
00
00
38
18
18
18
18
18
18
18
18
3C
00
7E
00
00
ENDCHAR
STARTCHAR uni1E3C
ENCODING 7740
SWIDTH 480 0
DWIDTH 8 0
BBX 8 16 0 -4
BITMAP
00
00
F0
60
60
60
60
60
60
62
66
FE
10
38
6C
00
ENDCHAR
STARTCHAR uni1E3D
ENCODING 7741
SWIDTH 480 0
DWIDTH 8 0
BBX 8 16 0 -4
BITMAP
00
00
38
18
18
18
18
18
18
18
18
3C
10
38
6C
00
ENDCHAR
STARTCHAR uni1E3E
ENCODING 7742
SWIDTH 480 0
DWIDTH 8 0
BBX 8 16 0 -4
BITMAP
0C
18
00
C6
EE
FE
FE
D6
C6
C6
C6
C6
00
00
00
00
ENDCHAR
STARTCHAR uni1E3F
ENCODING 7743
SWIDTH 480 0
DWIDTH 8 0
BBX 8 16 0 -4
BITMAP
00
00
0C
18
00
EC
FE
D6
D6
D6
D6
C6
00
00
00
00
ENDCHAR
STARTCHAR uni1E40
ENCODING 7744
SWIDTH 480 0
DWIDTH 8 0
BBX 8 16 0 -4
BITMAP
30
30
00
C6
EE
FE
FE
D6
C6
C6
C6
C6
00
00
00
00
ENDCHAR
STARTCHAR uni1E41
ENCODING 7745
SWIDTH 480 0
DWIDTH 8 0
BBX 8 16 0 -4
BITMAP
00
00
30
30
00
EC
FE
D6
D6
D6
D6
C6
00
00
00
00
ENDCHAR
STARTCHAR uni1E42
ENCODING 7746
SWIDTH 480 0
DWIDTH 8 0
BBX 8 16 0 -4
BITMAP
00
00
C6
EE
FE
FE
D6
C6
C6
C6
C6
C6
00
30
30
00
ENDCHAR
STARTCHAR uni1E43
ENCODING 7747
SWIDTH 480 0
DWIDTH 8 0
BBX 8 16 0 -4
BITMAP
00
00
00
00
00
EC
FE
D6
D6
D6
D6
C6
00
30
30
00
ENDCHAR
STARTCHAR uni1E44
ENCODING 7748
SWIDTH 480 0
DWIDTH 8 0
BBX 8 16 0 -4
BITMAP
30
30
00
C6
E6
F6
FE
DE
CE
C6
C6
C6
00
00
00
00
ENDCHAR
STARTCHAR uni1E45
ENCODING 7749
SWIDTH 480 0
DWIDTH 8 0
BBX 8 16 0 -4
BITMAP
00
00
18
18
00
DC
66
66
66
66
66
66
00
00
00
00
ENDCHAR
STARTCHAR uni1E46
ENCODING 7750
SWIDTH 480 0
DWIDTH 8 0
BBX 8 16 0 -4
BITMAP
00
00
C6
E6
F6
FE
DE
CE
C6
C6
C6
C6
00
30
30
00
ENDCHAR
STARTCHAR uni1E47
ENCODING 7751
SWIDTH 480 0
DWIDTH 8 0
BBX 8 16 0 -4
BITMAP
00
00
00
00
00
DC
66
66
66
66
66
66
00
18
18
00
ENDCHAR
STARTCHAR uni1E48
ENCODING 7752
SWIDTH 480 0
DWIDTH 8 0
BBX 8 16 0 -4
BITMAP
00
00
C6
E6
F6
FE
DE
CE
C6
C6
C6
C6
00
7C
00
00
ENDCHAR
STARTCHAR uni1E49
ENCODING 7753
SWIDTH 480 0
DWIDTH 8 0
BBX 8 16 0 -4
BITMAP
00
00
00
00
00
DC
66
66
66
66
66
66
00
7C
00
00
ENDCHAR
STARTCHAR uni1E4A
ENCODING 7754
SWIDTH 480 0
DWIDTH 8 0
BBX 8 16 0 -4
BITMAP
00
00
C6
E6
F6
FE
DE
CE
C6
C6
C6
C6
10
38
6C
00
ENDCHAR
STARTCHAR uni1E4B
ENCODING 7755
SWIDTH 480 0
DWIDTH 8 0
BBX 8 16 0 -4
BITMAP
00
00
00
00
00
DC
66
66
66
66
66
66
10
38
6C
00
ENDCHAR
STARTCHAR uni1E4C
ENCODING 7756
SWIDTH 480 0
DWIDTH 8 0
BBX 8 16 0 -4
BITMAP
0C
18
72
9C
7C
C6
C6
C6
C6
C6
C6
7C
00
00
00
00
ENDCHAR
STARTCHAR uni1E4D
ENCODING 7757
SWIDTH 480 0
DWIDTH 8 0
BBX 8 16 0 -4
BITMAP
0C
18
76
DC
00
7C
C6
C6
C6
C6
C6
7C
00
00
00
00
ENDCHAR
STARTCHAR uni1E4E
ENCODING 7758
SWIDTH 480 0
DWIDTH 8 0
BBX 8 16 0 -4
BITMAP
6C
00
72
9C
7C
C6
C6
C6
C6
C6
C6
7C
00
00
00
00
ENDCHAR
STARTCHAR uni1E4F
ENCODING 7759
SWIDTH 480 0
DWIDTH 8 0
BBX 8 16 0 -4
BITMAP
6C
00
76
DC
00
7C
C6
C6
C6
C6
C6
7C
00
00
00
00
ENDCHAR
STARTCHAR uni1E50
ENCODING 7760
SWIDTH 480 0
DWIDTH 8 0
BBX 8 16 0 -4
BITMAP
60
30
7C
00
7C
C6
C6
C6
C6
C6
C6
7C
00
00
00
00
ENDCHAR
STARTCHAR uni1E51
ENCODING 7761
SWIDTH 480 0
DWIDTH 8 0
BBX 8 16 0 -4
BITMAP
60
30
00
7C
00
7C
C6
C6
C6
C6
C6
7C
00
00
00
00
ENDCHAR
STARTCHAR uni1E52
ENCODING 7762
SWIDTH 480 0
DWIDTH 8 0
BBX 8 16 0 -4
BITMAP
0C
18
7C
00
7C
C6
C6
C6
C6
C6
C6
7C
00
00
00
00
ENDCHAR
STARTCHAR uni1E53
ENCODING 7763
SWIDTH 480 0
DWIDTH 8 0
BBX 8 16 0 -4
BITMAP
0C
18
00
7C
00
7C
C6
C6
C6
C6
C6
7C
00
00
00
00
ENDCHAR
STARTCHAR uni1E54
ENCODING 7764
SWIDTH 480 0
DWIDTH 8 0
BBX 8 16 0 -4
BITMAP
0C
18
00
FC
66
66
66
7C
60
60
60
F0
00
00
00
00
ENDCHAR
STARTCHAR uni1E55
ENCODING 7765
SWIDTH 480 0
DWIDTH 8 0
BBX 8 16 0 -4
BITMAP
00
00
0C
18
00
DC
66
66
66
66
66
7C
60
60
F0
00
ENDCHAR
STARTCHAR uni1E56
ENCODING 7766
SWIDTH 480 0
DWIDTH 8 0
BBX 8 16 0 -4
BITMAP
18
18
00
FC
66
66
66
7C
60
60
60
F0
00
00
00
00
ENDCHAR
STARTCHAR uni1E57
ENCODING 7767
SWIDTH 480 0
DWIDTH 8 0
BBX 8 16 0 -4
BITMAP
00
00
18
18
00
DC
66
66
66
66
66
7C
60
60
F0
00
ENDCHAR
STARTCHAR uni1E58
ENCODING 7768
SWIDTH 480 0
DWIDTH 8 0
BBX 8 16 0 -4
BITMAP
18
18
00
FC
66
66
66
7C
6C
66
66
E6
00
00
00
00
ENDCHAR
STARTCHAR uni1E59
ENCODING 7769
SWIDTH 480 0
DWIDTH 8 0
BBX 8 16 0 -4
BITMAP
00
00
18
18
00
DC
76
66
60
60
60
F0
00
00
00
00
ENDCHAR
STARTCHAR uni1E5A
ENCODING 7770
SWIDTH 480 0
DWIDTH 8 0
BBX 8 16 0 -4
BITMAP
00
00
FC
66
66
66
7C
6C
66
66
66
E6
00
18
18
00
ENDCHAR
STARTCHAR uni1E5B
ENCODING 7771
SWIDTH 480 0
DWIDTH 8 0
BBX 8 16 0 -4
BITMAP
00
00
00
00
00
DC
76
66
60
60
60
F0
00
18
18
00
ENDCHAR
STARTCHAR uni1E5C
ENCODING 7772
SWIDTH 480 0
DWIDTH 8 0
BBX 8 16 0 -4
BITMAP
00
7C
00
FC
66
66
66
7C
6C
66
66
E6
00
18
18
00
ENDCHAR
STARTCHAR uni1E5D
ENCODING 7773
SWIDTH 480 0
DWIDTH 8 0
BBX 8 16 0 -4
BITMAP
00
00
00
7C
00
DC
76
66
60
60
60
F0
00
18
18
00
ENDCHAR
STARTCHAR uni1E5E
ENCODING 7774
SWIDTH 480 0
DWIDTH 8 0
BBX 8 16 0 -4
BITMAP
00
00
FC
66
66
66
7C
6C
66
66
66
E6
00
7C
00
00
ENDCHAR
STARTCHAR uni1E5F
ENCODING 7775
SWIDTH 480 0
DWIDTH 8 0
BBX 8 16 0 -4
BITMAP
00
00
00
00
00
DC
76
66
60
60
60
F0
00
7C
00
00
ENDCHAR
STARTCHAR uni1E60
ENCODING 7776
SWIDTH 480 0
DWIDTH 8 0
BBX 8 16 0 -4
BITMAP
30
30
00
7C
C6
C6
60
38
0C
C6
C6
7C
00
00
00
00
ENDCHAR
STARTCHAR uni1E61
ENCODING 7777
SWIDTH 480 0
DWIDTH 8 0
BBX 8 16 0 -4
BITMAP
00
00
30
30
00
7C
C6
60
38
0C
C6
7C
00
00
00
00
ENDCHAR
STARTCHAR uni1E62
ENCODING 7778
SWIDTH 480 0
DWIDTH 8 0
BBX 8 16 0 -4
BITMAP
00
00
7C
C6
C6
60
38
0C
06
C6
C6
7C
00
30
30
00
ENDCHAR
STARTCHAR uni1E63
ENCODING 7779
SWIDTH 480 0
DWIDTH 8 0
BBX 8 16 0 -4
BITMAP
00
00
00
00
00
7C
C6
60
38
0C
C6
7C
00
30
30
00
ENDCHAR
STARTCHAR uni1E64
ENCODING 7780
SWIDTH 480 0
DWIDTH 8 0
BBX 8 16 0 -4
BITMAP
60
6C
18
00
7C
C6
C6
70
1C
C6
C6
7C
00
00
00
00
ENDCHAR
STARTCHAR uni1E65
ENCODING 7781
SWIDTH 480 0
DWIDTH 8 0
BBX 8 16 0 -4
BITMAP
60
60
0C
18
00
7C
C6
60
38
0C
C6
7C
00
00
00
00
ENDCHAR
STARTCHAR uni1E66
ENCODING 7782
SWIDTH 480 0
DWIDTH 8 0
BBX 8 16 0 -4
BITMAP
30
44
38
10
7C
C6
C6
70
1C
C6
C6
7C
00
00
00
00
ENDCHAR
STARTCHAR uni1E67
ENCODING 7783
SWIDTH 480 0
DWIDTH 8 0
BBX 8 16 0 -4
BITMAP
30
30
44
38
10
7C
C6
60
38
0C
C6
7C
00
00
00
00
ENDCHAR
STARTCHAR uni1E68
ENCODING 7784
SWIDTH 480 0
DWIDTH 8 0
BBX 8 16 0 -4
BITMAP
30
30
00
7C
C6
C6
60
38
0C
C6
C6
7C
00
30
30
00
ENDCHAR
STARTCHAR uni1E69
ENCODING 7785
SWIDTH 480 0
DWIDTH 8 0
BBX 8 16 0 -4
BITMAP
00
00
30
30
00
7C
C6
60
38
0C
C6
7C
00
30
30
00
ENDCHAR
STARTCHAR uni1E6A
ENCODING 7786
SWIDTH 480 0
DWIDTH 8 0
BBX 8 16 0 -4
BITMAP
18
18
00
7E
7E
5A
18
18
18
18
18
3C
00
00
00
00
ENDCHAR
STARTCHAR uni1E6B
ENCODING 7787
SWIDTH 480 0
DWIDTH 8 0
BBX 8 16 0 -4
BITMAP
00
06
16
30
30
FC
30
30
30
30
36
1C
00
00
00
00
ENDCHAR
ENDFONT
